SplineFontDB: 3.0
FontName: Louis
FullName: Louis
FamilyName: Louis
Weight: Medium
Copyright: Created by Ludi,,, with FontForge 2.0 (http://fontforge.sf.net)
UComments: "2013-7-2: Created." 
Version: 001.000
ItalicAngle: 0
UnderlinePosition: -100
UnderlineWidth: 50
Ascent: 800
Descent: 200
LayerCount: 2
Layer: 0 0 "Back"  1
Layer: 1 0 "Fore"  0
XUID: [1021 619 1067718245 15748833]
OS2Version: 0
OS2_WeightWidthSlopeOnly: 0
OS2_UseTypoMetrics: 1
CreationTime: 1372770620
ModificationTime: 1376923167
OS2TypoAscent: 0
OS2TypoAOffset: 1
OS2TypoDescent: 0
OS2TypoDOffset: 1
OS2TypoLinegap: 0
OS2WinAscent: 0
OS2WinAOffset: 1
OS2WinDescent: 0
OS2WinDOffset: 1
HheadAscent: 0
HheadAOffset: 1
HheadDescent: 0
HheadDOffset: 1
OS2Vendor: 'PfEd'
MarkAttachClasses: 1
DEI: 91125
Encoding: ISO8859-1
UnicodeInterp: none
NameList: Adobe Glyph List
DisplaySize: -48
AntiAlias: 1
FitToEm: 1
WidthSeparation: 50
WinInfo: 64 16 10
BeginPrivate: 0
EndPrivate
BeginChars: 256 46

StartChar: A
Encoding: 65 65 0
Width: 383
VWidth: -145
Flags: HW
HStem: 140.146 24.8301<134.244 253.049> 400.461 47.7969<271.904 283.007>
VStem: 32.7887 38.6094<-4.781 66.417> 81.3512 21<100.707 125.03> 175.851 21<285.576 308.199> 289.273 35.4375<178.148 399.294>
LayerCount: 2
Fore
SplineSet
273.5234375 448.2578125 m 2
 273.5234375 448.255859375 l 1
 282.741210938 448.282226562 307.803710938 429.46875 312.8984375 417.958984375 c 0
 315.466796875 412.157226562 319.33984375 407.349609375 321.5390625 407.349609375 c 0
 324.125976562 407.349609375 325.583984375 399.00390625 325.6953125 383.724609375 c 0
 326.1328125 324.608398438 325.858398438 292.6640625 324.7109375 281.349609375 c 0
 324.028320312 274.612304688 322.48046875 258.862304688 321.2109375 246.349609375 c 0
 319.239257812 226.9140625 315.670898438 208.944335938 306.4453125 171.318359375 c 0
 303.021484375 157.35546875 302.576171875 137.799804688 305.6796875 135.880859375 c 0
 309.267578125 133.6640625 309.921875 120.130859375 306.7734375 111.927734375 c 0
 305.60546875 108.8828125 301.939453125 106.349609375 298.6796875 106.349609375 c 0
 288.975585938 106.349609375 284.3515625 98.908203125 284.3515625 83.162109375 c 0
 284.3515625 74.9990234375 282.961914062 67.4609375 281.2890625 66.427734375 c 0
 277.109375 63.8447265625 273.40625 38.24609375 276.1484375 31.099609375 c 0
 277.911132812 26.5068359375 280.971679688 25.7548828125 290.8046875 27.599609375 c 0
 297.665039062 28.88671875 308.915039062 32.8115234375 315.7421875 36.240234375 c 0
 331.693359375 44.251953125 351.18359375 47.64453125 357.6328125 43.568359375 c 0
 361.544921875 41.0966796875 361.924804688 38.486328125 359.0546875 32.193359375 c 0
 356.473632812 26.5341796875 349.008789062 22.125 334.6640625 17.537109375 c 0
 323.336914062 13.9150390625 309.376953125 9.0185546875 303.6015625 6.599609375 c 0
 285.282226562 -1.0703125 246.654296875 -6.326171875 238.8515625 -2.150390625 c 0
 232.6015625 1.1943359375 229.877929688 12.677734375 230.9765625 31.099609375 c 0
 231.1796875 34.50390625 245.184570312 84.26171875 253.3984375 110.724609375 c 0
 255.642578125 117.953125 256.458007812 124.946289062 255.1484375 126.255859375 c 0
 249.85546875 131.549804688 225.25390625 138.142578125 203.4140625 140.146484375 c 0
 177.819335938 142.49609375 123.857421875 133.813476562 110.2265625 125.162109375 c 0
 105.8671875 122.395507812 102.3515625 116.733398438 102.3515625 112.365234375 c 0
 102.3515625 108.025390625 100.158203125 101.276367188 97.4296875 97.380859375 c 0
 94.7021484375 93.4853515625 91.306640625 84.091796875 89.8828125 76.490234375 c 0
 88.458984375 68.888671875 84.29296875 58.6103515625 80.6953125 53.740234375 c 0
 77.0986328125 48.8701171875 72.9306640625 37.0576171875 71.3984375 27.490234375 c 0
 66.1962890625 -4.9921875 55.5390625 -12.25390625 33.2265625 1.349609375 c 0
 18.49609375 10.33203125 18.3515625 21.65625 32.7890625 38.099609375 c 0
 45.912109375 53.044921875 81.3515625 116.185546875 81.3515625 124.615234375 c 0
 81.3515625 127.89453125 77.26953125 133.407226562 72.2734375 136.865234375 c 0
 55.4658203125 148.500976562 49.8515625 155.301757812 49.8515625 164.208984375 c 0
 49.8515625 176.694335938 58.478515625 178.534179688 75.9921875 169.787109375 c 0
 84.560546875 165.508789062 93.671875 163.331054688 97.1015625 164.646484375 c 0
 100.419921875 165.919921875 107.63671875 176.526367188 113.1796875 188.271484375 c 0
 125.552734375 214.484375 139.146484375 239.0390625 153.9765625 262.099609375 c 0
 160.166992188 271.724609375 165.31640625 282.154296875 165.3515625 285.287109375 c 0
 165.38671875 288.419921875 167.713867188 292.953125 170.6015625 295.349609375 c 0
 173.489257812 297.74609375 175.8515625 302.755859375 175.8515625 306.505859375 c 0
 175.8515625 310.256835938 182.151367188 320.889648438 189.8515625 330.021484375 c 0
 197.551757812 339.153320312 203.8515625 348.340820312 203.8515625 350.474609375 c 0
 203.8515625 352.609375 208.3984375 358.849609375 213.9140625 364.365234375 c 0
 219.430664062 369.881835938 225.157226562 378.220703125 226.6015625 382.958984375 c 0
 228.046875 387.697265625 233.34375 397.143554688 238.4140625 403.849609375 c 0
 243.484375 410.555664062 251.938476562 422.813476562 257.2265625 431.083984375 c 0
 262.515625 439.35546875 269.096679688 446.967773438 271.8828125 448.037109375 c 0
 272.346679688 448.215820312 272.909179688 448.255859375 273.5234375 448.2578125 c 2
280.3046875 400.4609375 m 0
 272.544921875 400.797851562 255.73046875 386.767578125 249.5703125 373.6640625 c 0
 245.618164062 365.25390625 240.83984375 358.3515625 238.9609375 358.3515625 c 0
 237.083007812 358.3515625 234.377929688 354.020507812 233.0546875 348.7265625 c 0
 231.732421875 343.432617188 223.106445312 329.154296875 213.8046875 317.0078125 c 0
 204.50390625 304.861328125 196.8515625 293.588867188 196.8515625 291.9609375 c 0
 196.8515625 290.333007812 191.352539062 282.431640625 184.6015625 274.3515625 c 0
 177.8515625 266.271484375 171.3671875 255.735351562 170.1640625 250.9453125 c 0
 168.961914062 246.155273438 164.275390625 235.654296875 159.7734375 227.6484375 c 0
 141.399414062 194.971679688 138.1484375 188.124023438 135.8203125 177.3359375 c 2
 133.3046875 166.0703125 l 1
 185.2578125 164.9765625 l 2
 213.79296875 164.387695312 242.614257812 163.590820312 249.3515625 163.2265625 c 0
 258.807617188 162.713867188 263.073242188 164.517578125 267.9453125 171.2109375 c 0
 271.416992188 175.98046875 273.403320312 181.23046875 272.4296875 182.8046875 c 0
 271.45703125 184.37890625 273.67578125 200.020507812 277.3515625 217.5859375 c 0
 284.154296875 250.081054688 292.18359375 326.298828125 289.2734375 331.0078125 c 0
 288.393554688 332.431640625 287.131835938 347.819335938 286.5390625 365.2421875 c 0
 285.947265625 382.6640625 284.387695312 398.018554688 283.0390625 399.3671875 c 0
 282.361328125 400.044921875 281.413085938 400.412109375 280.3046875 400.4609375 c 0
EndSplineSet
EndChar

StartChar: B
Encoding: 66 66 1
Width: 404
VWidth: -145
Flags: HW
HStem: 2.718 28.4043<80.3687 224.761> 212.699 31.6514<214.707 286.303>
LayerCount: 2
Fore
SplineSet
27.322265625 9.130859375 m 4
 24.318359375 13.419921875 21.8671875 18.5478515625 21.8759765625 20.525390625 c 4
 21.9111328125 27.9345703125 38.666015625 64.9443359375 45.3564453125 72.38671875 c 4
 56.9736328125 85.3095703125 74.3603515625 112.572265625 74.3603515625 117.866210938 c 4
 74.3603515625 120.607421875 78.2841796875 127.083984375 83.0810546875 132.258789062 c 4
 87.876953125 137.434570312 92.724609375 145.93359375 93.853515625 151.145507812 c 4
 96.1181640625 161.607421875 96.7724609375 163.340820312 112.44921875 200.44921875 c 4
 118.450195312 214.653320312 123.360351562 228.340820312 123.360351562 230.86328125 c 4
 123.360351562 233.38671875 130.173828125 250.114257812 138.501953125 268.036132812 c 4
 146.830078125 285.958007812 155.751953125 306.133789062 158.328125 312.872070312 c 4
 165.271484375 331.03125 186.854492188 358.362304688 196.078125 360.676757812 c 4
 205.237304688 362.975585938 217.926757812 353.623046875 217.749023438 344.704101562 c 4
 217.689453125 341.633789062 215.325195312 336.064453125 212.499023438 332.328125 c 4
 209.672851562 328.590820312 207.360351562 322.877929688 207.360351562 319.630859375 c 4
 207.360351562 316.384765625 205.086914062 311.842773438 202.309570312 309.536132812 c 4
 195.791992188 304.127929688 172.360351562 258.919921875 172.360351562 251.754882812 c 4
 172.360351562 248.7421875 170.801757812 243.541992188 168.896484375 240.19921875 c 4
 166.990234375 236.856445312 160.567382812 221.521484375 154.622070312 206.122070312 c 4
 148.677734375 190.721679688 140.62109375 174.694335938 136.719726562 170.505859375 c 4
 132.818359375 166.317382812 130.704101562 161.147460938 132.020507812 159.016601562 c 4
 134.698242188 154.684570312 116.09375 115.092773438 102.017578125 95.1650390625 c 4
 96.984375 88.0400390625 88.3876953125 73.3583984375 82.9140625 62.5400390625 c 4
 75.267578125 47.4267578125 73.8203125 41.509765625 76.6650390625 36.99609375 c 6
 80.369140625 31.1220703125 l 5
 134.79296875 30.3759765625 l 6
 177.116210938 29.7958984375 190.096679688 30.6875 193.16796875 34.3896484375 c 4
 195.342773438 37.009765625 200.3671875 38.2998046875 204.34765625 37.2587890625 c 4
 208.323242188 36.21875 212.76171875 37.2939453125 214.209960938 39.626953125 c 4
 215.657226562 41.970703125 223.764648438 45.423828125 232.2265625 47.30078125 c 4
 249.9375 51.232421875 273.860351562 65.78515625 273.860351562 72.62890625 c 4
 273.860351562 75.19140625 277.010742188 80.1376953125 280.860351562 83.6220703125 c 4
 284.709960938 87.1064453125 287.870117188 92.46875 287.881835938 95.5390625 c 4
 287.881835938 98.609375 290.18359375 105.493164062 292.971679688 110.836914062 c 4
 295.758789062 116.180664062 299.56640625 128.814453125 301.432617188 138.911132812 c 4
 304.208984375 153.9296875 303.6484375 160.759765625 298.35546875 176.446289062 c 4
 289.901367188 201.494140625 276.579101562 209.20703125 235.736328125 212.69921875 c 4
 224.153320312 213.690429688 214.360351562 222.151367188 214.360351562 231.166992188 c 4
 214.360351562 237.59765625 223.912109375 241.594726562 245.860351562 244.350585938 c 4
 292.264648438 250.176757812 317.525390625 264.247070312 328.428710938 290.34375 c 4
 334.279296875 304.346679688 335.073242188 356.865234375 329.65234375 371.268554688 c 4
 325.25390625 382.952148438 304.370117188 405.275390625 289.610351562 414.067382812 c 4
 283.834960938 417.5078125 267.6796875 422.388671875 253.708984375 424.913085938 c 6
 228.306640625 429.504882812 l 5
 207.166015625 423.626953125 l 6
 195.538085938 420.39453125 179.928710938 413.71484375 172.478515625 408.784179688 c 4
 161.345703125 401.416992188 157.633789062 400.514648438 151.645507812 403.71875 c 4
 143.244140625 408.215820312 142.43359375 416.784179688 149.526367188 426.1484375 c 4
 154.5703125 432.80859375 162.012695312 437.4140625 189.860351562 451.109375 c 4
 206.635742188 459.359375 235.360351562 465.352539062 235.360351562 460.602539062 c 4
 235.360351562 459.034179688 243.62890625 457.834960938 253.735351562 457.936523438 c 4
 263.841796875 458.038085938 281.500976562 455.821289062 292.979492188 453.009765625 c 6
 313.848632812 447.896484375 l 5
 339.602539062 421.509765625 l 6
 353.768554688 406.99609375 369.129882812 387.796875 373.741210938 378.845703125 c 6
 382.125 362.568359375 l 5
 378.71484375 331.595703125 l 6
 373.721679688 286.23828125 372.903320312 283.864257812 357.732421875 270.76171875 c 4
 350.102539062 264.171875 343.860351562 256.775390625 343.860351562 254.326171875 c 4
 343.860351562 251.875976562 342.223632812 249.872070312 340.22265625 249.872070312 c 4
 338.221679688 249.872070312 328.3984375 244.359375 318.393554688 237.622070312 c 4
 308.389648438 230.883789062 301.966796875 225.372070312 304.120117188 225.372070312 c 4
 310.1015625 225.372070312 336.330078125 197.82421875 342.056640625 185.525390625 c 4
 349.112304688 170.375976562 346.307617188 130.72265625 334.907226562 84.439453125 c 4
 333.373046875 78.2109375 330.516601562 75.08984375 326.899414062 75.689453125 c 4
 323.201171875 76.302734375 319.907226562 72.4765625 317.279296875 64.5126953125 c 4
 314.50390625 56.1044921875 310.479492188 51.654296875 304.108398438 49.9501953125 c 4
 299.0625 48.6015625 290.767578125 42.5439453125 285.673828125 36.4912109375 c 4
 280.581054688 30.4384765625 274.379882812 26.2666015625 271.892578125 27.220703125 c 4
 269.40625 28.1748046875 265.489257812 26.6865234375 263.1875 23.9140625 c 4
 260.885742188 21.140625 256.024414062 18.8720703125 252.384765625 18.8720703125 c 4
 248.744140625 18.8720703125 243.030273438 17.4111328125 239.6875 15.626953125 c 4
 233.64453125 12.4013671875 224.391601562 8.77734375 214.360351562 5.7080078125 c 4
 211.47265625 4.82421875 169.436523438 3.4794921875 120.947265625 2.7177734375 c 6
 32.7841796875 1.333984375 l 5
 27.322265625 9.130859375 l 4
EndSplineSet
EndChar

StartChar: C
Encoding: 67 67 2
Width: 381
VWidth: -145
Flags: HW
HStem: -9.518 33.4043<148.29 170.987> -2.128 28<171.1 316.029>
LayerCount: 2
Fore
SplineSet
148.290039062 -9.5185546875 m 5x80
 139.364257812 -8.212890625 129.815429688 -5.2802734375 127.069335938 -3.0009765625 c 4
 124.323242188 -0.72265625 116.078125 1.88671875 108.747070312 2.7958984375 c 4
 101.416015625 3.705078125 91.9638671875 7.693359375 87.7421875 11.66015625 c 4
 83.5205078125 15.6259765625 78.5498046875 18.87109375 76.697265625 18.87109375 c 4
 71.767578125 18.87109375 53.48046875 36.95703125 46.388671875 48.845703125 c 4
 43.017578125 54.4970703125 36.884765625 64.3798828125 32.759765625 70.8076171875 c 4
 22.345703125 87.0341796875 19.6904296875 137.377929688 27.458984375 171.293945312 c 4
 43.9111328125 243.119140625 69.7890625 305.018554688 104.55078125 355.696289062 c 4
 112.5078125 367.296875 121.272460938 380.125 124.029296875 384.204101562 c 4
 131.4765625 395.227539062 156.801757812 421.37109375 160.032226562 421.37109375 c 4
 161.576171875 421.37109375 170.682617188 426.883789062 180.267578125 433.62109375 c 4
 189.853515625 440.359375 200.599609375 445.87109375 204.1484375 445.87109375 c 4
 207.697265625 445.87109375 211.529296875 446.80078125 212.665039062 447.935546875 c 4
 215.643554688 450.9140625 274.901367188 451.986328125 276.689453125 449.09375 c 4
 277.514648438 447.7578125 283.467773438 445.674804688 289.918945312 444.46484375 c 4
 296.370117188 443.254882812 305.32421875 438.350585938 309.818359375 433.567382812 c 4
 314.311523438 428.78515625 319.260742188 424.87109375 320.81640625 424.87109375 c 4
 322.372070312 424.87109375 330.576171875 418.177734375 339.046875 409.99609375 c 4
 358.534179688 391.17578125 361.881835938 377.903320312 350.658203125 363.96484375 c 4
 339.03125 349.52734375 326.931640625 353.125976562 316.810546875 374.032226562 c 4
 304.599609375 399.256835938 272.094726562 421.37109375 247.228515625 421.37109375 c 4
 228.775390625 421.37109375 199.658203125 406.622070312 181.142578125 387.895507812 c 4
 172.9609375 379.62109375 166.267578125 373.7578125 166.267578125 374.864257812 c 4
 166.267578125 375.971679688 160.754882812 369.658203125 154.017578125 360.834960938 c 4
 147.280273438 352.010742188 141.767578125 342.389648438 141.767578125 339.455078125 c 4
 141.767578125 336.51953125 138.670898438 332.4609375 134.88671875 330.435546875 c 4
 131.1015625 328.409179688 126.333984375 320.545898438 124.291015625 312.959960938 c 4
 122.249023438 305.374023438 119.12109375 298.266601562 117.341796875 297.166992188 c 4
 113.6640625 294.89453125 95.66796875 257.809570312 89.294921875 239.37109375 c 4
 86.966796875 232.633789062 83.791015625 223.971679688 82.240234375 220.12109375 c 4
 69.3125 188.046875 63.8134765625 159.286132812 63.8134765625 123.755859375 c 4
 63.8134765625 100.2890625 71.748046875 76.2607421875 83.8671875 63.0302734375 c 4
 90.2451171875 56.0654296875 97.830078125 46.8251953125 100.719726562 42.4951171875 c 4
 106.051757812 34.5068359375 142.530273438 20.2666015625 148.387695312 23.88671875 c 4x80
 150.0859375 24.935546875 153.342773438 23.5439453125 155.626953125 20.791015625 c 4
 157.91015625 18.0390625 161.8671875 16.5888671875 164.419921875 17.568359375 c 4
 166.971679688 18.546875 169.950195312 17.9072265625 171.0390625 16.1455078125 c 4
 172.229492188 14.2197265625 179.694335938 14.1982421875 189.767578125 16.09375 c 4
 198.98046875 17.8251953125 215.424804688 19.0693359375 226.3125 18.857421875 c 4
 237.19921875 18.6435546875 247.135742188 20.13671875 248.393554688 22.171875 c 4
 249.651367188 24.20703125 255.100585938 25.8720703125 260.501953125 25.8720703125 c 4
 265.904296875 25.8720703125 274.473632812 29.13671875 279.545898438 33.1259765625 c 4
 286.487304688 38.5859375 288.767578125 39.1435546875 288.767578125 35.3798828125 c 4
 288.767578125 31.4306640625 294.8046875 32.42578125 317.484375 40.115234375 c 4
 338.732421875 47.3193359375 347.890625 48.947265625 352.697265625 46.375 c 4
 360.227539062 42.3447265625 359.666992188 29.7578125 351.767578125 25.5205078125 c 4
 331.545898438 14.673828125 283.09375 -2.1279296875 272.034179688 -2.1279296875 c 4x40
 267.508789062 -2.1279296875 261.154296875 -3.505859375 257.913085938 -5.1904296875 c 4
 250.017578125 -9.2919921875 168.696289062 -12.501953125 148.290039062 -9.517578125 c 5
 148.290039062 -9.5185546875 l 5x80
EndSplineSet
EndChar

StartChar: D
Encoding: 68 68 3
Width: 385
VWidth: -145
Flags: HW
HStem: 1.162 25.7139<76.274 109.875> 12.713 37.6592<192.161 239.605> 18.872 7<209.305 213.154> 288.372 55.4482<163.522 184.484> 302.372 7<342.305 346.154> 403.872 38.5<117.825 190.939>
VStem: 57.1109 56.1182<68.508 136.372> 67.7291 2.33301<9.538 11.753 11.991 14.205> 207.73 7<20.446 24.297> 218.23 2.33301<16.538 18.753 18.991 21.205> 277.73 45.5<79.62 173.317> 318.272 42.6064<166.055 341.874> 319.955 31.2744<189.383 341.874> 340.73 7<303.946 307.797>
LayerCount: 2
Fore
SplineSet
46.7294921875 1.162109375 m 4x84e0
 36.7666015625 2.4013671875 31.30078125 4.7294921875 31.8544921875 7.4970703125 c 4
 32.3359375 9.9033203125 30.3671875 11.8720703125 27.4794921875 11.8720703125 c 4
 19.70703125 11.8720703125 21.0205078125 17.2626953125 32.7294921875 33.4267578125 c 4
 38.5048828125 41.3994140625 43.283203125 49.654296875 43.3486328125 51.771484375 c 4
 43.4150390625 53.8896484375 46.509765625 61.921875 50.2294921875 69.6220703125 c 4
 53.94921875 77.3212890625 57.044921875 84.953125 57.111328125 86.5810546875 c 4
 57.1767578125 88.208984375 60.4306640625 94.037109375 64.3427734375 99.53125 c 4
 70.5703125 108.27734375 77.1357421875 128.108398438 88.619140625 172.872070312 c 4
 92.2685546875 187.094726562 101.290039062 214.779296875 108.0078125 232.372070312 c 4
 141.134765625 319.118164062 151.266601562 337.584960938 169.15234375 343.8203125 c 4
 177.221679688 346.633789062 180.225585938 346.125 184.692382812 341.188476562 c 4
 192.287109375 332.796875 191.63671875 317.515625 183.229492188 306.827148438 c 4
 179.379882812 301.932617188 176.229492188 295.77734375 176.229492188 293.149414062 c 4
 176.229492188 290.521484375 174.779296875 288.372070312 173.0078125 288.372070312 c 4
 171.235351562 288.372070312 168.759765625 283.69921875 167.504882812 277.98828125 c 4
 166.250976562 272.27734375 161.400390625 261.969726562 156.7265625 255.083007812 c 4
 152.053710938 248.1953125 148.229492188 240.944335938 148.229492188 238.96875 c 4
 148.229492188 232.608398438 123.543945312 157.4375 118.299804688 147.83203125 c 4
 115.51171875 142.72265625 113.229492188 134.82421875 113.229492188 130.280273438 c 4
 113.229492188 125.735351562 110.2890625 116.529296875 106.696289062 109.8203125 c 4
 103.102539062 103.110351562 98.9697265625 92.109375 97.5107421875 85.3720703125 c 4
 96.052734375 78.6337890625 89.54296875 63.23828125 83.044921875 51.1591796875 c 4
 70.5634765625 27.9580078125 67.3759765625 14.81640625 75.9580078125 21.9384765625 c 4
 82.3515625 27.2451171875 111.791015625 31.0302734375 114.359375 26.8759765625 c 4x96e0
 117.380859375 21.9853515625 162.717773438 29.099609375 170.16015625 35.6318359375 c 6
 176.340820312 41.0576171875 l 5
 180.901367188 34.8203125 l 5
 185.462890625 28.5830078125 l 5
 199.858398438 35.9267578125 l 6
 207.776367188 39.966796875 215.2421875 44.869140625 216.448242188 46.8212890625 c 4
 217.655273438 48.7744140625 221.3203125 50.3720703125 224.594726562 50.3720703125 c 4
 231.338867188 50.3720703125 241.190429688 63.701171875 239.728515625 70.84765625 c 4
 239.166992188 73.58984375 240.421875 74.548828125 242.715820312 73.1298828125 c 4
 244.890625 71.7861328125 249.650390625 73.3818359375 253.291992188 76.6787109375 c 4
 262.768554688 85.25390625 277.729492188 115.178710938 277.729492188 125.557617188 c 4x46e0
 277.729492188 130.405273438 279.110351562 134.372070312 280.798828125 134.372070312 c 4
 284.182617188 134.372070312 295.693359375 159.765625 302.216796875 181.622070312 c 4
 306.087890625 194.59375 309.879882812 211.665039062 314.65625 237.622070312 c 4
 315.71875 243.396484375 317.345703125 269.215820312 318.271484375 294.998046875 c 6x44d0
 319.955078125 341.874023438 l 5
 310.2421875 366.748046875 l 6
 304.900390625 380.428710938 296.580078125 395.383789062 291.75390625 399.981445312 c 4
 281.810546875 409.455078125 249.392578125 424.872070312 239.416015625 424.872070312 c 4
 228.168945312 424.872070312 221.729492188 428.831054688 221.729492188 435.74609375 c 4
 221.729492188 444.836914062 216.626953125 444.071289062 212.180664062 434.311523438 c 4
 209.276367188 427.936523438 203.870117188 425.389648438 186.313476562 422.125 c 4
 174.106445312 419.854492188 159.819335938 414.818359375 154.565429688 410.934570312 c 4
 149.311523438 407.049804688 142.798828125 403.872070312 140.09375 403.872070312 c 4
 137.387695312 403.872070312 131.239257812 400.77734375 126.430664062 396.995117188 c 6
 117.688476562 390.118164062 l 5
 106.708984375 394.26171875 l 6
 100.395507812 396.645507812 95.7294921875 400.909179688 95.7294921875 404.294921875 c 4
 95.7294921875 411.731445312 136.534179688 442.372070312 146.436523438 442.372070312 c 4
 150.502929688 442.372070312 155.326171875 443.69921875 157.154296875 445.323242188 c 4
 158.983398438 446.946289062 169.396484375 450.986328125 180.294921875 454.30078125 c 6
 200.110351562 460.328125 l 5
 231.044921875 456.766601562 l 6
 265.583984375 452.791015625 296.399414062 443.047851562 308.502929688 432.27734375 c 4
 312.916015625 428.349609375 321.064453125 421.90625 326.610351562 417.95703125 c 4
 332.15625 414.0078125 337.703125 406.181640625 338.936523438 400.56640625 c 4
 340.169921875 394.950195312 343.440429688 388.478515625 346.204101562 386.185546875 c 4
 348.967773438 383.891601562 351.229492188 379.112304688 351.229492188 375.565429688 c 4x44c8
 351.229492188 372.018554688 353.616210938 362.086914062 356.533203125 353.494140625 c 4
 361.852539062 337.827148438 364.190429688 288.657226562 360.877929688 262.122070312 c 4x44d0
 356.272460938 225.2265625 353.811523438 212.103515625 349.212890625 199.92578125 c 4
 346.471679688 192.66796875 344.229492188 182.739257812 344.229492188 177.861328125 c 4
 344.229492188 172.984375 339.504882812 160.500976562 333.729492188 150.122070312 c 4
 327.954101562 139.7421875 323.229492188 129.098632812 323.229492188 126.46875 c 4
 323.229492188 123.838867188 319.969726562 114.938476562 315.984375 106.69140625 c 4
 312 98.4443359375 309.587890625 89.4853515625 310.625 86.7841796875 c 4
 311.715820312 83.9423828125 310.344726562 81.8720703125 307.369140625 81.8720703125 c 4
 304.220703125 81.8720703125 302.229492188 78.4833984375 302.229492188 73.1220703125 c 4
 302.229492188 66.9833984375 300.322265625 64.3720703125 295.83984375 64.3720703125 c 4
 292.325195312 64.3720703125 285.750976562 60.4345703125 281.229492188 55.6220703125 c 4
 274.424804688 48.37890625 274.018554688 46.8720703125 278.869140625 46.8720703125 c 4
 288.3046875 46.8720703125 285.600585938 40.2216796875 275.104492188 37.6142578125 c 4
 262.181640625 34.4033203125 242.826171875 21.6572265625 242.772460938 16.3212890625 c 4
 242.73828125 13.4189453125 237.174804688 12.24609375 225.63671875 12.712890625 c 4x44e0
 216.235351562 13.0927734375 206.391601562 11.7294921875 203.76171875 9.681640625 c 4
 201.130859375 7.6337890625 195.829101562 4.6630859375 191.979492188 3.0791015625 c 4
 183.888671875 -0.2490234375 70.1357421875 -1.75 46.7294921875 1.162109375 c 4x84e0
136.185546875 9.8720703125 m 6
 132.44921875 7.1220703125 128.51171875 5.05859375 127.435546875 5.2861328125 c 4
 107.193359375 9.5712890625 104.891601562 10.5302734375 108.854492188 13.02734375 c 4
 111.260742188 14.5439453125 114.873046875 14.7685546875 116.8828125 13.52734375 c 4
 118.892578125 12.28515625 122.809570312 13.15625 125.587890625 15.4619140625 c 4
 128.3671875 17.7685546875 133.416992188 18.5791015625 136.809570312 17.263671875 c 6
 142.979492188 14.8720703125 l 5
 136.185546875 9.8720703125 l 6
70.0625 14.205078125 m 4x05c0
 71.345703125 12.921875 71.345703125 10.8212890625 70.0625 9.5380859375 c 4
 68.779296875 8.2548828125 67.7294921875 9.3056640625 67.7294921875 11.8720703125 c 4
 67.7294921875 14.439453125 68.779296875 15.48828125 70.0625 14.205078125 c 4x05c0
220.5625 21.205078125 m 4
 221.845703125 19.921875 221.845703125 17.8212890625 220.5625 16.5380859375 c 4
 219.279296875 15.2548828125 218.229492188 16.3056640625 218.229492188 18.8720703125 c 4x24c0
 218.229492188 21.439453125 219.279296875 22.48828125 220.5625 21.205078125 c 4
214.729492188 22.3720703125 m 4
 214.729492188 20.4462890625 213.154296875 18.8720703125 211.229492188 18.8720703125 c 4
 209.3046875 18.8720703125 207.729492188 20.4462890625 207.729492188 22.3720703125 c 4
 207.729492188 24.296875 209.3046875 25.8720703125 211.229492188 25.8720703125 c 4
 213.154296875 25.8720703125 214.729492188 24.296875 214.729492188 22.3720703125 c 4
266.467773438 53.3310546875 m 4
 265.60546875 50.7412109375 262.091796875 48.0771484375 258.661132812 47.412109375 c 4
 254.670898438 46.638671875 252.98828125 47.900390625 253.991210938 50.912109375 c 4
 254.853515625 53.5029296875 258.3671875 56.166015625 261.797851562 56.8310546875 c 4
 265.788085938 57.6044921875 267.470703125 56.3427734375 266.467773438 53.3310546875 c 4
347.729492188 305.872070312 m 4x0cc4
 347.729492188 303.946289062 346.154296875 302.372070312 344.229492188 302.372070312 c 4
 342.3046875 302.372070312 340.729492188 303.946289062 340.729492188 305.872070312 c 4
 340.729492188 307.796875 342.3046875 309.372070312 344.229492188 309.372070312 c 4
 346.154296875 309.372070312 347.729492188 307.796875 347.729492188 305.872070312 c 4x0cc4
EndSplineSet
EndChar

StartChar: E
Encoding: 69 69 4
Width: 366
VWidth: -145
Flags: HW
HStem: -5.237 33.7129<85.2565 176.733 197.759 279.944> 396.871 50.1484<183.797 242.22>
VStem: 36.1122 49<28.82 132.939> 190.112 5.10059<280.907 286.528>
LayerCount: 2
Fore
SplineSet
115.598632812 -5.2373046875 m 4
 102.529296875 -3.5283203125 85.2041015625 1.1611328125 77.0986328125 5.18359375 c 4
 62.5205078125 12.41796875 36.1123046875 37.7919921875 36.1123046875 44.564453125 c 4
 36.1123046875 46.4931640625 33.673828125 50.7646484375 30.693359375 54.05859375 c 4
 27.435546875 57.6572265625 24.443359375 69.955078125 23.19140625 84.8876953125 c 4
 21.6162109375 103.67578125 22.6513671875 114.649414062 27.4384765625 129.924804688 c 4
 37.783203125 162.930664062 56.177734375 192.959960938 75.6748046875 208.671875 c 4
 96.1201171875 225.147460938 112.596679688 236.390625 117.61328125 237.288085938 c 4
 128.673828125 239.268554688 137.139648438 243.591796875 138.890625 248.155273438 c 4
 139.950195312 250.9140625 136.734375 262.087890625 131.74609375 272.984375 c 6
 122.67578125 292.796875 l 5
 124.509765625 319.5546875 l 6
 125.78125 338.109375 128.991210938 351.647460938 134.982421875 363.716796875 c 4
 156.405273438 406.87890625 163.641601562 416.395507812 185.834960938 430.592773438 c 4
 205.819335938 443.375976562 217.65625 445.93359375 261.862304688 447.01953125 c 6
 286.362304688 447.62109375 l 5
 302.112304688 436.299804688 l 6
 340.360351562 408.807617188 350.686523438 393.446289062 338.865234375 381.625 c 4
 327.879882812 370.639648438 316.208007812 374.4921875 296.583007812 395.580078125 c 6
 278.241210938 415.288085938 l 5
 269.099609375 412.994140625 l 6
 262.498046875 411.336914062 259.370117188 412.232421875 257.841796875 416.215820312 c 4
 256.256835938 420.346679688 252.977539062 421.165039062 244.793945312 419.474609375 c 4
 238.78125 418.233398438 231.893554688 414.701171875 229.487304688 411.625 c 4
 225.918945312 407.064453125 225.091796875 406.962890625 225.001953125 411.077148438 c 4
 224.931640625 414.265625 221.7734375 412.579101562 216.419921875 406.49609375 c 4
 211.759765625 401.202148438 204.72265625 396.87109375 200.780273438 396.87109375 c 4
 196.837890625 396.87109375 193.612304688 395.295898438 193.612304688 393.37109375 c 4
 193.612304688 386.385742188 192.620117188 384.501953125 185.3046875 377.604492188 c 4
 181.2109375 373.745117188 174.096679688 359.249023438 169.495117188 345.390625 c 4
 162.772460938 325.14453125 161.49609375 315.612304688 163 296.875 c 4
 165.479492188 265.984375 171.263671875 260.115234375 201.07421875 258.237304688 c 4
 233.438476562 256.200195312 244.150390625 252.600585938 245.506835938 243.30859375 c 4
 246.13671875 238.995117188 244.15625 231.658203125 241.106445312 227.002929688 c 6
 235.560546875 218.5390625 l 5
 208.943359375 220.102539062 l 6
 194.3046875 220.962890625 180.321289062 223.330078125 177.87109375 225.36328125 c 4
 171.806640625 230.397460938 142.212890625 220.365234375 130.420898438 209.278320312 c 4
 125.502929688 204.654296875 119.162109375 200.87109375 116.330078125 200.87109375 c 4
 108.387695312 200.87109375 74.671875 153.341796875 68.9521484375 134.083007812 c 4
 61.7568359375 109.852539062 65.5029296875 73.669921875 76.7314453125 58.94921875 c 4
 81.3408203125 52.9052734375 85.1123046875 46.1171875 85.1123046875 43.8642578125 c 4
 85.1123046875 37.935546875 106.079101562 26.078125 112.325195312 28.4755859375 c 4
 115.240234375 29.59375 119.407226562 28.0703125 121.586914062 25.0908203125 c 4
 124.280273438 21.40625 133.802734375 19.0712890625 151.341796875 17.794921875 c 6
 177.135742188 15.91796875 l 5
 187.41015625 23.5146484375 l 5
 197.684570312 31.111328125 l 5
 202.415039062 24.640625 l 6
 205.017578125 21.08203125 208.735351562 19.15234375 210.676757812 20.3525390625 c 4
 213.83984375 22.3076171875 222.142578125 23.615234375 253.963867188 27.1708984375 c 4
 259.244140625 27.7607421875 266.331054688 30.673828125 269.713867188 33.6435546875 c 4
 276.705078125 39.7841796875 291.271484375 45.1435546875 297.65234375 43.923828125 c 4
 300.01171875 43.47265625 306.719726562 45.57421875 312.55859375 48.59375 c 4
 327.7109375 56.4296875 336.215820312 51.23828125 334.354492188 35.2890625 c 6
 332.947265625 23.2314453125 l 5
 317.174804688 21.0693359375 l 6
 299.451171875 18.640625 275.354492188 11.00390625 259.431640625 2.76953125 c 4
 253.581054688 -0.255859375 245.659179688 -1.9111328125 241.828125 -0.9091796875 c 4
 237.99609375 0.0927734375 231.466796875 -0.3779296875 227.318359375 -1.955078125 c 4
 215.385742188 -6.4921875 141.739257812 -8.6552734375 115.598632812 -5.2373046875 c 4
190.112304688 283.328125 m 4
 190.112304688 286.329101562 191.712890625 287.795898438 193.668945312 286.5859375 c 4
 195.625976562 285.377929688 196.3203125 282.921875 195.212890625 281.129882812 c 4
 192.212890625 276.275390625 190.112304688 277.180664062 190.112304688 283.328125 c 4
EndSplineSet
EndChar

StartChar: F
Encoding: 70 70 5
Width: 380
VWidth: -145
Flags: HW
VStem: 41.0328 31.5<15.199 80.225> 170.533 35<317.445 377.788>
LayerCount: 2
Fore
SplineSet
345.189453125 454.6875 m 0
 355.140625 454.8984375 357.783203125 450.409179688 357.783203125 440.46875 c 2
 357.783203125 430.59375 l 1
 333.283203125 421.09375 l 2
 286.220703125 402.829101562 242.044921875 396.765625 205.064453125 403.46875 c 0
 192.80859375 405.690429688 170.328125 408.2109375 155.095703125 409.0625 c 2
 127.408203125 410.59375 l 1
 113.095703125 400.9375 l 2
 105.227539062 395.627929688 96.0078125 390.215820312 92.595703125 388.90625 c 0
 89.18359375 387.59765625 85.3955078125 383.724609375 84.189453125 380.3125 c 0
 80.8037109375 370.729492188 68.4462890625 358.349609375 62.314453125 358.40625 c 0
 59.28125 358.44140625 52.845703125 360.499023438 48.033203125 362.96875 c 2
 39.283203125 367.46875 l 1
 39.470703125 383.34375 l 2
 39.62109375 396.323242188 42.0322265625 402.129882812 52.501953125 414.90625 c 0
 66.130859375 431.5390625 72.1171875 435.303710938 96.845703125 442.75 c 0
 116.280273438 448.6015625 171.099609375 448.591796875 219.533203125 442.71875 c 0
 269.291992188 436.689453125 274.481445312 436.96875 313.033203125 447.90625 c 0
 328.15234375 452.1953125 338.380859375 454.543945312 345.189453125 454.6875 c 0
183.564453125 378.5625 m 0
 195.259765625 378.591796875 205.533203125 364.860351562 205.533203125 347.875 c 0
 205.533203125 340.396484375 203.958007812 333.314453125 202.033203125 332.125 c 0
 200.108398438 330.935546875 198.533203125 325.049804688 198.533203125 319.03125 c 0
 198.533203125 313.012695312 195.635742188 304.817382812 192.064453125 300.84375 c 0
 188.493164062 296.869140625 180.490234375 281.213867188 174.283203125 266.0625 c 0
 165.896484375 245.58984375 164.000976562 237.5 166.939453125 234.5625 c 0
 172.506835938 228.997070312 199.916992188 231.05859375 225.470703125 238.9375 c 2
 247.158203125 245.625 l 1
 252.908203125 239.25 l 2
 264.418945312 226.53125 258.431640625 220.698242188 224.783203125 211.8125 c 0
 207.465820312 207.239257812 183.833007812 201.959960938 172.283203125 200.09375 c 0
 160.733398438 198.227539062 148.1328125 196.1328125 144.283203125 195.4375 c 0
 139.677734375 194.60546875 132.793945312 185.44921875 124.158203125 168.65625 c 0
 116.938476562 154.6171875 111.032226562 140.997070312 111.033203125 138.40625 c 0
 111.033203125 135.815429688 108.6796875 129.515625 105.783203125 124.40625 c 0
 98.431640625 111.4375 78.9296875 57.205078125 78.314453125 48.03125 c 0
 78.0341796875 43.859375 76.6015625 39.287109375 75.158203125 37.84375 c 0
 73.71484375 36.400390625 72.533203125 31.6484375 72.533203125 27.3125 c 0
 72.533203125 15.19921875 61.24609375 -2.0771484375 53.283203125 -2.15625 c 0
 49.43359375 -2.1943359375 42.7392578125 -3.18359375 38.408203125 -4.34375 c 0
 32.619140625 -5.8955078125 30.533203125 -4.94140625 30.533203125 -0.78125 c 0
 30.533203125 2.3310546875 29.126953125 4.875 27.408203125 4.875 c 0
 18.23046875 4.875 21.677734375 33.0263671875 34.158203125 59.96875 c 0
 37.9384765625 68.12890625 41.033203125 78.7607421875 41.033203125 83.59375 c 0
 41.033203125 88.427734375 42.40625 92.375 44.064453125 92.375 c 0
 45.72265625 92.375 52.2109375 104.581054688 58.470703125 119.5 c 0
 75.4677734375 160.005859375 83.564453125 177.095703125 90.720703125 187.5 c 2
 97.158203125 196.875 l 1
 88.720703125 206 l 2
 83.0302734375 212.139648438 80.8818359375 217.65625 82.158203125 222.875 c 0
 85.197265625 235.301757812 90.15234375 239.375 102.189453125 239.375 c 0
 115.452148438 239.375 120.84375 244.731445312 133.876953125 270.875 c 0
 147.083007812 297.365234375 147.302734375 297.950195312 154.501953125 321.625 c 0
 158.014648438 333.174804688 163.067382812 347.803710938 165.720703125 354.125 c 0
 168.374023438 360.446289062 170.533203125 367.901367188 170.533203125 370.6875 c 0
 170.533203125 373.47265625 174.765625 376.802734375 179.908203125 378.09375 c 0
 181.138671875 378.40234375 182.354492188 378.559570312 183.564453125 378.5625 c 0
EndSplineSet
EndChar

StartChar: G
Encoding: 71 71 6
Width: 360
VWidth: -145
Flags: HW
HStem: 397.295 17.0781<322.741 336.738>
VStem: 26.6838 34.2998<-54.6257 -38.295> 249.984 42<141.436 248.937>
LayerCount: 2
Fore
SplineSet
66.13671875 -95.400390625 m 5
 62.33984375 -92.80078125 55.0068359375 -89.646484375 49.841796875 -88.392578125 c 4
 44.67578125 -87.138671875 39.517578125 -83.173828125 38.376953125 -79.58203125 c 4
 37.2373046875 -75.990234375 33.1943359375 -70.2373046875 29.39453125 -66.7978515625 c 4
 21.6357421875 -59.7763671875 20.3466796875 -47.6650390625 26.68359375 -41.3291015625 c 4
 32.7265625 -35.28515625 60.9833984375 -35.80078125 60.9833984375 -41.9541015625 c 4
 60.9833984375 -44.6083984375 65.595703125 -48.689453125 71.2314453125 -51.0244140625 c 4
 76.8681640625 -53.359375 82.2744140625 -57.33984375 83.2451171875 -59.869140625 c 4
 88.1865234375 -72.744140625 129.693359375 -67.8193359375 143.7109375 -52.6943359375 c 4
 152.044921875 -43.701171875 174.842773438 1.7451171875 187.178710938 33.955078125 c 4
 192.737304688 48.46875 193.887695312 55.3671875 191.19921875 58.0556640625 c 4
 188.510742188 60.7431640625 185.794921875 60.1826171875 181.708984375 56.0966796875 c 4
 170.591796875 44.98046875 102.478515625 46.966796875 76.7333984375 59.158203125 c 4
 52.8017578125 70.4912109375 46.439453125 76.8203125 34.5107421875 101.154296875 c 6
 24.2333984375 122.12109375 l 5
 23.697265625 158.87109375 l 6
 23.4033203125 179.083984375 24.7421875 200.346679688 26.67578125 206.12109375 c 4
 38.3349609375 240.958007812 58.53125 286.095703125 72.0908203125 307.62109375 c 4
 79.3662109375 319.170898438 88.537109375 334.524414062 92.4697265625 341.740234375 c 4
 100.76171875 356.954101562 150.80859375 407.2578125 164.97265625 414.614257812 c 4
 170.2734375 417.368164062 182.500976562 424.755859375 192.14453125 431.030273438 c 4
 205.15625 439.497070312 213.747070312 442.482421875 225.456054688 442.604492188 c 4
 234.1328125 442.6953125 250.626953125 442.845703125 262.109375 442.943359375 c 4
 274.401367188 443.044921875 283.515625 441.525390625 284.276367188 439.245117188 c 4
 284.986328125 437.115234375 289.130859375 435.373046875 293.487304688 435.373046875 c 4
 303.890625 435.373046875 322.275390625 426.069335938 324.782226562 419.537109375 c 4
 325.872070312 416.697265625 329.17578125 414.373046875 332.123046875 414.373046875 c 4
 339.54296875 414.373046875 338.89453125 401.374023438 331.271484375 397.294921875 c 4
 326.927734375 394.969726562 319.296875 396.041992188 305.896484375 400.857421875 c 4
 285.103515625 408.330078125 240.61328125 412.602539062 234.514648438 407.712890625 c 4
 232.434570312 406.044921875 225.287109375 403.514648438 218.629882812 402.088867188 c 4
 199.747070312 398.044921875 167.892578125 373.779296875 149.463867188 349.400390625 c 4
 145.19140625 343.748046875 138.497070312 334.936523438 134.588867188 329.821289062 c 4
 130.680664062 324.704101562 127.483398438 319.010742188 127.483398438 317.16796875 c 4
 127.483398438 315.325195312 123.939453125 309.311523438 119.608398438 303.805664062 c 4
 115.27734375 298.299804688 106.1328125 282.73046875 99.2861328125 269.208984375 c 4
 92.4404296875 255.686523438 84.119140625 240.48828125 80.794921875 235.434570312 c 4
 74.1640625 225.354492188 63.7001953125 156.591796875 66.8564453125 143.837890625 c 4
 67.90625 139.594726562 69.5380859375 131.099609375 70.482421875 124.958984375 c 4
 72.91015625 109.176757812 93.490234375 86.3955078125 109.28125 82.009765625 c 4
 134.41796875 75.0283203125 159.020507812 77.4873046875 183.53515625 89.4326171875 c 4
 196.01953125 95.515625 208.133789062 102.997070312 210.45703125 106.057617188 c 4
 220.151367188 118.830078125 233.252929688 147.467773438 234.62109375 158.873046875 c 4
 235.4609375 165.87890625 239.063476562 173.178710938 243.036132812 175.924804688 c 4
 246.857421875 178.565429688 249.983398438 184.397460938 249.983398438 188.884765625 c 4
 249.983398438 196.668945312 251.981445312 202.749023438 262.725585938 227.65234375 c 4
 265.341796875 233.717773438 267.483398438 241.135742188 267.483398438 244.13671875 c 4
 267.483398438 251.5625 293.943359375 259.55078125 301.934570312 254.537109375 c 4
 311.87109375 248.301757812 314.716796875 234.284179688 309.418945312 217.666992188 c 4
 306.78125 209.392578125 301.779296875 198.866210938 298.302734375 194.276367188 c 4
 294.827148438 189.684570312 291.983398438 183.971679688 291.983398438 181.579101562 c 4
 291.983398438 179.1875 289.62109375 175.26953125 286.733398438 172.873046875 c 4
 283.845703125 170.4765625 281.483398438 164.501953125 281.483398438 159.594726562 c 4
 281.483398438 154.688476562 279.072265625 148.009765625 276.125 144.752929688 c 4
 273.177734375 141.49609375 270.090820312 135.859375 269.264648438 132.227539062 c 4
 264.56640625 111.561523438 244.918945312 65.982421875 239.180664062 62.435546875 c 4
 237.421875 61.349609375 235.983398438 56.9033203125 235.983398438 52.556640625 c 4
 235.983398438 48.2099609375 231.334960938 35.5634765625 225.65234375 24.4541015625 c 4
 219.970703125 13.34375 213.458007812 -1.513671875 211.180664062 -8.5615234375 c 4
 205.526367188 -26.0556640625 172.600585938 -69.3583984375 160.274414062 -75.5107421875 c 4
 154.751953125 -78.2666015625 145.10546875 -84.2333984375 138.837890625 -88.7685546875 c 4
 132.5703125 -93.3037109375 125.985351562 -96.1142578125 124.204101562 -95.013671875 c 4
 122.423828125 -93.9130859375 120.185546875 -94.27734375 119.231445312 -95.822265625 c 4
 117.014648438 -99.408203125 102.369140625 -98.82421875 96.0126953125 -94.8955078125 c 4
 92.9765625 -93.01953125 90.6298828125 -93.4375 89.7734375 -96.0078125 c 4
 87.9208984375 -101.564453125 74.640625 -101.22265625 66.13671875 -95.3994140625 c 5
 66.13671875 -95.400390625 l 5
EndSplineSet
EndChar

StartChar: I
Encoding: 73 73 7
Width: 313
VWidth: -145
Flags: HW
HStem: -4.292 29.6182<113.693 197.983> 407.341 42.0615<120.022 189.78> 418.985 34.2666<228.899 290.211>
VStem: 91.8035 38.5186<48.729 135.901>
LayerCount: 2
Fore
SplineSet
23.369140625 2.6865234375 m 1xb0
 17.953125 24.265625 32.080078125 40.19921875 60.681640625 44.7734375 c 0
 71.31640625 46.4736328125 75.498046875 49.2041015625 78.724609375 56.5537109375 c 0
 81.03515625 61.81640625 84.9267578125 67.3818359375 87.373046875 68.9208984375 c 0
 89.8203125 70.4599609375 91.8134765625 75.1845703125 91.8037109375 79.4208984375 c 0
 91.8037109375 83.65625 96.2685546875 98.9345703125 101.748046875 113.372070312 c 0
 116.001953125 150.922851562 122.87109375 173.09765625 125.1328125 188.860351562 c 0
 126.21875 196.428710938 128.447265625 205.771484375 130.083984375 209.622070312 c 0
 131.719726562 213.471679688 135.69921875 227.646484375 138.92578125 241.122070312 c 0
 142.15234375 254.596679688 146.13671875 270.346679688 147.780273438 276.122070312 c 0
 149.423828125 281.896484375 154.717773438 300.796875 159.543945312 318.122070312 c 0
 164.37109375 335.446289062 172.346679688 358.66796875 177.267578125 369.724609375 c 0
 182.188476562 380.782226562 187.016601562 394.380859375 187.997070312 399.946289062 c 2
 189.780273438 410.063476562 l 1
 180.17578125 412.032226562 l 2
 173.795898438 413.338867188 167.458984375 411.765625 161.297851562 407.340820312 c 0
 143.020507812 394.215820312 123.311523438 394.311523438 116.221679688 407.557617188 c 0
 113.506835938 412.630859375 114.342773438 417.629882812 119.64453125 428.022460938 c 0
 127.65625 443.7265625 139.44921875 449.04296875 167.072265625 449.40234375 c 0xd0
 176.697265625 449.528320312 190.872070312 449.778320312 198.572265625 449.959960938 c 0
 206.272460938 450.142578125 215.72265625 450.131835938 219.572265625 449.924804688 c 0
 242.345703125 448.772460938 255.682617188 449.767578125 264.176757812 453.251953125 c 0
 271.9765625 456.451171875 275.46875 456.0859375 282.766601562 451.3046875 c 0
 288.60546875 447.477539062 291.370117188 442.86328125 290.662109375 438.12109375 c 0
 289.352539062 429.35546875 285.645507812 427.25390625 256.909179688 418.985351562 c 0
 232.583007812 411.987304688 224.822265625 403.212890625 224.822265625 382.709960938 c 0
 224.822265625 376.662109375 221.671875 367.708984375 217.822265625 362.814453125 c 0
 213.97265625 357.919921875 210.822265625 348.693359375 210.822265625 342.311523438 c 0
 210.822265625 335.928710938 208.69921875 329.447265625 206.104492188 327.908203125 c 0
 200.211914062 324.412109375 187.786132812 282.743164062 184.671875 256.040039062 c 0
 183.385742188 245.000976562 180.8671875 235.064453125 179.077148438 233.958007812 c 0
 177.287109375 232.8515625 175.822265625 227.29296875 175.822265625 221.60546875 c 0
 175.822265625 215.91796875 174.4453125 208.529296875 172.762695312 205.186523438 c 0
 166.935546875 193.612304688 154.318359375 160.579101562 153.0625 153.609375 c 0
 148.87890625 130.391601562 140.903320312 105.25 136.002929688 99.8359375 c 0
 132.87890625 96.3828125 130.322265625 90.689453125 130.322265625 87.1826171875 c 0
 130.322265625 83.6767578125 126.25 72.4833984375 121.271484375 62.3095703125 c 0
 116.294921875 52.1357421875 112.750976562 41.0673828125 113.396484375 37.7119140625 c 0
 115.022460938 29.2783203125 130.052734375 25.853515625 167.76171875 25.326171875 c 0
 190.990234375 25 200.448242188 23.5791015625 201.73828125 20.21875 c 0
 206.162109375 8.689453125 174.766601562 -7.123046875 153.072265625 -4.2919921875 c 0
 145.372070312 -3.2861328125 132.772460938 -1.8291015625 125.072265625 -1.0517578125 c 0
 117.372070312 -0.275390625 101.709960938 2.126953125 90.267578125 4.287109375 c 2
 69.462890625 8.2138671875 l 1
 63.2841796875 2.623046875 l 2
 59.88671875 -0.4521484375 50.0341796875 -3.765625 41.390625 -4.7392578125 c 2
 25.673828125 -6.51171875 l 1
 23.369140625 2.673828125 l 1
 23.369140625 2.6865234375 l 1xb0
EndSplineSet
EndChar

StartChar: J
Encoding: 74 74 8
Width: 397
VWidth: -145
Flags: HW
HStem: -6.525 21G<248.513 286.466> 11.85 20.5625<325.446 370.988> 57.898 30.8438<166.6 210.735> 389.85 52.8301<244.514 323.616 357.625 371.914>
VStem: 154.45 46.2656<306.844 358.639> 228.716 38.5<91.034 162.705>
LayerCount: 2
Fore
SplineSet
336.561523438 442.6796875 m 1xbc
 336.561523438 442.678710938 l 1
 355.836914062 442.681640625 368.131835938 437.384765625 372.107421875 426.928710938 c 0
 376.454101562 415.49609375 375.247070312 389.850585938 370.357421875 389.849609375 c 0
 366.551757812 389.849609375 347.758789062 348.4609375 347.716796875 339.974609375 c 0
 347.716796875 337.607421875 345.282226562 331.036132812 342.357421875 325.428710938 c 0
 339.43359375 319.8203125 336.557617188 311.158203125 336.013671875 306.178710938 c 0
 335.469726562 301.19921875 332.533203125 291.587890625 329.451171875 284.849609375 c 0
 322.92578125 270.58203125 312.716796875 237.306640625 312.716796875 230.272460938 c 0
 312.716796875 227.60546875 311.141601562 225.350585938 309.216796875 225.349609375 c 0
 307.291992188 225.349609375 305.716796875 222.90625 305.716796875 219.881835938 c 0
 305.716796875 216.856445312 303.354492188 212.049804688 300.466796875 209.162109375 c 0
 297.580078125 206.275390625 295.216796875 200.450195312 295.216796875 196.256835938 c 0
 295.251953125 186.709960938 286.122070312 159.014648438 275.419921875 136.319335938 c 0
 270.930664062 126.797851562 267.216796875 115.772460938 267.216796875 111.819335938 c 0
 267.216796875 107.865234375 263.819335938 99.087890625 259.669921875 92.349609375 c 0
 255.520507812 85.6123046875 250.870117188 73.80078125 249.388671875 66.099609375 c 0
 247.907226562 58.400390625 245.745117188 49.64453125 244.576171875 46.6318359375 c 0
 243.306640625 43.357421875 246.169921875 37.2626953125 251.576171875 31.4287109375 c 2
 260.544921875 21.6943359375 l 1
 287.561523438 23.1162109375 l 2
 306.103515625 24.1005859375 319.53515625 26.9609375 330.763671875 32.412109375 c 0
 351.791992188 42.6220703125 370.03515625 41.537109375 371.669921875 30.0068359375 c 0
 373.1640625 19.4677734375 366.538085938 11.8505859375 355.919921875 11.849609375 c 0x7c
 351.250976562 11.849609375 340.821289062 8.6083984375 332.732421875 4.6318359375 c 0
 322.672851562 -0.314453125 308.015625 -3.220703125 286.466796875 -4.5556640625 c 2
 254.966796875 -6.525390625 l 1
 248.513671875 0.6943359375 l 2
 243.236328125 6.5791015625 240.633789062 7.291015625 234.076171875 4.3037109375 c 0
 225.657226562 0.4677734375 218.216796875 -12.103515625 218.216796875 -22.6025390625 c 0
 218.216796875 -26.005859375 210.736328125 -39.6552734375 201.591796875 -52.900390625 c 0
 183.755859375 -78.7373046875 154.420898438 -101.787109375 128.966796875 -109.993164062 c 0
 115.255859375 -114.413085938 67.7734375 -114.494140625 67.716796875 -110.1015625 c 0
 67.716796875 -108.877929688 62.1767578125 -105.244140625 55.357421875 -102.0078125 c 0
 37.8427734375 -93.6962890625 22.216796875 -71.029296875 22.216796875 -53.8828125 c 0
 22.216796875 -24.05859375 48.92578125 7.966796875 92.216796875 30.1171875 c 0
 97.029296875 32.5791015625 113.42578125 42.861328125 128.638671875 52.9765625 c 0
 143.852539062 63.091796875 158.02734375 71.31640625 160.138671875 71.3515625 c 0
 162.250976562 71.38671875 171.841796875 75.2568359375 181.466796875 79.9921875 c 0
 191.091796875 84.7265625 201.216796875 88.6826171875 203.999023438 88.7421875 c 0
 210.813476562 88.888671875 228.716796875 106.400390625 228.716796875 112.9140625 c 0
 228.716796875 115.78125 235.661132812 138.716796875 244.138671875 163.8828125 c 0
 252.6171875 189.048828125 263.525390625 222.201171875 268.311523438 237.6015625 c 0
 276.376953125 263.55859375 294.4921875 312.287109375 302.216796875 328.6015625 c 0
 311.009765625 347.168945312 326.942382812 405.922851562 323.982421875 408.8828125 c 0
 316.916992188 415.948242188 263.020507812 401.208984375 253.216796875 389.5234375 c 0
 252.254882812 388.375976562 247.108398438 386.354492188 241.732421875 385.0390625 c 0
 236.356445312 383.72265625 230.974609375 379.928710938 229.811523438 376.6171875 c 0
 223.21875 357.861328125 214.421875 341.981445312 208.044921875 337.4609375 c 0
 204.05078125 334.629882812 200.716796875 330.376953125 200.716796875 328.0546875 c 0
 200.716796875 322.2734375 176.053710938 302.3515625 168.888671875 302.3515625 c 0
 159.59765625 302.3515625 152.62109375 316.526367188 154.451171875 331.7734375 c 0
 155.927734375 344.068359375 170.229492188 369.983398438 182.451171875 382.5234375 c 0
 194.565429688 394.952148438 246.506835938 424.8515625 255.951171875 424.8515625 c 0
 259.4453125 424.8515625 263.857421875 426.268554688 265.686523438 427.9140625 c 0
 267.514648438 429.55859375 280.46875 433.5546875 294.561523438 436.8828125 c 0
 310.91015625 440.743164062 324.995117188 442.677734375 336.561523438 442.6796875 c 1xbc
206.404296875 57.8984375 m 0
 197.478515625 57.6083984375 178.120117188 50.6123046875 165.388671875 42.0390625 c 0
 155.063476562 35.0859375 145.4453125 29.3515625 144.061523438 29.3515625 c 0
 139.444335938 29.3515625 115.619140625 11.87109375 110.701171875 4.8515625 c 0
 108.033203125 1.0419921875 103.920898438 -2.1455078125 101.624023438 -2.1484375 c 0
 96.0283203125 -2.1484375 81.4775390625 -15.349609375 71.982421875 -28.9453125 c 0
 58.5634765625 -48.16015625 62.875 -75.78515625 81.0615234375 -86.8046875 c 0
 86.240234375 -89.943359375 90.466796875 -92.560546875 90.466796875 -92.7109375 c 0
 90.466796875 -92.8623046875 100.19140625 -89.9990234375 112.124023438 -86.2578125 c 0
 148.325195312 -74.908203125 160.158203125 -63.7734375 181.794921875 -20.6328125 c 0
 197.861328125 11.3984375 211.216796875 46.07421875 211.216796875 55.7109375 c 0
 211.216796875 57.298828125 209.379882812 57.99609375 206.404296875 57.8984375 c 0
EndSplineSet
EndChar

StartChar: M
Encoding: 77 77 9
Width: 413
VWidth: -145
Flags: HW
VStem: 112.448 24.501<286.397 328.633> 226.003 22.9443<286.621 304.665 351.328 385.493> 269.976 46.0205<29.083 177.55> 308.448 35<177.55 268.488> 348.678 39.0752<291.292 396.519>
LayerCount: 2
Fore
SplineSet
28.447265625 -5.62890625 m 4xd8
 19.07421875 3.7451171875 19.4482421875 18.376953125 30.3701171875 69.62109375 c 4
 47.6943359375 150.899414062 65.0302734375 206.202148438 90.0439453125 259.981445312 c 4
 94.869140625 270.35546875 99.7109375 283.313476562 100.803710938 288.778320312 c 4
 101.896484375 294.243164062 104.963867188 300.517578125 107.619140625 302.721679688 c 4
 110.274414062 304.92578125 112.447265625 308.6796875 112.447265625 311.065429688 c 4
 112.447265625 313.450195312 118.66015625 326.704101562 126.252929688 340.518554688 c 4
 133.846679688 354.33203125 141.1171875 369.119140625 142.409179688 373.377929688 c 4
 145.016601562 381.966796875 156.124023438 397.615234375 170.95703125 413.59765625 c 4
 176.314453125 419.369140625 182.66015625 426.556640625 185.059570312 429.5703125 c 4
 187.458984375 432.583984375 194.953125 436.086914062 201.711914062 437.35546875 c 4
 211.765625 439.241210938 216.2265625 437.963867188 226.227539062 430.334960938 c 4
 241.83984375 418.426757812 248.90625 404.631835938 249.10546875 385.669921875 c 4
 249.192382812 377.393554688 251.16015625 366.24609375 253.48046875 360.8984375 c 6
 257.697265625 351.17578125 l 5
 265.51171875 356.678710938 l 6
 269.80859375 359.706054688 278.3515625 369.487304688 284.493164062 378.416015625 c 4
 290.63671875 387.34375 305.073242188 404.598632812 316.575195312 416.759765625 c 4
 338.391601562 439.827148438 346.365234375 442.912109375 365.432617188 435.662109375 c 4
 377.56640625 431.048828125 386.857421875 409.4453125 387.752929688 383.76171875 c 4
 388.171875 371.73828125 389.536132812 360.25 390.783203125 358.232421875 c 4
 392.030273438 356.21484375 390.551757812 350.750976562 387.499023438 346.090820312 c 4
 384.4453125 341.430664062 381.947265625 332.049804688 381.947265625 325.244140625 c 4
 381.947265625 317.538085938 379.307617188 310.231445312 374.947265625 305.87109375 c 4
 370.737304688 301.661132812 367.947265625 294.205078125 367.947265625 287.1640625 c 4
 367.947265625 279.901367188 365.290039062 273.05078125 360.947265625 269.12109375 c 4
 356.892578125 265.452148438 353.900390625 258.228515625 353.8359375 251.954101562 c 4
 353.776367188 245.99609375 351.412109375 238.064453125 348.5859375 234.327148438 c 4
 345.759765625 230.590820312 343.447265625 222.06640625 343.447265625 215.383789062 c 4xd8
 343.447265625 208.002929688 339.463867188 196.932617188 333.297851562 187.177734375 c 4
 325.579101562 174.96484375 321.466796875 161.336914062 316.118164062 130.247070312 c 4
 308.991210938 88.8125 308.955078125 59.09765625 315.99609375 31.12109375 c 4
 324.01171875 -0.728515625 323.969726562 -1.1611328125 312.2734375 -7.2099609375 c 4
 297.756835938 -14.716796875 289.9140625 -10.2626953125 278.70703125 11.8525390625 c 6
 269.975585938 29.0830078125 l 5xe8
 269.610351562 65.1025390625 l 6
 269.220703125 103.448242188 274.38671875 127.458984375 297.684570312 195.598632812 c 4
 303.604492188 212.91015625 308.447265625 228.837890625 308.447265625 230.991210938 c 4
 308.447265625 233.145507812 313.260742188 246.543945312 319.142578125 260.764648438 c 4
 325.025390625 274.986328125 331.537109375 294.481445312 333.61328125 304.087890625 c 4
 335.689453125 313.694335938 339.436523438 324.71875 341.939453125 328.587890625 c 4
 344.442382812 332.456054688 347.474609375 348.344726562 348.677734375 363.895507812 c 4
 350.471679688 387.09375 349.884765625 392.98046875 345.41015625 396.694335938 c 6
 339.95703125 401.220703125 l 5
 316.327148438 376.15625 l 6
 276.03125 333.4140625 269.430664062 324.471679688 254.447265625 292.319335938 c 4
 251.422851562 285.827148438 248.947265625 276.077148438 248.947265625 270.650390625 c 4
 248.947265625 265.224609375 247.373046875 259.810546875 245.447265625 258.62109375 c 4
 243.522460938 257.431640625 241.947265625 252.547851562 241.947265625 247.767578125 c 4
 241.947265625 242.987304688 236.829101562 229.009765625 230.572265625 216.70703125 c 4
 218.280273438 192.532226562 206.551757812 183.4375 197.431640625 191.006835938 c 4
 188.491210938 198.427734375 193.668945312 224.301757812 210.641601562 257.013671875 c 6
 226.002929688 286.62109375 l 5
 226.100585938 325.12109375 l 6
 226.209960938 368.337890625 222.494140625 381.325195312 206.668945312 393.024414062 c 6
 196.327148438 400.670898438 l 5
 185.620117188 389.146484375 l 6
 179.731445312 382.807617188 170.116210938 368.229492188 164.25390625 356.750976562 c 4
 158.391601562 345.271484375 149.849609375 329.947265625 145.271484375 322.6953125 c 4
 140.693359375 315.444335938 136.948242188 305.856445312 136.948242188 301.390625 c 4
 136.948242188 296.924804688 135.459960938 291.775390625 133.640625 289.946289062 c 4
 127.470703125 283.744140625 110.28125 248.198242188 105.797851562 232.37109375 c 4
 103.34375 223.708984375 99.35546875 211.896484375 96.9365234375 206.12109375 c 4
 86.9267578125 182.229492188 83.359375 170.311523438 81.78515625 155.494140625 c 4
 80.87109375 146.899414062 77.8203125 136.3515625 75.0048828125 132.0546875 c 4
 72.0517578125 127.546875 70.318359375 118.259765625 70.9072265625 110.096679688 c 4
 71.46875 102.317382812 70.0205078125 94.0439453125 67.6884765625 91.7119140625 c 4
 65.3564453125 89.3798828125 63.4462890625 80.3046875 63.443359375 71.5458984375 c 4
 63.443359375 43.962890625 53.7392578125 -2.51171875 46.912109375 -7.69140625 c 4
 38.5712890625 -14.01953125 36.62109375 -13.8017578125 28.447265625 -5.62890625 c 4xd8
EndSplineSet
EndChar

StartChar: N
Encoding: 78 78 10
Width: 392
VWidth: -145
Flags: HW
VStem: 26.5522 31.7588<-8.142 4.833> 109.966 31.5<229.233 294.795> 174.87 39.2041<108.809 292.624 369.016 427.006>
LayerCount: 2
Fore
SplineSet
26.5517578125 -8.083984375 m 4
 21.3076171875 -1.765625 20.2685546875 20.751953125 24.958984375 26.4267578125 c 4
 27.0927734375 29.0087890625 29.9912109375 37.421875 31.3994140625 45.12109375 c 4
 32.8076171875 52.8212890625 37.6728515625 67.5859375 42.212890625 77.931640625 c 4
 46.751953125 88.27734375 50.4658203125 98.69921875 50.4658203125 101.08984375 c 4
 50.4658203125 103.481445312 53.7978515625 113.916992188 57.87109375 124.279296875 c 4
 61.9443359375 134.642578125 69.1875 153.359375 73.96875 165.87109375 c 4
 82.4716796875 188.12890625 92.94140625 213.84765625 104.295898438 240.365234375 c 4
 107.4140625 247.649414062 109.965820312 257.493164062 109.965820312 262.240234375 c 4
 109.965820312 266.987304688 111.340820312 270.87109375 113.022460938 270.87109375 c 4
 115.845703125 270.87109375 134.05078125 313.666992188 139.823242188 333.87109375 c 4
 141.197265625 338.68359375 143.57421875 344.200195312 145.103515625 346.129882812 c 4
 146.633789062 348.059570312 151.21875 358.297851562 155.29296875 368.879882812 c 4
 162.827148438 388.452148438 170.4140625 405.625976562 178.481445312 421.37109375 c 4
 183.788085938 431.729492188 199.354492188 434.639648438 209.547851562 427.180664062 c 4
 214.55859375 423.513671875 216.967773438 416.239257812 218.58203125 399.901367188 c 4
 219.802734375 387.547851562 219.35546875 376.66796875 217.577148438 375.48046875 c 4
 215.645507812 374.19140625 215.732421875 368.405273438 217.793945312 360.932617188 c 4
 220.127929688 352.478515625 220.0390625 347.345703125 217.513671875 344.819335938 c 4
 215.114257812 342.420898438 213.901367188 314.216796875 214.07421875 264.8671875 c 4
 214.420898438 166.174804688 217.946289062 105.590820312 223.236328125 107.450195312 c 4
 225.424804688 108.21875 226.71875 111.5859375 226.11328125 114.932617188 c 4
 225.506835938 118.278320312 227.580078125 122.895507812 230.719726562 125.192382812 c 4
 233.860351562 127.48828125 237.33203125 136.399414062 238.435546875 144.994140625 c 4
 239.538085938 153.588867188 243.328125 166.380859375 246.858398438 173.420898438 c 4
 255.991210938 191.63671875 263.854492188 215.264648438 263.9140625 224.669921875 c 4
 263.94921875 229.096679688 266.252929688 237.141601562 269.047851562 242.547851562 c 4
 273.645507812 251.438476562 277.923828125 263.631835938 293.720703125 312.87109375 c 4
 296.5 321.534179688 303.581054688 346.734375 309.456054688 368.87109375 c 4
 323.405273438 421.434570312 325.365234375 425.916992188 337.547851562 433.11328125 c 4
 349.856445312 440.383789062 359.204101562 436.864257812 366.848632812 422.080078125 c 4
 371.883789062 412.34375 370.69921875 393.37109375 365.057617188 393.37109375 c 4
 363.356445312 393.37109375 361.965820312 391.359375 361.965820312 388.899414062 c 4
 361.965820312 386.440429688 357.552734375 375.809570312 352.158203125 365.274414062 c 4
 346.764648438 354.740234375 337.081054688 329.9765625 330.638671875 310.243164062 c 4
 324.197265625 290.510742188 316.797851562 272.599609375 314.1953125 270.440429688 c 4
 311.59375 268.28125 309.465820312 263.40625 309.465820312 259.607421875 c 4
 309.465820312 255.809570312 307.204101562 248.520507812 304.439453125 243.411132812 c 4
 301.67578125 238.301757812 296.741210938 225.083984375 293.473632812 214.038085938 c 4
 290.20703125 202.9921875 285.380859375 192.16796875 282.75 189.984375 c 4
 280.118164062 187.80078125 277.95703125 181.875976562 277.946289062 176.818359375 c 4
 277.946289062 171.759765625 276.068359375 161.321289062 273.796875 153.62109375 c 4
 271.525390625 145.920898438 269.475585938 138.833984375 269.240234375 137.87109375 c 4
 269.005859375 136.909179688 265.204101562 128.24609375 260.791015625 118.62109375 c 4
 256.377929688 108.99609375 251.381835938 97.9716796875 249.6875 94.12109375 c 4
 246.05859375 85.8740234375 242.850585938 71.4619140625 240.380859375 52.3134765625 c 4
 239.401367188 44.7197265625 236.432617188 36.337890625 233.783203125 33.6884765625 c 4
 231.133789062 31.0390625 228.965820312 25.6259765625 228.965820312 21.6591796875 c 4
 228.965820312 17.693359375 225.686523438 9.1435546875 221.6796875 2.6591796875 c 4
 216.323242188 -6.0087890625 211.896484375 -9.12890625 204.958007812 -9.12890625 c 4
 188.159179688 -9.12890625 184.07421875 0.421875 179.924804688 49.390625 c 4
 177.840820312 73.9921875 175.56640625 140.583984375 174.870117188 197.37109375 c 4
 173.109375 341.014648438 173.7890625 328.412109375 168.05859375 323.65625 c 4
 165.360351562 321.416992188 162.114257812 315.317382812 160.845703125 310.102539062 c 4
 159.577148438 304.887695312 154.698242188 294.749023438 150.001953125 287.571289062 c 4
 145.306640625 280.393554688 141.465820312 271.599609375 141.465820312 268.029296875 c 4
 141.465820312 264.458984375 140.452148438 260.524414062 139.212890625 259.28515625 c 4
 134.75 254.822265625 120.498046875 216.448242188 120.481445312 208.852539062 c 4
 120.481445312 204.580078125 117.264648438 195.385742188 113.353515625 188.421875 c 4
 109.44140625 181.458007812 104.09375 166.840820312 101.46875 155.940429688 c 4
 98.84375 145.040039062 92.703125 123.521484375 87.822265625 108.12109375 c 4
 78.478515625 78.638671875 68.6259765625 44.0703125 65.3779296875 29.37109375 c 4
 64.314453125 24.55859375 61.361328125 19.3896484375 58.8154296875 17.8837890625 c 4
 55.8017578125 16.1025390625 54.9052734375 11.544921875 56.248046875 4.8330078125 c 6
 58.310546875 -5.48046875 l 5
 48.91015625 -9.0546875 l 6
 36.4462890625 -13.79296875 31.0966796875 -13.5615234375 26.5517578125 -8.083984375 c 4
EndSplineSet
EndChar

StartChar: O
Encoding: 79 79 11
Width: 369
VWidth: -145
Flags: HW
HStem: 428.372 19.5762<231.244 273.369>
VStem: 23.0898 43.584<63.511 227.326>
LayerCount: 2
Fore
SplineSet
119.859375 -5.349609375 m 4
 106.192382812 -3.8115234375 92.228515625 0.0595703125 87.1123046875 3.7275390625 c 4
 82.2060546875 7.244140625 72.4541015625 13.3740234375 65.4404296875 17.34765625 c 4
 41.4716796875 30.9296875 22.8466796875 76.921875 23.08984375 121.926757812 c 4
 23.173828125 137.43359375 24.6494140625 156.421875 26.3701171875 164.122070312 c 4
 37.0380859375 211.875976562 48.2333984375 251.7109375 54.36328125 263.7265625 c 4
 58.25390625 271.352539062 61.4375 279.361328125 61.4375 281.522460938 c 4
 61.4375 287.009765625 86.4501953125 336.55859375 96.705078125 351.384765625 c 4
 126.634765625 394.657226562 142.009765625 410.465820312 168.1875 424.881835938 c 4
 179.737304688 431.2421875 194.08984375 439.206054688 200.081054688 442.579101562 c 4
 206.073242188 445.952148438 221.42578125 449.831054688 234.19921875 451.19921875 c 4
 252.850585938 453.196289062 259.1484375 452.555664062 266.180664062 447.948242188 c 4
 280.296875 438.698242188 275.880859375 428.372070312 257.80859375 428.372070312 c 4
 254.477539062 428.372070312 245.232421875 425.221679688 237.263671875 421.372070312 c 4
 229.294921875 417.521484375 220.530273438 414.372070312 217.78515625 414.372070312 c 4
 215.040039062 414.372070312 211.036132812 412.252929688 208.885742188 409.662109375 c 4
 206.736328125 407.072265625 198.668945312 402.108398438 190.958007812 398.630859375 c 4
 183.24609375 395.153320312 176.887695312 390.579101562 176.826171875 388.46484375 c 4
 176.766601562 386.3515625 171.143554688 379.109375 164.334960938 372.372070312 c 4
 150.629882812 358.811523438 117.4375 306.129882812 117.4375 297.939453125 c 4
 117.4375 295.073242188 115.158203125 290.836914062 112.37109375 288.524414062 c 4
 109.5859375 286.211914062 104.939453125 277.750976562 102.046875 269.720703125 c 4
 90.4990234375 237.6640625 74.677734375 184.520507812 73.68359375 174.453125 c 4
 73.1044921875 168.584960938 70.7470703125 151.360351562 68.4462890625 136.177734375 c 4
 66.0166015625 120.151367188 65.2734375 99.1201171875 66.673828125 86.041015625 c 6
 69.0869140625 63.5107421875 l 5
 83.4560546875 47.9228515625 l 6
 91.3583984375 39.3486328125 102.204101562 30.0693359375 107.556640625 27.30078125 c 4
 116.846679688 22.498046875 157.796875 19.716796875 170.892578125 23 c 4
 178.645507812 24.9443359375 211.9375 50.09765625 211.9375 54.0126953125 c 4
 211.9375 55.6005859375 214.916992188 57.845703125 218.559570312 59.001953125 c 4
 222.201171875 60.158203125 226.208007812 63.8076171875 227.461914062 67.1123046875 c 4
 232.653320312 80.79296875 238.477539062 89.0478515625 244.223632812 90.87109375 c 4
 247.903320312 92.0390625 250.069335938 95.8681640625 249.684570312 100.522460938 c 4
 249.333007812 104.766601562 255.700195312 120.293945312 263.833984375 135.028320312 c 4
 271.967773438 149.762695312 278.186523438 163.206054688 277.655273438 164.90234375 c 4
 277.123046875 166.598632812 280.071289062 175.780273438 284.208007812 185.3046875 c 4
 292.674804688 204.801757812 296.51953125 218.5859375 304.443359375 257.845703125 c 4
 311.028320312 290.4765625 311.6328125 350.759765625 305.451171875 358.372070312 c 4
 301.33984375 363.434570312 294.234375 367.28515625 274.314453125 375.24609375 c 6
 264.94140625 378.9921875 l 5
 267.544921875 388.806640625 l 6
 271.206054688 402.607421875 285.482421875 403.309570312 309.828125 390.887695312 c 4
 325.475585938 382.904296875 330.506835938 377.985351562 337.396484375 363.938476562 c 6
 345.823242188 346.754882812 l 5
 345.911132812 304.438476562 l 6
 345.959960938 281.1640625 344.880859375 255.034179688 343.515625 246.372070312 c 4
 337.655273438 209.198242188 333.349609375 191.3671875 327.458984375 179.872070312 c 4
 324.006835938 173.133789062 316.188476562 155.5234375 310.083984375 140.737304688 c 4
 303.979492188 125.951171875 296.6953125 111.953125 293.896484375 109.629882812 c 4
 291.098632812 107.307617188 286.141601562 99.7177734375 282.880859375 92.7646484375 c 4
 279.62109375 85.810546875 274.706054688 77.8212890625 271.958984375 75.0107421875 c 4
 269.212890625 72.19921875 264.836914062 64.8046875 262.235351562 58.578125 c 4
 257.182617188 46.4853515625 239.967773438 27.1796875 235.486328125 28.5791015625 c 4
 234 29.04296875 231.2421875 25.3681640625 229.358398438 20.412109375 c 4
 226.799804688 13.6826171875 224.236328125 11.9404296875 219.229492188 13.529296875 c 4
 215.54296875 14.69921875 211.513671875 14.017578125 210.275390625 12.0146484375 c 4
 209.038085938 10.0107421875 205.948242188 8.3720703125 203.409179688 8.3720703125 c 4
 200.870117188 8.3720703125 192.694335938 5.6865234375 185.240234375 2.404296875 c 4
 177.787109375 -0.8779296875 169.149414062 -3.802734375 166.047851562 -4.0947265625 c 4
 162.9453125 -4.3857421875 156.645507812 -5.392578125 152.047851562 -6.328125 c 4
 147.450195312 -7.2646484375 132.965820312 -6.82421875 119.859375 -5.349609375 c 4
EndSplineSet
EndChar

StartChar: P
Encoding: 80 80 12
Width: 372
VWidth: -145
Flags: HW
HStem: 162.375 16.5938<182.69 235.018> 409.844 28.9375<145.938 252.766>
VStem: 24.8755 28<-12.569 15.433>
LayerCount: 2
Fore
SplineSet
210.938476562 438.78125 m 4
 232.344726562 439.18359375 263.151367188 432.069335938 278.907226562 422.4375 c 4
 301.337890625 408.725585938 331.696289062 378.89453125 334.469726562 367.84375 c 4
 335.713867188 362.88671875 339.020507812 356.541992188 341.813476562 353.75 c 4
 344.60546875 350.95703125 346.923828125 344.4375 346.969726562 339.28125 c 4
 347.015625 334.125 347.758789062 318.560546875 348.625976562 304.6875 c 4
 349.573242188 289.528320312 348.776367188 278.580078125 346.625976562 277.25 c 4
 344.259765625 275.787109375 344.4921875 273.330078125 347.282226562 269.96875 c 4
 350.479492188 266.116210938 350.505859375 263.880859375 347.438476562 260.8125 c 4
 345.209960938 258.583984375 343.407226562 254.0546875 343.407226562 250.75 c 4
 343.407226562 247.4453125 341.577148438 244.140625 339.375976562 243.40625 c 4
 337.173828125 242.672851562 334.883789062 237.459960938 334.282226562 231.8125 c 4
 333.193359375 221.596679688 323.8515625 211.344726562 318.594726562 214.59375 c 4
 317.079101562 215.530273438 311.618164062 210.727539062 306.438476562 203.9375 c 4
 296.998046875 191.560546875 267.987304688 175.447265625 240.157226562 167.125 c 4
 224.112304688 162.327148438 193.252929688 159.588867188 186.782226562 162.375 c 5
 186.750976562 162.375 l 5
 181.92578125 164.452148438 180.797851562 176.274414062 185.157226562 178.96875 c 4
 186.673828125 179.905273438 198.073242188 181.697265625 210.500976562 182.96875 c 4
 238.911132812 185.875976562 251.314453125 191.059570312 269.719726562 207.6875 c 4
 290.188476562 226.1796875 303.28515625 254.276367188 306.125976562 285.8125 c 4
 307.817382812 304.59375 300.12890625 341.490234375 290.532226562 360.59375 c 4
 283.05078125 375.487304688 268.03515625 390.796875 260.688476562 391.03125 c 4
 258.518554688 391.1015625 254.772460938 393.518554688 252.375976562 396.40625 c 4
 249.979492188 399.293945312 244.205078125 401.65625 239.532226562 401.65625 c 4
 234.859375 401.65625 226.592773438 403.970703125 221.157226562 406.78125 c 4
 215.721679688 409.591796875 210.372070312 410.96484375 209.250976562 409.84375 c 4
 208.129882812 408.72265625 195.69921875 407.48046875 181.657226562 407.0625 c 4
 165.6875 406.586914062 152.193359375 404.10546875 145.625976562 400.46875 c 4
 139.850585938 397.271484375 124.204101562 383.630859375 110.844726562 370.15625 c 4
 97.4853515625 356.681640625 85.3916015625 345.65625 83.9697265625 345.65625 c 4
 79.34765625 345.65625 70.3759765625 356.526367188 70.3759765625 362.125 c 4
 70.3759765625 365.125976562 81.5712890625 378.5625 95.2509765625 392 c 4
 121.705078125 417.986328125 157.4375 437.8359375 174.938476562 436.28125 c 4
 180.006835938 435.831054688 192.352539062 436.66015625 202.407226562 438.125 c 4
 205.010742188 438.50390625 207.880859375 438.723632812 210.938476562 438.78125 c 4
166.875976562 344.71875 m 4
 169.452148438 344.725585938 172.1015625 343.924804688 174.938476562 342.40625 c 4
 184.310546875 337.389648438 184.997070312 318.668945312 176.250976562 306.75 c 4
 172.8828125 302.159179688 167.208007812 292.106445312 163.625976562 284.40625 c 4
 160.043945312 276.706054688 155.559570312 267.4296875 153.657226562 263.78125 c 4
 151.754882812 260.133789062 147.387695312 249.108398438 143.938476562 239.28125 c 4
 140.490234375 229.454101562 131.1796875 203.131835938 123.282226562 180.78125 c 4
 115.384765625 158.430664062 108.400390625 135.278320312 107.750976562 129.34375 c 4
 107.1015625 123.409179688 104.955078125 116.514648438 102.969726562 114 c 4
 98.0693359375 107.79296875 93.73828125 90.7021484375 90.2509765625 63.84375 c 4
 89.6201171875 58.9912109375 85.5576171875 50.2109375 81.2197265625 44.34375 c 4
 76.8818359375 38.4765625 74.0478515625 31.7890625 74.9384765625 29.46875 c 4
 75.8291015625 27.1484375 71.2294921875 19.8486328125 64.7197265625 13.25 c 4
 58.2099609375 6.6513671875 52.8759765625 -1.388671875 52.8759765625 -4.625 c 4
 52.8759765625 -7.8623046875 49.33203125 -11.46484375 45.0009765625 -12.625 c 4
 33.0478515625 -15.828125 29.6484375 -15.3134765625 24.8759765625 -9.5625 c 4
 21.369140625 -5.3369140625 21.4169921875 -0.990234375 25.0947265625 12.3125 c 4
 27.619140625 21.443359375 33.2255859375 37.01953125 37.5634765625 46.90625 c 4
 41.9013671875 56.79296875 49.5556640625 77.08203125 54.5634765625 92 c 4
 59.5712890625 106.91796875 65.9697265625 122.389648438 68.7822265625 126.40625 c 4
 71.595703125 130.422851562 73.8759765625 136.69921875 73.8759765625 140.34375 c 4
 73.8759765625 146.748046875 80.62890625 169.8203125 89.9072265625 195.15625 c 4
 113.12890625 258.568359375 122.588867188 281.711914062 136.157226562 308.34375 c 4
 149.353515625 334.24609375 157.67578125 344.696289062 166.875976562 344.71875 c 4
EndSplineSet
EndChar

StartChar: Q
Encoding: 81 81 13
Width: 371
VWidth: -145
Flags: HW
HStem: 69.156 20.2812<102.964 129.62> 373.656 42<148.96 181.931> 422.219 18.75<216.844 245.763>
VStem: 23.3699 44.0625<35.791 238.832> 84.6199 28.2188<298.636 321.657> 310.714 37.0625<211.269 365.258>
LayerCount: 2
Fore
SplineSet
245.682617188 447.375 m 4
 247.389648438 447.387695312 249.12109375 447.383789062 250.870117188 447.375 c 4
 264.08984375 447.3046875 272.483398438 437.51953125 265.401367188 430.4375 c 4
 262.762695312 427.798828125 253.694335938 424.095703125 245.245117188 422.21875 c 4
 227.021484375 418.168945312 203.620117188 408.376953125 203.620117188 404.78125 c 4
 203.620117188 403.379882812 199.2421875 401.2421875 193.870117188 400.0625 c 4
 187.516601562 398.666992188 181.807617188 393.705078125 177.557617188 385.8125 c 4
 173.963867188 379.139648438 169.193359375 373.65625 166.932617188 373.65625 c 4
 164.672851562 373.65625 157.716796875 366.174804688 151.495117188 357.03125 c 4
 145.274414062 347.887695312 134.0625 331.744140625 126.588867188 321.15625 c 4
 119.115234375 310.568359375 112.942382812 298.564453125 112.838867188 294.46875 c 4
 112.733398438 290.373046875 110.2578125 285.052734375 107.370117188 282.65625 c 4
 104.482421875 280.259765625 102.120117188 276.786132812 102.120117188 274.90625 c 4
 102.120117188 273.026367188 99.6103515625 265.715820312 96.5263671875 258.6875 c 4
 85.8828125 234.428710938 80.8134765625 218.37890625 75.9013671875 193.40625 c 4
 74.765625 187.630859375 72.2353515625 175.818359375 70.2763671875 167.15625 c 4
 66.6201171875 150.984375 64.6259765625 83.421875 67.4326171875 70.90625 c 4
 70.072265625 59.138671875 87.1962890625 35.23828125 99.9638671875 25.5 c 4
 109.99609375 17.84765625 115.524414062 16.3427734375 132.463867188 16.59375 c 4
 163.981445312 17.060546875 170.596679688 18.037109375 176.838867188 23.21875 c 4
 180.021484375 25.861328125 182.583984375 30.5859375 182.526367188 33.71875 c 4
 182.393554688 41.0283203125 136.377929688 69.15625 124.557617188 69.15625 c 4
 112.060546875 69.15625 102.120117188 75.2705078125 102.120117188 82.9375 c 6
 102.120117188 89.4375 l 5
 129.620117188 91.875 l 5
 157.120117188 94.3125 l 5
 174.870117188 85.3125 l 6
 184.643554688 80.3603515625 194.736328125 73.498046875 197.276367188 70.09375 c 4
 199.81640625 66.689453125 204.530273438 61.8525390625 207.776367188 59.3125 c 4
 215.923828125 52.9365234375 225.942382812 58.7958984375 231.807617188 73.40625 c 4
 234.348632812 79.736328125 240.086914062 89.4150390625 244.588867188 94.90625 c 4
 249.090820312 100.397460938 255.741210938 111.422851562 259.370117188 119.40625 c 4
 279.138671875 162.905273438 284.642578125 176.576171875 284.870117188 182.90625 c 4
 285.006835938 186.755859375 289.5078125 203.293945312 294.870117188 219.65625 c 4
 306.431640625 254.936523438 314.124023438 309.696289062 310.713867188 332.4375 c 4
 307.725585938 352.36328125 297.811523438 365.645507812 283.057617188 369.46875 c 4
 269.784179688 372.908203125 261.552734375 389.276367188 270.276367188 394.875 c 4
 281.295898438 401.946289062 318.227539062 386.672851562 326.213867188 371.75 c 4
 328.576171875 367.336914062 332.372070312 364.418945312 334.620117188 365.28125 c 4
 341.170898438 367.794921875 348.223632812 326.663085938 347.776367188 288.59375 c 4
 347.32421875 250.081054688 341.30859375 222.20703125 323.495117188 175.90625 c 4
 316.829101562 158.581054688 308.78125 137.0703125 305.620117188 128.09375 c 4
 302.458984375 119.1171875 295.5390625 108.375976562 290.245117188 104.21875 c 4
 284.951171875 100.061523438 280.620117188 93.705078125 280.620117188 90.09375 c 4
 280.620117188 86.482421875 276.682617188 79.2861328125 271.870117188 74.09375 c 4
 267.057617188 68.9013671875 263.120117188 63.0009765625 263.120117188 61 c 4
 263.120117188 58.9990234375 259.776367188 53.794921875 255.682617188 49.4375 c 4
 247.205078125 40.4130859375 248.918945312 26.7158203125 257.620117188 33.9375 c 4
 260.6171875 36.42578125 263.3203125 36.708984375 264.588867188 34.65625 c 4
 267.1796875 30.46484375 296.98046875 30.56640625 308.432617188 34.8125 c 4
 313.126953125 36.5537109375 319.016601562 40.9169921875 321.526367188 44.5 c 4
 326.432617188 51.5048828125 337.145507812 50.7138671875 343.651367188 42.875 c 4
 351.134765625 33.8583984375 333.397460938 20.84765625 296.370117188 8.15625 c 4
 258.89453125 -4.6884765625 245.778320312 -4.9111328125 222.088867188 6.90625 c 4
 216.100585938 9.8935546875 209.91015625 11.1923828125 208.307617188 9.78125 c 4
 206.705078125 8.3701171875 194.727539062 3.037109375 181.713867188 -2.0625 c 4
 157.87109375 -11.404296875 146.434570312 -12.41015625 114.370117188 -7.90625 c 4
 87.6005859375 -4.146484375 73.1953125 3.986328125 52.3701171875 27 c 4
 27.3994140625 54.59375 22.1279296875 73.1708984375 23.3701171875 129.1875 c 4
 23.8671875 151.609375 25.509765625 171.91015625 26.9951171875 174.3125 c 4
 28.48046875 176.71484375 31.724609375 188.3125 34.2138671875 200.0625 c 4
 41.802734375 235.879882812 58.6787109375 280.7890625 71.9951171875 300.5625 c 4
 78.94140625 310.876953125 84.6201171875 321.279296875 84.6201171875 323.65625 c 4
 84.6201171875 326.033203125 91.638671875 339.797851562 100.182617188 354.25 c 4
 114.825195312 379.017578125 147.40234375 415.65625 154.776367188 415.65625 c 4
 159.208007812 415.65625 172.120117188 428.688476562 172.120117188 433.15625 c 4
 172.120117188 435.081054688 176.54296875 436.65625 181.932617188 436.65625 c 4
 187.322265625 436.65625 193.66796875 438.610351562 196.026367188 440.96875 c 4
 199.657226562 444.599609375 220.079101562 447.1875 245.682617188 447.375 c 4
EndSplineSet
EndChar

StartChar: R
Encoding: 82 82 14
Width: 397
VWidth: -145
Flags: HW
HStem: 409.562 31.7812<179.259 298.294>
VStem: 22.8437 49.9688<-11.19 44.349> 97.3125 28<126.298 179.088>
LayerCount: 2
Fore
SplineSet
246.28125 441.34375 m 4
 264.217773438 441.602539062 280.029296875 440.08203125 288.0625 436.71875 c 4
 314.545898438 425.631835938 327.850585938 417.966796875 336.5 408.75 c 4
 341.956054688 402.93359375 347.840820312 398.15625 349.5625 398.15625 c 4
 354.837890625 398.15625 367.717773438 369.598632812 372.34375 347.65625 c 4
 378.963867188 316.254882812 370.205078125 270.654296875 353.78125 251.03125 c 4
 335.42578125 229.100585938 307.92578125 205.65625 300.53125 205.65625 c 4
 298.309570312 205.65625 289.96875 202.505859375 282 198.65625 c 4
 274.032226562 194.806640625 265.633789062 191.65625 263.34375 191.65625 c 4
 261.053710938 191.65625 257.235351562 189.3203125 254.84375 186.4375 c 4
 251.283203125 182.146484375 252.065429688 179.129882812 259.125 169.8125 c 4
 270.985351562 154.16015625 282.8125 115.399414062 282.8125 92.28125 c 4
 282.8125 81.728515625 284.3203125 72.166015625 286.15625 71.03125 c 4
 287.9921875 69.896484375 290.578125 59.583984375 291.875 48.125 c 4
 293.170898438 36.666015625 296.330078125 25.5439453125 298.90625 23.40625 c 4
 306.458007812 17.138671875 330.78515625 22.9697265625 338.625 32.9375 c 4
 344.129882812 39.9365234375 347.994140625 41.38671875 358.75 40.5 c 6
 372.0625 39.40625 l 5
 372.0625 30.6875 l 6
 372.0625 23.8798828125 367.96484375 19.537109375 353.3125 10.78125 c 4
 342.995117188 4.6162109375 328.033203125 -1.91796875 320.0625 -3.71875 c 4
 312.090820312 -5.51953125 303.19921875 -7.6845703125 300.3125 -8.5625 c 4
 297.424804688 -9.4404296875 290.1171875 -9.5615234375 284.0625 -8.8125 c 4
 278.008789062 -8.0625 270.19140625 -4.27734375 266.6875 -0.40625 c 4
 260.556640625 6.3681640625 239.76171875 82.12109375 242.71875 86.90625 c 4
 245.774414062 91.8505859375 233.4140625 144.217773438 226.125 157.1875 c 4
 221.912109375 164.684570312 211.012695312 175.58203125 201.9375 181.40625 c 4
 170.982421875 201.26953125 177.720703125 210.772460938 223 211.1875 c 6
 253.0625 211.46875 l 5
 274.3125 222.28125 l 6
 295.751953125 233.211914062 317.947265625 255.802734375 324.6875 273.53125 c 4
 329.4140625 285.96484375 332.592773438 342.208007812 328.84375 347 c 4
 327.1640625 349.145507812 324.745117188 355.283203125 323.46875 360.625 c 4
 320.436523438 373.309570312 299.830078125 395.935546875 284.8125 403.0625 c 4
 276.616210938 406.952148438 261.044921875 408.97265625 234.53125 409.5625 c 4
 203.311523438 410.256835938 194.944335938 409.361328125 189.625 404.75 c 4
 186.028320312 401.6328125 181.3203125 399.740234375 179.15625 400.53125 c 4
 176.9921875 401.322265625 166.486328125 394.008789062 155.84375 384.28125 c 6
 136.5 366.59375 l 5
 127.75 369.90625 l 6
 113.640625 375.270507812 113.225585938 380.419921875 125.8125 393.5 c 4
 144.193359375 412.599609375 173.557617188 431.224609375 191.8125 435.34375 c 4
 208.28125 439.059570312 228.344726562 441.084960938 246.28125 441.34375 c 4
192.375 338.59375 m 4
 194.965820312 338.551757812 201 335.4765625 205.8125 331.75 c 6
 214.5625 324.96875 l 5
 210.1875 318.6875 l 6
 207.77734375 315.23828125 204.313476562 308.98828125 202.5 304.8125 c 4
 200.686523438 300.63671875 196.931640625 295.912109375 194.125 294.3125 c 4
 187.685546875 290.64453125 160.223632812 235.717773438 149.8125 205.65625 c 4
 145.479492188 193.143554688 140.784179688 181.331054688 139.375 179.40625 c 4
 134.694335938 173.01171875 125.3125 141.56640625 125.3125 132.25 c 4
 125.3125 127.203125 123.724609375 121.443359375 121.75 119.46875 c 4
 119.775390625 117.494140625 114.350585938 105.772460938 109.71875 93.40625 c 4
 94.912109375 53.869140625 84.529296875 30.8095703125 78.59375 24.25 c 4
 75.4150390625 20.7373046875 72.8125 15.974609375 72.8125 13.65625 c 4
 72.8125 7.97265625 49.7265625 -14.84375 43.96875 -14.84375 c 4
 41.4453125 -14.84375 36.07421875 -12.51953125 32.03125 -9.6875 c 4
 27.98828125 -6.85546875 23.8603515625 -0.19140625 22.84375 5.125 c 4
 21.3984375 12.685546875 23.572265625 17.64453125 32.84375 27.90625 c 4
 39.3623046875 35.1220703125 49.634765625 51.689453125 55.65625 64.71875 c 4
 61.6787109375 77.748046875 68.2470703125 91.556640625 70.28125 95.40625 c 4
 76.669921875 107.50390625 97.3125 161.657226562 97.3125 166.3125 c 4
 97.3125 168.7578125 98.70703125 173.500976562 100.40625 176.84375 c 4
 108.588867188 192.942382812 125.350585938 236.049804688 125.34375 241 c 4
 125.34375 244.0703125 128.294921875 249.262695312 131.90625 252.53125 c 4
 135.518554688 255.799804688 139.3515625 263.959960938 140.4375 270.65625 c 4
 144.520507812 295.817382812 177.416992188 338.840820312 192.375 338.59375 c 4
EndSplineSet
EndChar

StartChar: S
Encoding: 83 83 15
Width: 383
VWidth: -145
Flags: HW
VStem: 140.159 42.5684<296.582 381.746>
LayerCount: 2
Fore
SplineSet
106.4140625 -7.6015625 m 5
 74.54296875 -1.326171875 38.1630859375 27.5068359375 25.9052734375 56.205078125 c 4
 14.84765625 82.0947265625 27.0029296875 105.762695312 50.2158203125 103.541015625 c 6
 61.974609375 102.416015625 l 5
 69.5771484375 79.666015625 l 6
 84.4013671875 35.30859375 101.80078125 18.2470703125 134.146484375 16.3525390625 c 4
 155.874023438 15.0791015625 183.129882812 22.5146484375 195.180664062 33.0029296875 c 4
 200.841796875 37.9306640625 208.772460938 44.166015625 212.8046875 46.859375 c 4
 216.834960938 49.552734375 222.256835938 58.1904296875 224.852539062 66.0537109375 c 4
 227.85546875 75.15234375 232.506835938 81.4677734375 237.647460938 83.421875 c 4
 246.665039062 86.8505859375 248.258789062 92.912109375 240.88671875 95.7412109375 c 4
 238.2265625 96.7626953125 235.024414062 104.194335938 233.770507812 112.256835938 c 4
 230.395507812 133.958007812 221.568359375 155.134765625 205.655273438 179.703125 c 4
 180.137695312 219.1015625 166.813476562 241.990234375 153.381835938 269.499023438 c 6
 140.158203125 296.58203125 l 5
 140.33984375 339.1640625 l 5
 140.522460938 381.74609375 l 5
 149.581054688 394.817382812 l 6
 163.475585938 414.866210938 186.127929688 433.673828125 205.4765625 441.224609375 c 4
 226.709960938 449.510742188 291.4765625 451.813476562 298.75 444.541015625 c 4
 301.157226562 442.134765625 306.154296875 440.166015625 309.85546875 440.166015625 c 4
 317.482421875 440.166015625 361.2265625 396.1875 361.2265625 388.520507812 c 4
 361.2265625 380.078125 346.188476562 370.405273438 332.874023438 370.282226562 c 6
 320.272460938 370.166992188 l 5
 304.874023438 389.538085938 l 6
 296.310546875 400.3125 285.591796875 409.84765625 280.7265625 411.021484375 c 4
 275.913085938 412.182617188 270.401367188 414.272460938 268.4765625 415.666992188 c 4
 254.749023438 425.608398438 224.49609375 421.057617188 213.4296875 407.38671875 c 4
 209.2265625 402.1953125 207.358398438 401.4609375 207.3046875 404.978515625 c 4
 207.25390625 408.17578125 202.904296875 405.8515625 195.491210938 398.666015625 c 4
 187.0546875 390.489257812 182.44921875 381.6875 179.109375 367.354492188 c 4
 173.102539062 341.580078125 173.032226562 338.291015625 178.318359375 330.012695312 c 4
 180.7421875 326.215820312 182.7265625 320.010742188 182.7265625 316.223632812 c 4
 182.7265625 309.02734375 205.529296875 268.7421875 221.532226562 247.666992188 c 4
 226.6484375 240.9296875 233.774414062 229.904296875 237.366210938 223.166992188 c 4
 240.958984375 216.4296875 246.265625 208.010742188 249.157226562 204.458007812 c 4
 252.047851562 200.905273438 258.100585938 185.943359375 262.60546875 171.208007812 c 4
 271.061523438 143.544921875 272.936523438 104.819335938 266.845703125 83.583984375 c 4
 261.883789062 66.2861328125 239.623046875 34.8603515625 225.729492188 25.541015625 c 4
 218.440429688 20.6513671875 206.17578125 12.431640625 198.4765625 7.2744140625 c 4
 174.670898438 -8.66796875 140.159179688 -14.2451171875 106.415039062 -7.6005859375 c 5
 106.4140625 -7.6015625 l 5
EndSplineSet
EndChar

StartChar: T
Encoding: 84 84 16
Width: 359
VWidth: -145
Flags: HW
LayerCount: 2
Fore
SplineSet
314.573242188 439.875 m 4
 317.741210938 439.836914062 321.838867188 438.4296875 327.541992188 435.78125 c 4
 338.630859375 430.631835938 340.03515625 419.474609375 330.635742188 410.96875 c 4
 327.115234375 407.782226562 322.8828125 405.15625 321.260742188 405.15625 c 4
 319.638671875 405.15625 315.506835938 402.604492188 312.041992188 399.46875 c 4
 308.577148438 396.333007812 299.78515625 392.453125 292.510742188 390.84375 c 4
 237.064453125 378.581054688 230.990234375 377.96484375 194.135742188 380.8125 c 4
 156.802734375 383.697265625 116.037109375 385.294921875 98.4794921875 384.5625 c 4
 93.3515625 384.348632812 81.203125 377.8671875 71.4482421875 370.15625 c 4
 54.0087890625 356.37109375 39.9384765625 352.674804688 29.6669921875 359.1875 c 4
 27.1279296875 360.797851562 24.3759765625 368.27734375 23.5732421875 375.78125 c 6
 22.1357421875 389.40625 l 5
 35.3857421875 403.40625 l 6
 57.62109375 426.858398438 98.779296875 434.44921875 169.010742188 428.03125 c 4
 183.447265625 426.711914062 197.623046875 424.739257812 200.510742188 423.65625 c 4
 215.618164062 417.987304688 266.048828125 416.788085938 271.229492188 421.96875 c 4
 273.540039062 424.279296875 281.357421875 426.15625 288.604492188 426.15625 c 4
 298.19921875 426.15625 302.782226562 428.059570312 305.510742188 433.15625 c 4
 307.95703125 437.727539062 310.5 439.924804688 314.573242188 439.875 c 4
230.354492188 366.65625 m 4
 240.126953125 366.65625 242.782226562 365.104492188 244.479492188 358.34375 c 4
 247.557617188 346.079101562 245.388671875 335.744140625 230.323242188 291.40625 c 4
 227.052734375 281.78125 223.5 269.181640625 222.448242188 263.40625 c 4
 221.397460938 257.630859375 217.623046875 249.153320312 214.041992188 244.5625 c 4
 210.461914062 239.971679688 207.510742188 233.541992188 207.510742188 230.25 c 4
 207.510742188 226.958007812 204.4140625 221.416015625 200.604492188 217.96875 c 4
 193.334960938 211.389648438 177.947265625 174.594726562 181.135742188 171.40625 c 4
 182.15234375 170.387695312 179.848632812 167.344726562 176.010742188 164.65625 c 4
 172.173828125 161.967773438 169.010742188 156.942382812 169.010742188 153.5 c 4
 169.010742188 150.057617188 166.131835938 144.62890625 162.604492188 141.4375 c 4
 159.077148438 138.245117188 152.509765625 124.625 148.010742188 111.15625 c 4
 143.512695312 97.6875 138.547851562 86.65625 136.948242188 86.65625 c 4
 135.348632812 86.65625 134.010742188 84.4189453125 134.010742188 81.6875 c 4
 134.010742188 78.9560546875 131.768554688 72.2626953125 129.010742188 66.8125 c 4
 117.151367188 43.3740234375 110.241210938 20.83203125 113.823242188 17.25 c 4
 116.315429688 14.7578125 115.380859375 10.1162109375 110.823242188 2.3125 c 4
 104.008789062 -9.35546875 93.8564453125 -16.2412109375 97.5107421875 -6.71875 c 4
 100.561523438 1.232421875 92.96484375 3.7216796875 84.2607421875 -2.375 c 4
 79.978515625 -5.3740234375 73.6826171875 -7.84375 70.2607421875 -7.84375 c 4
 65.162109375 -7.84375 64.0107421875 -4.7958984375 64.0107421875 9 c 4
 64.0107421875 18.3798828125 66.3017578125 28.837890625 69.1669921875 32.625 c 4
 71.9931640625 36.361328125 74.35546875 42.3525390625 74.4169921875 45.9375 c 4
 74.5810546875 55.6455078125 108.5078125 128.1328125 152.479492188 212.78125 c 4
 161.016601562 229.215820312 170.018554688 248.903320312 172.479492188 256.53125 c 4
 174.939453125 264.16015625 178.1171875 271.981445312 179.541992188 273.90625 c 4
 182.919921875 278.470703125 204.010742188 341.565429688 204.010742188 347.09375 c 4
 204.010742188 356.098632812 218.243164062 366.65625 230.354492188 366.65625 c 4
EndSplineSet
EndChar

StartChar: U
Encoding: 85 85 17
Width: 409
VWidth: -145
Flags: HW
VStem: 47.6569 59.5<137.968 200.388> 117.656 35<283.93 384.846> 127.46 44.7764<392.916 441.346> 333.936 53.2207<339.631 439.158>
LayerCount: 2
Fore
SplineSet
96.6572265625 -11.556640625 m 4xd0
 70.0087890625 -7.9375 47.1904296875 5.125 35.783203125 23.29296875 c 4
 30.21484375 32.16015625 24.42578125 44.7509765625 22.91796875 51.2734375 c 4
 19.1328125 67.64453125 25.6572265625 101.58203125 37.64453125 127.877929688 c 4
 43.150390625 139.958007812 47.6572265625 150.62109375 47.6572265625 151.57421875 c 4
 47.6572265625 152.528320312 53.7431640625 166.270507812 61.181640625 182.112304688 c 4
 68.62109375 197.954101562 76.7021484375 217.215820312 79.1376953125 224.916015625 c 4
 81.5751953125 232.615234375 84.92578125 240.63671875 86.5849609375 242.740234375 c 4
 88.2431640625 244.84375 94.3203125 262.956054688 100.087890625 282.990234375 c 4
 105.856445312 303.024414062 112.168945312 324.251953125 114.1171875 330.1640625 c 4
 116.063476562 336.076171875 117.657226562 345.864257812 117.657226562 351.916992188 c 4xd0
 117.657226562 357.969726562 119.872070312 369.669921875 122.580078125 377.91796875 c 4
 125.288085938 386.166992188 127.483398438 399.215820312 127.4609375 406.916015625 c 4
 127.390625 428.7109375 132.844726562 438.828125 146.081054688 441.475585938 c 4
 161.391601562 444.538085938 167.188476562 438.228515625 172.237304688 413.01171875 c 6xb0
 176.258789062 392.916015625 l 5
 169.971679688 384.904296875 l 6
 166.28515625 380.206054688 162.680664062 367.518554688 161.2578125 354.23046875 c 4
 159.922851562 341.766601562 157.44140625 330.709960938 155.744140625 329.66015625 c 4
 154.045898438 328.611328125 152.657226562 322.647460938 152.657226562 316.409179688 c 4
 152.657226562 310.169921875 151.34765625 303.569335938 149.748046875 301.740234375 c 4
 148.1484375 299.912109375 143.990234375 288.177734375 140.506835938 275.666015625 c 4
 134.900390625 255.532226562 119.130859375 214.895507812 110.301757812 197.837890625 c 4
 108.572265625 194.495117188 107.157226562 189.377929688 107.157226562 186.465820312 c 4
 107.157226562 183.5546875 97.703125 161.7265625 86.1474609375 137.9609375 c 4
 64.3310546875 93.0869140625 58.5693359375 68.701171875 64.515625 46.416015625 c 4
 67.1669921875 36.482421875 77.3076171875 29.0302734375 98.4072265625 21.513671875 c 4
 110.08203125 17.3544921875 132.879882812 17.9599609375 142.157226562 22.6748046875 c 4
 146.96875 25.12109375 153.00390625 27.1328125 155.567382812 27.1435546875 c 4
 162.783203125 27.1787109375 201.247070312 50.716796875 212.541992188 62.01171875 c 4
 218.104492188 67.5751953125 222.657226562 75.154296875 222.657226562 78.8544921875 c 4
 222.657226562 82.5537109375 225.806640625 88.431640625 229.657226562 91.916015625 c 4
 233.506835938 95.400390625 236.657226562 100.9140625 236.657226562 104.169921875 c 4
 236.657226562 111.150390625 246.171875 131.14453125 250.877929688 134.052734375 c 4
 252.681640625 135.166992188 254.157226562 138.44921875 254.157226562 141.346679688 c 4
 254.157226562 144.244140625 257.890625 154.782226562 262.456054688 164.764648438 c 4
 267.01953125 174.748046875 273.5625 191.578125 276.995117188 202.166015625 c 4
 280.427734375 212.752929688 286.142578125 227.142578125 289.696289062 234.142578125 c 4
 293.25 241.141601562 296.157226562 250.276367188 296.157226562 254.44140625 c 4
 296.157226562 258.60546875 298.775390625 267.053710938 301.975585938 273.21484375 c 4
 309.790039062 288.256835938 325.008789062 345.010742188 324.46875 357.098632812 c 4
 324.23046875 362.423828125 326.379882812 371.313476562 329.245117188 376.852539062 c 4
 332.296875 382.754882812 334.239257812 395.041992188 333.936523438 406.536132812 c 4
 333.510742188 422.732421875 334.853515625 427.673828125 341.6484375 434.907226562 c 4
 346.173828125 439.724609375 352.700195312 443.666015625 356.149414062 443.666015625 c 4
 363.569335938 443.666015625 387.157226562 421.102539062 387.157226562 414.005859375 c 4
 387.157226562 411.295898438 385.555664062 408.08984375 383.599609375 406.879882812 c 4
 381.642578125 405.671875 380.88671875 403.315429688 381.918945312 401.645507812 c 4
 382.952148438 399.974609375 380.765625 390.633789062 377.061523438 380.885742188 c 4
 372.986328125 370.158203125 371.666992188 362.3359375 373.720703125 361.067382812 c 4
 375.705078125 359.840820312 374.776367188 356.389648438 371.484375 352.752929688 c 4
 368.389648438 349.33203125 365.015625 340.432617188 363.987304688 332.974609375 c 4
 362.958007812 325.517578125 359.255859375 313.903320312 355.759765625 307.166015625 c 4
 352.263671875 300.427734375 348.26953125 287.828125 346.883789062 279.166015625 c 4
 345.499023438 270.502929688 343.149414062 261.840820312 341.665039062 259.916015625 c 4
 340.1796875 257.990234375 337.8203125 250.903320312 336.421875 244.166015625 c 4
 335.022460938 237.427734375 331.565429688 229.291992188 328.741210938 226.084960938 c 4
 325.916992188 222.87890625 323.09765625 216.579101562 322.478515625 212.084960938 c 4
 321.248046875 203.15234375 293.736328125 138.211914062 270.087890625 88.416015625 c 4
 250.920898438 48.0576171875 248.487304688 33.923828125 259.001953125 24.0458984375 c 4
 265.552734375 17.8916015625 270.008789062 16.97265625 286.997070312 18.2763671875 c 4
 311.779296875 20.1787109375 339.993164062 28.255859375 353.603515625 37.345703125 c 6
 363.80078125 44.1552734375 l 5
 370.729492188 35.3466796875 l 5
 377.659179688 26.5380859375 l 5
 368.19140625 17.7607421875 l 6
 362.986328125 12.9326171875 356.853515625 8.6669921875 354.56640625 8.28125 c 4
 352.279296875 7.8955078125 346.715820312 5.5517578125 342.205078125 3.07421875 c 4
 337.6953125 0.59765625 329.638671875 -1.763671875 324.301757812 -2.169921875 c 4
 318.966796875 -2.5771484375 310.515625 -5.5869140625 305.521484375 -8.859375 c 4
 294.708984375 -15.9443359375 261.544921875 -16.3330078125 245.036132812 -9.5673828125 c 4
 239.055664062 -7.1171875 227.998046875 1.3046875 220.4609375 9.1484375 c 6
 206.756835938 23.41015625 l 5
 187.58203125 14.3564453125 l 6
 177.036132812 9.376953125 165.662109375 2.9013671875 162.307617188 -0.0341796875 c 4
 158.954101562 -2.9697265625 148.716796875 -6.58203125 139.557617188 -8.0615234375 c 4
 130.399414062 -9.5419921875 120.543945312 -11.4140625 117.657226562 -12.2236328125 c 4
 114.768554688 -13.033203125 105.319335938 -12.732421875 96.6572265625 -11.556640625 c 4xd0
EndSplineSet
EndChar

StartChar: V
Encoding: 86 86 18
Width: 333
VWidth: -145
Flags: HW
LayerCount: 2
Fore
SplineSet
32.44140625 -19.5009765625 m 4
 27.537109375 -14.5966796875 30.5888671875 -12.15234375 44.3720703125 -9.9482421875 c 4
 63.4716796875 -6.8935546875 61.068359375 1.3447265625 41.53515625 -0.2236328125 c 4
 32.82421875 -0.923828125 26.30078125 0.330078125 24.6357421875 3.025390625 c 4
 20.0537109375 10.4375 22.7001953125 129.290039062 27.9794921875 153.211914062 c 4
 30.9658203125 166.74609375 37.6669921875 262.474609375 38.7568359375 307.166015625 c 4
 39.296875 329.302734375 38.2822265625 356.078125 36.501953125 366.666015625 c 4
 34.72265625 377.252929688 32.8427734375 389.145507812 32.3251953125 393.092773438 c 4
 31.8076171875 397.040039062 30.2216796875 402.149414062 28.8017578125 404.447265625 c 4
 27.333984375 406.822265625 30.3330078125 414.016601562 35.7548828125 421.125976562 c 4
 43.677734375 431.513671875 46.8193359375 433.25390625 54.32421875 431.416015625 c 4
 67.8994140625 428.09375 72.2490234375 422.106445312 78.8369140625 397.677734375 c 4
 86.0537109375 370.916015625 85.7138671875 323.580078125 77.74609375 245.916015625 c 4
 74.7841796875 217.041015625 72.365234375 184.752929688 72.3720703125 174.166015625 c 4
 72.3720703125 163.578125 71.0009765625 135.228515625 69.310546875 111.166015625 c 4
 67.619140625 87.103515625 67.1845703125 63.8203125 68.3447265625 59.42578125 c 4
 70.1328125 52.65625 71.291015625 52.1220703125 75.9248046875 55.92578125 c 4
 83.341796875 62.0146484375 101.923828125 86.9794921875 104.666992188 94.541015625 c 4
 105.887695312 97.9091796875 108.247070312 100.666015625 109.909179688 100.666015625 c 4
 111.5703125 100.666015625 118.217773438 108.934570312 124.681640625 119.041015625 c 4
 131.146484375 129.146484375 141.786132812 144.044921875 148.326171875 152.147460938 c 4
 154.866210938 160.25 163.404296875 172.849609375 167.299804688 180.147460938 c 4
 176.125 196.676757812 182.09375 207.046875 193.068359375 224.916015625 c 4
 201.326171875 238.362304688 234.157226562 304.455078125 250.205078125 339.939453125 c 4
 256.942382812 354.834960938 266.40625 406.626953125 263.838867188 414.552734375 c 4
 263.329101562 416.126953125 265.5234375 421.120117188 268.71484375 425.6484375 c 6
 274.517578125 433.880859375 l 5
 288.611328125 431.5 l 6
 296.36328125 430.190429688 304.243164062 427.264648438 306.124023438 424.999023438 c 4
 308.00390625 422.733398438 309.959960938 410.651367188 310.469726562 398.151367188 c 4
 311.233398438 379.4609375 310.389648438 375.228515625 305.697265625 374.325195312 c 4
 302.375976562 373.685546875 300.799804688 371.129882812 301.922851562 368.206054688 c 4
 302.982421875 365.444335938 299.125 355.69921875 293.350585938 346.549804688 c 4
 287.577148438 337.401367188 277.85546875 320.178710938 271.748046875 308.27734375 c 4
 265.640625 296.375976562 258.5234375 284.877929688 255.9296875 282.725585938 c 4
 253.336914062 280.57421875 250.129882812 270.916992188 248.802734375 261.266601562 c 4
 246.875976562 247.259765625 244.734375 243.08984375 238.1875 240.600585938 c 4
 232.475585938 238.4296875 229.260742188 233.627929688 227.604492188 224.794921875 c 4
 226.294921875 217.81640625 223.390625 211.403320312 221.150390625 210.543945312 c 4
 218.91015625 209.68359375 214.077148438 201.250976562 210.411132812 191.803710938 c 4
 206.596679688 181.974609375 201.041992188 173.918945312 197.426757812 172.973632812 c 4
 193.06640625 171.833007812 191.108398438 167.991210938 191.108398438 160.57421875 c 4
 191.108398438 152.943359375 188.543945312 148.147460938 182.267578125 144.03515625 c 4
 176.7421875 140.4140625 174.109375 136.099609375 175.244140625 132.524414062 c 4
 176.390625 128.909179688 174.259765625 125.537109375 169.452148438 123.360351562 c 4
 165.268554688 121.465820312 160.161132812 115.01953125 158.1015625 109.036132812 c 4
 156.04296875 103.052734375 149.665039062 92.3232421875 143.9296875 85.193359375 c 4
 138.194335938 78.0634765625 132.681640625 71.0322265625 131.6796875 69.5673828125 c 4
 130.677734375 68.103515625 127.30859375 65.9677734375 124.194335938 64.822265625 c 4
 121.080078125 63.6767578125 112.704101562 52.3193359375 105.58203125 39.583984375 c 4
 98.4599609375 26.8486328125 89.5888671875 14.52734375 85.8701171875 12.205078125 c 4
 82.1513671875 9.8828125 79.1083984375 5.5625 79.1083984375 2.60546875 c 4
 79.1083984375 -8.78125 40.16796875 -27.2275390625 32.44140625 -19.5009765625 c 4
298.016601562 394.666015625 m 4
 298.016601562 385.049804688 296.494140625 380.666015625 293.154296875 380.666015625 c 4
 289.819335938 380.666015625 288.955078125 383.140625 290.40234375 388.541015625 c 4
 291.563476562 392.872070312 292.530273438 399.171875 292.559570312 402.541015625 c 4
 292.5859375 405.909179688 293.825195312 408.666015625 295.3125 408.666015625 c 4
 296.799804688 408.666015625 298.016601562 402.365234375 298.016601562 394.666015625 c 4
EndSplineSet
EndChar

StartChar: a
Encoding: 97 97 22
Width: 364
VWidth: -109
Flags: HW
LayerCount: 2
Fore
SplineSet
84.150390625 -5.1591796875 m 1
 69.123046875 -3.69921875 43.7919921875 16.5185546875 34.7275390625 34.2841796875 c 0
 23.74609375 55.8125 21.3271484375 73.4970703125 25.0751953125 104.860351562 c 0
 28.9462890625 137.249023438 42.849609375 168.307617188 68.5439453125 201.970703125 c 0
 92.9248046875 233.913085938 105.321289062 244.797851562 132.887695312 258.467773438 c 0
 137.700195312 260.854492188 145.1015625 265.85546875 149.334960938 269.58203125 c 0
 153.568359375 273.307617188 159.423828125 275.438476562 162.34765625 274.31640625 c 0
 165.271484375 273.194335938 168.594726562 273.783203125 169.732421875 275.624023438 c 0
 173 280.91015625 212.626953125 279.544921875 223.813476562 273.759765625 c 0
 234.302734375 268.334960938 240.754882812 255.844726562 235.610351562 250.921875 c 0
 230.850585938 246.366210938 219.58984375 245.958984375 206.279296875 249.861328125 c 0
 193.079101562 253.73046875 172.544921875 252.17578125 169.388671875 247.067382812 c 0
 168.3359375 245.364257812 164.41796875 243.970703125 160.681640625 243.970703125 c 0
 156.944335938 243.970703125 153.887695312 242.427734375 153.887695312 240.541992188 c 0
 153.887695312 238.65625 147.586914062 233.899414062 139.88671875 229.970703125 c 0
 132.185546875 226.041992188 122.162109375 216.930664062 117.612304688 209.72265625 c 0
 113.0625 202.515625 106.634765625 194.373046875 103.328125 191.62890625 c 0
 96.4794921875 185.944335938 79.419921875 153.420898438 72.015625 131.930664062 c 0
 69.0439453125 123.302734375 67.2578125 105.934570312 67.5869140625 88.8486328125 c 0
 68.0458984375 65.0234375 69.5048828125 58.3037109375 76.2890625 48.79296875 c 0
 80.771484375 42.5078125 88.962890625 35.0263671875 94.490234375 32.16796875 c 0
 106.068359375 26.1806640625 127.915039062 25.2568359375 131.225585938 30.61328125 c 0
 132.463867188 32.6162109375 136.255859375 33.3740234375 139.65234375 32.2958984375 c 0
 151.142578125 28.6494140625 161.623046875 36.6533203125 192.252929688 72.470703125 c 0
 210.3984375 93.69140625 243.723632812 164.235351562 261.813476562 219.719726562 c 0
 264.0546875 226.59375 265.887695312 238.85546875 265.887695312 246.967773438 c 0
 265.887695312 267.2421875 274.130859375 278.970703125 288.380859375 278.970703125 c 0
 301.7265625 278.970703125 314.887695312 267.955078125 314.887695312 256.784179688 c 0
 314.887695312 252.432617188 316.619140625 247.139648438 318.735351562 245.0234375 c 0
 321.53125 242.227539062 319.48046875 234.677734375 311.227539062 217.384765625 c 0
 304.982421875 204.299804688 299.108398438 186.815429688 298.174804688 178.532226562 c 0
 297.241210938 170.249023438 295.221679688 163.470703125 293.686523438 163.470703125 c 0
 292.15234375 163.470703125 286.783203125 154.415039062 281.755859375 143.345703125 c 0
 276.728515625 132.27734375 271.1015625 120.486328125 269.251953125 117.143554688 c 0
 267.401367188 113.80078125 265.887695312 108.926757812 265.887695312 106.311523438 c 0
 265.887695312 103.6953125 262.567382812 98.5556640625 258.509765625 94.888671875 c 0
 248.935546875 86.2373046875 235.618164062 59.83984375 232.53515625 43.4033203125 c 2
 230.108398438 30.470703125 l 1
 238.373046875 30.056640625 l 2
 242.918945312 29.8291015625 248.212890625 30.021484375 250.137695312 30.498046875 c 0
 252.0625 30.96875 256.788085938 31.7763671875 260.637695312 32.2939453125 c 0
 264.48828125 32.8115234375 279.331054688 37.3369140625 293.623046875 42.3525390625 c 0
 326.080078125 53.7421875 333.674804688 53.861328125 338.59765625 43.0576171875 c 0
 341.716796875 36.2119140625 341.28125 33.6015625 336.258789062 29.0576171875 c 0
 332.864257812 25.984375 327.614257812 23.470703125 324.592773438 23.470703125 c 0
 321.571289062 23.470703125 310.23828125 18.810546875 299.408203125 13.11328125 c 0
 288.579101562 7.4169921875 277.374023438 3.6552734375 274.508789062 4.7548828125 c 0
 271.643554688 5.8544921875 266.9765625 4.828125 264.137695312 2.470703125 c 0
 261.299804688 0.115234375 256.64453125 -0.9169921875 253.794921875 0.1767578125 c 0
 250.944335938 1.2705078125 247.681640625 0.6591796875 246.54296875 -1.181640625 c 0
 245.405273438 -3.0224609375 238.1171875 -4.529296875 230.346679688 -4.529296875 c 0
 216.682617188 -4.529296875 197.689453125 5.119140625 191.4453125 15.2314453125 c 0
 189.412109375 18.5234375 183.836914062 17.1630859375 168.6953125 9.6796875 c 0
 157.6640625 4.228515625 141.55078125 -1.8955078125 132.887695312 -3.9287109375 c 0
 117.72265625 -7.48828125 110.102539062 -7.6806640625 84.150390625 -5.1591796875 c 1
EndSplineSet
EndChar

StartChar: b
Encoding: 98 98 23
Width: 386
VWidth: -110
Flags: HW
LayerCount: 2
Fore
SplineSet
236.584960938 449.083007812 m 0
 238.0546875 449.161132812 239.6171875 448.893554688 241.334960938 448.333007812 c 0
 245.524414062 446.965820312 252.897460938 445.91015625 257.709960938 445.958007812 c 0
 268.560546875 446.06640625 275.209960938 440.856445312 275.209960938 432.239257812 c 0
 275.209960938 428.625 277.27734375 425.645507812 279.803710938 425.645507812 c 0
 282.329101562 425.645507812 287.8515625 420.96484375 292.084960938 415.239257812 c 0
 298.458007812 406.618164062 299.295898438 402.55859375 296.928710938 391.614257812 c 0
 295.356445312 384.345703125 294.4375 370.520507812 294.866210938 360.895507812 c 0
 295.294921875 351.270507812 293.760742188 340.245117188 291.459960938 336.395507812 c 0
 289.159179688 332.545898438 283.587890625 319.9453125 279.084960938 308.395507812 c 0
 265.826171875 274.388671875 257.036132812 256.552734375 248.366210938 246.020507812 c 0
 243.885742188 240.579101562 240.209960938 233.268554688 240.209960938 229.801757812 c 0
 240.209960938 226.334960938 237.942382812 221.622070312 235.147460938 219.301757812 c 0
 232.352539062 216.982421875 216.99609375 198.45703125 201.022460938 178.145507812 c 0
 185.048828125 157.834960938 165.461914062 133.938476562 157.522460938 125.051757812 c 0
 149.583007812 116.165039062 135.844726562 100.635742188 126.991210938 90.5205078125 c 2
 110.897460938 72.1142578125 l 1
 113.084960938 60.7705078125 l 2
 114.291992188 54.5224609375 119.577148438 44.43359375 124.834960938 38.3642578125 c 0
 130.091796875 32.294921875 135.0390625 25.4697265625 135.803710938 23.1767578125 c 0
 136.567382812 20.8837890625 144.133789062 17.728515625 152.616210938 16.1767578125 c 0
 164.349609375 14.03125 170.166992188 14.6650390625 176.991210938 18.8642578125 c 0
 190.116210938 26.943359375 215.709960938 51.9638671875 215.709960938 56.7080078125 c 0
 215.709960938 58.955078125 211.732421875 69.7978515625 206.866210938 80.8017578125 c 2
 198.022460938 100.801757812 l 1
 204.366210938 118.801757812 l 2
 211.249023438 138.345703125 220.412109375 145.526367188 238.678710938 145.614257812 c 0
 245.918945312 145.649414062 252.301757812 142.521484375 258.334960938 136.020507812 c 2
 267.272460938 126.395507812 l 1
 264.553710938 99.4267578125 l 2
 263.051757812 84.5888671875 260.990234375 71.13671875 259.991210938 69.5205078125 c 0
 256.915039062 64.5439453125 262.263671875 59.2275390625 279.772460938 49.9267578125 c 0
 289.016601562 45.0166015625 299.08203125 41.9697265625 302.147460938 43.1455078125 c 0
 305.404296875 44.3955078125 309.587890625 42.7314453125 312.209960938 39.1455078125 c 0
 314.942382812 35.4091796875 319.198242188 33.818359375 323.084960938 35.0517578125 c 0
 331.732421875 37.796875 336.640625 37.103515625 335.584960938 33.3017578125 c 0
 334.192382812 28.2890625 340.436523438 29.64453125 345.209960938 35.3955078125 c 0
 350.875 42.2216796875 357.905273438 42.0966796875 360.584960938 35.1142578125 c 0
 364.341796875 25.32421875 362.953125 22.8759765625 350.584960938 17.7080078125 c 0
 333.638671875 10.6279296875 330.116210938 11.0634765625 334.709960938 19.6455078125 c 0
 339.524414062 28.642578125 334.166992188 28.703125 326.053710938 19.7392578125 c 0
 322.610351562 15.9345703125 318.525390625 13.603515625 316.991210938 14.5517578125 c 0
 315.456054688 15.5 313.119140625 14.54296875 311.803710938 12.3955078125 c 0
 310.2890625 9.9453125 304.731445312 9.41015625 296.678710938 10.9580078125 c 0
 278.348632812 14.48046875 278.307617188 14.5068359375 262.959960938 21.5517578125 c 0
 255.259765625 25.0869140625 247.899414062 28.0595703125 246.616210938 28.1767578125 c 0
 245.33203125 28.2958984375 243.122070312 29.5771484375 241.678710938 31.0205078125 c 0
 237.56640625 35.1328125 233.209960938 34.1064453125 233.209960938 29.0205078125 c 0
 233.209960938 24.6171875 207.696289062 5.6455078125 201.772460938 5.6455078125 c 0
 200.225585938 5.6455078125 198.067382812 3.283203125 196.959960938 0.3955078125 c 0
 195.8515625 -2.4921875 191.822265625 -4.8544921875 188.022460938 -4.8544921875 c 0
 184.221679688 -4.8544921875 175.919921875 -7.8447265625 169.553710938 -11.5107421875 c 0
 160.724609375 -16.59375 155.90234375 -17.3701171875 149.303710938 -14.8232421875 c 0
 144.545898438 -12.986328125 139.323242188 -9.6025390625 137.678710938 -7.2919921875 c 0
 135.369140625 -4.048828125 134.268554688 -4.1005859375 132.897460938 -7.4794921875 c 0
 131.920898438 -9.8857421875 129.434570312 -11.8544921875 127.366210938 -11.8544921875 c 0
 123.168945312 -11.8544921875 87.322265625 24.5029296875 78.6787109375 37.5205078125 c 2
 73.1162109375 45.8955078125 l 1
 61.3037109375 39.8017578125 l 2
 54.796875 36.4501953125 46.703125 31.7099609375 43.3349609375 29.3017578125 c 0
 38.7861328125 26.05078125 35.6328125 25.9375 31.0849609375 28.8017578125 c 0
 15.5810546875 38.5654296875 24.59375 53.9931640625 53.5224609375 67.2705078125 c 2
 71.5537109375 75.5517578125 l 1
 71.8349609375 102.739257812 l 2
 72.2119140625 140.983398438 77.28125 182.916015625 83.9912109375 203.083007812 c 0
 87.134765625 212.532226562 89.7099609375 223.75 89.7099609375 228.020507812 c 0
 89.7099609375 232.291015625 92.009765625 237.702148438 94.8037109375 240.020507812 c 0
 97.5966796875 242.338867188 100.930664062 251.211914062 102.209960938 259.739257812 c 0
 103.48828125 268.266601562 107.48828125 279.001953125 111.116210938 283.614257812 c 0
 114.744140625 288.2265625 117.709960938 293.434570312 117.709960938 295.176757812 c 0
 117.709960938 296.918945312 121.647460938 306.513671875 126.459960938 316.489257812 c 0
 131.272460938 326.465820312 135.209960938 335.673828125 135.209960938 336.958007812 c 0
 135.209960938 338.243164062 140.2109375 347.2890625 146.334960938 357.083007812 c 0
 158.63671875 376.7578125 166.846679688 385.993164062 196.209960938 413.301757812 c 0
 203.090820312 419.702148438 208.709960938 427.471679688 208.709960938 430.551757812 c 0
 208.709960938 433.631835938 211.506835938 436.145507812 214.928710938 436.145507812 c 0
 218.350585938 436.145507812 223.971679688 439.452148438 227.428710938 443.489257812 c 0
 230.546875 447.130859375 233.350585938 448.911132812 236.584960938 449.083007812 c 0
254.053710938 414.301757812 m 0
 252.217773438 414.318359375 250.08984375 414.025390625 247.647460938 413.489257812 c 0
 241.55078125 412.150390625 236.709960938 408.87109375 236.709960938 406.051757812 c 0
 236.709960938 403.26953125 232.908203125 399.533203125 228.272460938 397.770507812 c 0
 223.635742188 396.0078125 216.942382812 390.424804688 213.397460938 385.364257812 c 0
 209.852539062 380.303710938 201.1953125 369.250976562 194.147460938 360.801757812 c 0
 187.098632812 352.352539062 180.1875 340.263671875 178.803710938 333.926757812 c 0
 177.419921875 327.590820312 173.37109375 318.642578125 169.772460938 314.051757812 c 0
 166.172851562 309.4609375 163.209960938 303.588867188 163.209960938 300.989257812 c 0
 163.209960938 297.045898438 154.47265625 277.828125 138.397460938 246.426757812 c 0
 136.715820312 243.142578125 134.31640625 233.692382812 133.053710938 225.426757812 c 0
 131.791015625 217.162109375 129.389648438 207.736328125 127.709960938 204.458007812 c 0
 125.067382812 199.303710938 110.83203125 134.559570312 110.741210938 127.270507812 c 0
 110.680664062 122.595703125 117.543945312 124.494140625 129.741210938 132.489257812 c 0
 136.303710938 136.791015625 144.4375 145.059570312 147.803710938 150.864257812 c 0
 151.169921875 156.668945312 155.7421875 162.514648438 157.959960938 163.864257812 c 0
 163.106445312 166.99609375 198.706054688 213.537109375 208.272460938 229.645507812 c 0
 223.958984375 256.0625 229.709960938 268.146484375 229.709960938 274.583007812 c 0
 229.709960938 278.274414062 231.9296875 283.139648438 234.647460938 285.395507812 c 0
 237.365234375 287.651367188 241.455078125 297.303710938 243.741210938 306.833007812 c 0
 246.02734375 316.36328125 249.115234375 324.145507812 250.584960938 324.145507812 c 0
 253.955078125 324.145507812 264.721679688 377.763671875 264.647460938 394.145507812 c 0
 264.581054688 408.580078125 262.008789062 414.229492188 254.053710938 414.301757812 c 0
232.959960938 113.458007812 m 0
 231.71875 113.374023438 230.462890625 112.8046875 229.303710938 111.645507812 c 0
 224.91015625 107.251953125 229.16796875 96.6455078125 235.334960938 96.6455078125 c 0
 238.015625 96.6455078125 240.209960938 99.7216796875 240.209960938 103.458007812 c 0
 240.209960938 109.54296875 236.682617188 113.708984375 232.959960938 113.458007812 c 0
EndSplineSet
EndChar

StartChar: c
Encoding: 99 99 24
Width: 344
VWidth: -110
Flags: HW
LayerCount: 2
Fore
SplineSet
104.0703125 -6.8984375 m 0
 78.3310546875 -3.341796875 65.8115234375 3.69921875 45.2685546875 26.1767578125 c 0
 31.423828125 41.3251953125 27.55078125 48.34765625 25.5634765625 61.90234375 c 0
 21.052734375 92.671875 23.544921875 115.276367188 34.486328125 142.819335938 c 0
 47.5634765625 175.739257812 60.2802734375 194.020507812 93.5703125 227.756835938 c 2
 119.8203125 254.358398438 l 1
 149.5703125 265.029296875 l 2
 183.567382812 277.223632812 193.000976562 277.989257812 218.91796875 270.658203125 c 0
 237.506835938 265.400390625 265.0703125 244.546875 265.0703125 235.741210938 c 0
 265.0703125 233.365234375 268.145507812 229.267578125 271.903320312 226.635742188 c 0
 275.661132812 224.00390625 278.67578125 218.795898438 278.6015625 215.061523438 c 0
 278.528320312 211.328125 279.487304688 205.064453125 280.733398438 201.140625 c 0
 284.124023438 190.466796875 268.76953125 175.698242188 251.390625 172.918945312 c 2
 237.228515625 170.654296875 l 1
 233.649414062 180.067382812 l 2
 231.680664062 185.244140625 230.0703125 195.57421875 230.0703125 203.024414062 c 0
 230.0703125 223.452148438 224.739257812 233.545898438 210.086914062 240.858398438 c 2
 196.8203125 247.479492188 l 1
 181.0703125 243.182617188 l 2
 158.017578125 236.893554688 148.09375 230.624023438 133.740234375 213.283203125 c 0
 126.6796875 204.752929688 116.67578125 193.836914062 111.5078125 189.024414062 c 0
 102.958007812 181.060546875 92.193359375 160.961914062 91.8251953125 152.274414062 c 0
 91.5390625 145.487304688 85.6865234375 131.209960938 80.9951171875 125.845703125 c 0
 74.943359375 118.926757812 73.5224609375 76.455078125 78.7255859375 58.04296875 c 0
 83.033203125 42.802734375 86.2158203125 40.30859375 115.872070312 28.91796875 c 0
 140.354492188 19.513671875 166.5859375 18.8447265625 218.948242188 26.2880859375 c 0
 257.780273438 31.8076171875 260.342773438 32.6943359375 269.028320312 43.6298828125 c 0
 272.166992188 47.58203125 280.385742188 52.859375 287.291992188 55.3564453125 c 2
 299.849609375 59.8974609375 l 1
 310.459960938 52.052734375 l 2
 323.2890625 42.5673828125 323.810546875 35.5029296875 312.577148438 23.3818359375 c 0
 306.350585938 16.6630859375 300.89453125 14.337890625 292.127929688 14.6669921875 c 0
 285.551757812 14.916015625 278.104492188 13.8408203125 275.580078125 12.2802734375 c 0
 273.055664062 10.7197265625 267.689453125 8.9541015625 263.655273438 8.357421875 c 0
 259.62109375 7.7607421875 246.87109375 5.0068359375 235.3203125 2.2392578125 c 0
 181.466796875 -10.6689453125 148.150390625 -12.98828125 104.0703125 -6.8984375 c 0
EndSplineSet
EndChar

StartChar: d
Encoding: 100 100 25
Width: 390
VWidth: -110
Flags: HW
LayerCount: 2
Fore
SplineSet
73.6611328125 -0.6494140625 m 0
 53.3935546875 9.3828125 35.45703125 28.76953125 29.052734375 47.56640625 c 0
 21.443359375 69.8984375 22.04296875 116.98046875 30.2333984375 140.283203125 c 0
 33.826171875 150.504882812 38.9443359375 162.853515625 41.6083984375 167.725585938 c 0
 44.2724609375 172.59765625 50.6796875 184.276367188 55.8486328125 193.678710938 c 0
 78.509765625 234.907226562 116.561523438 268.532226562 150.766601562 277.5546875 c 0
 171.291015625 282.969726562 210.69921875 280.404296875 216.62109375 273.268554688 c 0
 218.786132812 270.659179688 222.43359375 268.524414062 224.725585938 268.524414062 c 0
 227.016601562 268.524414062 233.264648438 263.958984375 238.610351562 258.379882812 c 0
 246.830078125 249.80078125 247.721679688 247.1015625 244.391601562 240.879882812 c 0
 239.821289062 232.338867188 232.0234375 231.609375 219.701171875 238.5703125 c 0
 214.888671875 241.2890625 205.7421875 246.212890625 199.375976562 249.512695312 c 2
 187.80078125 255.51171875 l 1
 173.125976562 251.127929688 l 2
 149.970703125 244.2109375 133.798828125 234.748046875 126.938476562 224.100585938 c 0
 123.456054688 218.696289062 116.72265625 210.336914062 111.975585938 205.524414062 c 0
 107.227539062 200.711914062 99.6669921875 188.754882812 95.1728515625 178.953125 c 0
 90.6796875 169.150390625 84.6953125 159.216796875 81.8759765625 156.875976562 c 0
 79.0556640625 154.536132812 75.6455078125 146.018554688 74.296875 137.947265625 c 0
 72.9482421875 129.876953125 70.34765625 122.323242188 68.5185546875 121.16015625 c 0
 63.3759765625 117.892578125 63.998046875 61.74609375 69.2998046875 50.5634765625 c 0
 75.2705078125 37.96875 91.37890625 28.4296875 111.537109375 25.552734375 c 0
 123.2890625 23.8759765625 128.716796875 24.5751953125 131.684570312 28.1513671875 c 0
 133.91796875 30.8427734375 139.323242188 32.361328125 143.696289062 31.525390625 c 0
 148.74609375 30.5595703125 154.043945312 32.654296875 158.216796875 37.2646484375 c 0
 161.830078125 41.2568359375 166.036132812 44.5244140625 167.563476562 44.5244140625 c 0
 175.578125 44.5244140625 209.981445312 88.8955078125 214.448242188 104.9921875 c 0
 216.305664062 111.686523438 236.123046875 158.321289062 243.783203125 174.024414062 c 0
 245.192382812 176.911132812 250.791992188 193.44921875 256.228515625 210.774414062 c 0
 261.6640625 228.098632812 270.73828125 255.661132812 276.392578125 272.024414062 c 0
 290.603515625 313.149414062 294.420898438 330.493164062 293.6171875 350.288085938 c 0
 293.130859375 362.276367188 294.540039062 368.481445312 298.387695312 371.294921875 c 0
 303.528320312 375.053710938 308.091796875 393.272460938 312.971679688 429.524414062 c 0
 315.524414062 448.493164062 322.619140625 457.524414062 334.965820312 457.524414062 c 0
 343.987304688 457.524414062 354.130859375 448.861328125 361.673828125 434.717773438 c 0
 366.705078125 425.284179688 368.126953125 387.524414062 363.452148438 387.524414062 c 0
 358.387695312 387.524414062 345.701171875 361.5625 345.701171875 351.197265625 c 0
 345.701171875 346.463867188 343.5234375 338.1328125 340.860351562 332.682617188 c 0
 331.568359375 313.662109375 317.083007812 265.357421875 319.499023438 261.447265625 c 0
 320.838867188 259.279296875 318.915039062 254.079101562 315.223632812 249.889648438 c 0
 311.533203125 245.701171875 305.685546875 232.82421875 302.23046875 221.274414062 c 0
 298.774414062 209.723632812 293.9296875 197.911132812 291.463867188 195.024414062 c 0
 288.998046875 192.13671875 285.811523438 184.284179688 284.381835938 177.575195312 c 0
 282.953125 170.866210938 279.446289062 161.809570312 276.58984375 157.450195312 c 0
 273.733398438 153.090820312 272.352539062 149.524414062 273.520507812 149.524414062 c 0
 276.180664062 149.524414062 262.623046875 112.311523438 253.807617188 95.4189453125 c 0
 251.840820312 91.6494140625 248.213867188 79.888671875 245.749023438 69.28515625 c 0
 240.424804688 46.380859375 243.190429688 39.0517578125 259.7734375 32.123046875 c 0
 273.359375 26.4462890625 288.729492188 28.2333984375 322.592773438 39.4248046875 c 0
 341.586914062 45.703125 348.48828125 46.6044921875 354.967773438 43.65234375 c 0
 368.208007812 37.619140625 365.211914062 28.3701171875 347.451171875 20.4482421875 c 0
 341.676757812 17.8720703125 325.50390625 12.00390625 311.512695312 7.408203125 c 0
 291.133789062 0.71484375 280.096679688 -0.7548828125 256.022460938 0.01953125 c 2
 225.970703125 0.9853515625 l 1
 214.0390625 14.0048828125 l 2
 200.671875 28.5908203125 193.252929688 30.427734375 189.935546875 19.9736328125 c 0
 188.704101562 16.095703125 186.18359375 13.857421875 184.333984375 15.0009765625 c 0
 182.484375 16.14453125 175.706054688 13.9736328125 169.271484375 10.1767578125 c 0
 153.147460938 0.6630859375 121.916015625 -7.9765625 103.663085938 -7.9736328125 c 0
 95.28125 -7.9736328125 81.810546875 -4.68359375 73.6611328125 -0.6494140625 c 0
EndSplineSet
EndChar

StartChar: e
Encoding: 101 101 26
Width: 390
VWidth: -110
Flags: HW
LayerCount: 2
Fore
SplineSet
235.3203125 278.989257812 m 0
 254.44140625 279.030273438 275.16015625 276.96484375 283.6640625 273.411132812 c 0
 301.775390625 265.84375 315.091796875 243.9140625 316.9140625 218.723632812 c 0
 317.82421875 206.138671875 316.931640625 197.578125 314.5078125 196.083007812 c 0
 312.369140625 194.760742188 310.5703125 191.315429688 310.5703125 188.426757812 c 0
 310.5703125 180.748046875 286.27734375 152.879882812 272.0703125 144.239257812 c 0
 265.333007812 140.141601562 252.958007812 130.787109375 244.5078125 123.458007812 c 0
 236.057617188 116.12890625 223.458007812 108.626953125 216.5078125 106.723632812 c 0
 209.55859375 104.8203125 199.094726562 100.069335938 193.3203125 96.2236328125 c 0
 187.545898438 92.3779296875 180.458007812 87.716796875 177.5703125 85.8330078125 c 0
 169.3828125 80.4912109375 141.696289062 68.1142578125 137.8671875 68.1142578125 c 0
 135.973632812 68.1142578125 131.59765625 65.5625 128.1328125 62.4267578125 c 2
 121.7890625 56.7392578125 l 1
 130.1015625 50.1767578125 l 2
 134.680664062 46.5751953125 140.926757812 43.6142578125 143.9921875 43.6142578125 c 0
 147.057617188 43.6142578125 149.5703125 42.3837890625 149.5703125 40.8798828125 c 0
 149.5703125 36.2294921875 170.224609375 30.087890625 181.1796875 31.4736328125 c 0
 186.900390625 32.1982421875 191.5703125 31.732421875 191.5703125 30.3798828125 c 0
 191.571289062 29.02734375 206.927734375 27.466796875 225.6953125 26.9892578125 c 0
 261.91796875 26.068359375 301.427734375 33.4541015625 324.4609375 45.3642578125 c 0
 352.481445312 59.85546875 366.5703125 58.673828125 366.5703125 41.9736328125 c 0
 366.5703125 34.0087890625 351.920898438 24.1357421875 342.6171875 25.7861328125 c 0
 340.028320312 26.24609375 331.0859375 23.3798828125 322.7109375 19.4423828125 c 0
 314.3359375 15.505859375 300.701171875 11.1923828125 292.4140625 9.9267578125 c 0
 284.127929688 8.662109375 275.282226562 6.0615234375 272.8359375 4.1298828125 c 0
 270.388671875 2.1982421875 262.513671875 0.3369140625 255.3359375 -0.0263671875 c 0
 248.157226562 -0.388671875 227.357421875 -1.599609375 209.0703125 -2.7607421875 c 0
 190.782226562 -3.921875 168.733398438 -3.6064453125 160.0703125 -1.9951171875 c 0
 121.53125 5.17578125 104.4921875 12.888671875 87.0078125 30.9267578125 c 0
 74.6220703125 43.705078125 70.412109375 44.2158203125 45.3359375 36.1767578125 c 0
 36.80078125 33.4404296875 32.50390625 33.576171875 28.7109375 36.7236328125 c 0
 16.615234375 46.7626953125 25.373046875 59.3447265625 54.1953125 73.3642578125 c 0
 62.091796875 77.2060546875 68.4775390625 82.71875 68.4140625 85.6142578125 c 0
 68.232421875 93.955078125 75.2998046875 135.290039062 79.0234375 147.520507812 c 0
 86.236328125 171.212890625 146.348632812 247.76953125 162.5859375 253.942382812 c 0
 167.22265625 255.706054688 176.0390625 260.846679688 182.1640625 265.426757812 c 0
 188.2890625 270.006835938 198.833007812 274.983398438 205.5703125 276.473632812 c 0
 212.955078125 278.107421875 223.84765625 278.954101562 235.3203125 278.989257812 c 0
246.6953125 257.114257812 m 0
 236.21484375 257.114257812 188.530273438 225.985351562 175.3828125 210.520507812 c 0
 155.701171875 187.370117188 151.3125 181.826171875 149.5703125 178.364257812 c 0
 148.599609375 176.4375 141.723632812 165.567382812 134.2578125 154.192382812 c 0
 120.7265625 133.577148438 110.776367188 105.643554688 113.8046875 96.6611328125 c 0
 115.782226562 90.794921875 129.670898438 93.1630859375 156.5703125 103.989257812 c 0
 179.876953125 113.370117188 222.48046875 139.583984375 244.1796875 157.911132812 c 0
 268.43359375 178.395507812 279.0703125 196.733398438 279.0703125 218.176757812 c 0
 279.0703125 236.012695312 277.82421875 238.3828125 260.2578125 252.739257812 c 0
 257.313476562 255.145507812 251.197265625 257.114257812 246.6953125 257.114257812 c 0
EndSplineSet
EndChar

StartChar: f
Encoding: 102 102 27
Width: 407
VWidth: -110
Flags: HW
LayerCount: 2
Fore
SplineSet
334.49609375 453.848632812 m 4
 338.087890625 454.125 343.309570312 451.991210938 353.63671875 447.286132812 c 4
 374.517578125 437.774414062 383.38671875 424.388671875 383.38671875 402.551757812 c 4
 383.38671875 391.399414062 381.478515625 383.560546875 378.13671875 380.786132812 c 4
 374.797851562 378.016601562 373.7109375 373.421875 375.07421875 367.989257812 c 4
 376.471679688 362.421875 375.129882812 357.198242188 371.13671875 352.786132812 c 4
 367.787109375 349.084960938 366.044921875 343.654296875 367.19921875 340.645507812 c 4
 368.473632812 337.327148438 365.948242188 332.276367188 360.85546875 327.848632812 c 4
 356.240234375 323.834960938 351.401367188 316.372070312 350.13671875 311.333007812 c 4
 348.872070312 306.293945312 341.055664062 294.951171875 332.74609375 286.067382812 c 4
 324.436523438 277.18359375 315.16796875 265.3046875 312.18359375 259.708007812 c 4
 309.200195312 254.111328125 299.471679688 243.236328125 290.52734375 235.536132812 c 4
 281.583984375 227.8359375 268.08984375 215.629882812 260.55859375 208.411132812 c 4
 253.02734375 201.192382812 245.944335938 195.286132812 244.80859375 195.286132812 c 4
 243.672851562 195.286132812 236.2734375 189.7734375 228.40234375 183.036132812 c 4
 220.53125 176.298828125 212.341796875 170.786132812 210.13671875 170.786132812 c 4
 204.0078125 170.786132812 192.482421875 156.78515625 184.21484375 139.286132812 c 4
 180.122070312 130.624023438 175.03515625 120.38671875 172.83984375 116.536132812 c 4
 170.645507812 112.686523438 167.473632812 107.173828125 165.83984375 104.286132812 c 4
 164.206054688 101.3984375 161.93359375 96.673828125 160.80859375 93.7861328125 c 4
 156.041015625 81.5478515625 151.33984375 70.7021484375 148.44921875 65.0205078125 c 4
 143.298828125 54.896484375 145.00390625 45.2451171875 152.60546875 41.1767578125 c 4
 163.401367188 35.3994140625 225.212890625 24.1806640625 250.71484375 23.3486328125 c 4
 276.044921875 22.5224609375 302.31640625 26.8974609375 320.38671875 35.0517578125 c 4
 347.14453125 47.126953125 354.573242188 48.2958984375 362.82421875 41.6142578125 c 4
 367.567382812 37.7734375 369.728515625 33.255859375 368.40234375 29.8017578125 c 4
 364.995117188 20.9228515625 330.426757812 6.2861328125 312.83984375 6.2861328125 c 4
 304.266601562 6.2861328125 295.506835938 4.484375 293.26171875 2.2392578125 c 4
 290.467773438 -0.5546875 272.791015625 -1.6396484375 237.37109375 -1.2607421875 c 4
 175.569335938 -0.599609375 168.725585938 -0.205078125 166.27734375 3.3330078125 c 4
 164.256835938 6.25390625 122.014648438 8.8515625 120.01171875 6.1767578125 c 4
 115.33203125 -0.072265625 99.88671875 -33.80859375 99.88671875 -37.7919921875 c 4
 99.88671875 -40.501953125 98.7060546875 -42.7138671875 97.26171875 -42.7138671875 c 4
 95.818359375 -42.7138671875 91.6591796875 -50.0302734375 87.96484375 -59.0107421875 c 4
 84.271484375 -67.9912109375 78.7587890625 -77.9912109375 75.71484375 -81.2138671875 c 4
 72.6708984375 -84.4375 67.509765625 -92.0908203125 64.23046875 -98.1669921875 c 4
 57.029296875 -111.51171875 50.01953125 -112.064453125 38.30859375 -100.354492188 c 4
 27.9560546875 -90.0009765625 28.9736328125 -83.2978515625 44.21484375 -60.9794921875 c 4
 49.83984375 -52.7421875 54.38671875 -44.46875 54.38671875 -42.6044921875 c 4
 54.38671875 -40.740234375 59.69921875 -31.7373046875 66.19921875 -22.5888671875 c 4
 83.8544921875 2.2587890625 89.38671875 14.9541015625 89.38671875 30.5673828125 c 4
 89.38671875 41.73828125 91.2021484375 45.8203125 98.13671875 50.3642578125 c 4
 102.94921875 53.517578125 106.88671875 58.10546875 106.88671875 60.5361328125 c 4
 106.88671875 62.966796875 109.301757812 66.951171875 112.24609375 69.3955078125 c 4
 119.27734375 75.23046875 138.655273438 115.036132812 136.30859375 118.833007812 c 4
 132.627929688 124.7890625 117.059570312 121.515625 100.43359375 111.286132812 c 4
 91.0478515625 105.510742188 81.2333984375 100.786132812 78.55859375 100.786132812 c 4
 75.8837890625 100.786132812 69.5498046875 98.578125 64.55859375 95.9736328125 c 4
 48.9716796875 87.83984375 31.4208984375 85.9921875 26.49609375 91.9267578125 c 4
 24.0888671875 94.8271484375 22.978515625 99.376953125 23.98046875 101.989257812 c 4
 24.982421875 104.6015625 39.6650390625 111.809570312 56.68359375 118.067382812 c 4
 73.7021484375 124.325195312 102.599609375 136.779296875 120.88671875 145.739257812 c 6
 154.13671875 162.036132812 l 5
 172.40234375 198.786132812 l 6
 182.4609375 218.999023438 190.735351562 237.8984375 190.77734375 240.786132812 c 4
 190.875 247.432617188 207.58984375 287.1171875 218.01171875 305.536132812 c 4
 222.369140625 313.236328125 228.385742188 325.048828125 231.46484375 331.786132812 c 4
 234.543945312 338.5234375 239.104492188 346.3984375 241.52734375 349.286132812 c 4
 243.950195312 352.173828125 247.6015625 359.78125 249.73046875 366.129882812 c 4
 257.684570312 389.83984375 308.295898438 447.135742188 319.07421875 444.661132812 c 4
 321.234375 444.165039062 324.969726562 446.123046875 327.38671875 449.036132812 c 4
 329.8671875 452.025390625 331.702148438 453.634765625 334.49609375 453.848632812 c 4
342.15234375 419.067382812 m 4
 339.9375 418.90234375 337.94921875 416.41796875 337.23046875 411.411132812 c 4
 336.396484375 405.59765625 334.06640625 403.795898438 328.26171875 404.411132812 c 4
 323.936523438 404.869140625 320.38671875 403.65625 320.38671875 401.676757812 c 4
 320.38671875 399.697265625 314.240234375 392.2109375 306.71484375 385.051757812 c 4
 297.118164062 375.921875 292.356445312 367.833984375 290.63671875 358.036132812 c 4
 289.288085938 350.353515625 283.809570312 338.471679688 278.49609375 331.676757812 c 4
 273.182617188 324.880859375 265.715820312 313.068359375 261.98046875 305.426757812 c 4
 258.24609375 297.784179688 253.596679688 288.38671875 251.58984375 284.536132812 c 4
 249.583007812 280.686523438 245.130859375 271.236328125 241.74609375 263.536132812 c 4
 238.362304688 255.8359375 233.955078125 246.38671875 231.90234375 242.536132812 c 4
 220.80078125 221.719726562 219.446289062 218.263671875 221.07421875 215.629882812 c 4
 225.624023438 208.268554688 235.87109375 215.28125 266.24609375 246.254882812 c 4
 284.28515625 264.650390625 305.349609375 288.8828125 313.05859375 300.176757812 c 4
 340.58203125 340.499023438 354.780273438 382.834960938 349.58984375 408.786132812 c 4
 348.202148438 415.724609375 345 419.28125 342.15234375 419.067382812 c 4
EndSplineSet
EndChar

StartChar: g
Encoding: 103 103 28
Width: 345
VWidth: -110
Flags: HW
LayerCount: 2
Fore
SplineSet
76.201171875 -104.939453125 m 0
 73.90234375 -102.16796875 70.091796875 -100.640625 67.732421875 -101.545898438 c 0
 65.375 -102.450195312 54.6015625 -95.30859375 43.79296875 -85.6748046875 c 0
 29.892578125 -73.28515625 24.140625 -65.61328125 24.140625 -59.458984375 c 0
 24.140625 -45.359375 30.369140625 -37.21875 41.154296875 -37.21875 c 0
 51.048828125 -37.21875 59.595703125 -44.498046875 70.66796875 -62.3544921875 c 0
 74.25 -68.12890625 80.220703125 -72.1689453125 86.189453125 -72.8544921875 c 0
 91.525390625 -73.4677734375 95.5546875 -75.767578125 95.142578125 -77.9658203125 c 0
 94.72265625 -80.20703125 101.16796875 -82.978515625 109.814453125 -84.2744140625 c 2
 125.236328125 -86.5869140625 l 1
 140.314453125 -76.7783203125 l 2
 148.607421875 -71.3837890625 158.634765625 -63.8193359375 162.59765625 -59.96875 c 0
 171.865234375 -50.966796875 188.607421875 -24.693359375 188.755859375 -18.9189453125 c 0
 188.818359375 -16.4716796875 191.91796875 -5.806640625 195.640625 4.78125 c 0
 202.001953125 22.86328125 204.791015625 43.28125 200.900390625 43.28125 c 0
 199.94140625 43.28125 191.484375 37.7685546875 182.107421875 31.03125 c 0
 172.728515625 24.29296875 162.6796875 18.78125 159.77734375 18.78125 c 0
 156.873046875 18.78125 152.66015625 16.5654296875 150.4140625 13.8583984375 c 0
 145.916015625 8.439453125 109.52734375 3.3095703125 83.341796875 4.4033203125 c 0
 68.427734375 5.025390625 42.873046875 27.751953125 32.55078125 49.5703125 c 2
 23.357421875 69.0048828125 l 1
 25.73046875 93.767578125 l 2
 28.87109375 126.55078125 54.267578125 180.248046875 79.654296875 207.78125 c 0
 89.416015625 218.368164062 97.45703125 228.05859375 97.5234375 229.315429688 c 0
 97.767578125 233.991210938 136.87890625 257.442382812 152.845703125 262.486328125 c 0
 161.9453125 265.361328125 172.1015625 269.17578125 175.416015625 270.963867188 c 0
 183.525390625 275.338867188 215.625 272.310546875 231.51953125 265.669921875 c 0
 250.625 257.686523438 257.359375 242.586914062 244.80859375 235.870117188 c 0
 239.55859375 233.060546875 235.072265625 233.84375 225.451171875 239.247070312 c 0
 208.583984375 248.720703125 182.287109375 248.529296875 163.126953125 238.791992188 c 0
 147.701171875 230.953125 104.640625 189.123046875 104.640625 181.9765625 c 0
 104.640625 179.700195312 101.884765625 173.944335938 98.515625 169.184570312 c 0
 89.796875 156.865234375 82.798828125 137.439453125 72.703125 97.53125 c 0
 68.3359375 80.2734375 71.36328125 58.2001953125 79.5703125 47.4453125 c 0
 88.154296875 36.1953125 108.896484375 31.994140625 132.640625 36.697265625 c 0
 143.228515625 38.79296875 154.25390625 42.3818359375 157.140625 44.6708984375 c 0
 160.029296875 46.9599609375 166.63671875 50.9541015625 171.826171875 53.5458984375 c 0
 183.439453125 59.3486328125 216.998046875 90.8818359375 224.22265625 102.78125 c 0
 227.14453125 107.59375 230.697265625 116.255859375 232.119140625 122.03125 c 0
 233.541015625 127.805664062 239.091796875 144.34375 244.455078125 158.78125 c 0
 249.81640625 173.21875 259.421875 201.568359375 265.798828125 221.78125 c 0
 282.474609375 274.642578125 290.212890625 282.99609375 310.87109375 270.43359375 c 0
 318.404296875 265.852539062 321.642578125 261.180664062 321.642578125 254.892578125 c 0
 321.642578125 243.60546875 304.755859375 182.684570312 300.384765625 178.206054688 c 0
 298.6015625 176.376953125 297.142578125 171.501953125 297.142578125 167.373046875 c 0
 297.142578125 163.244140625 293.9921875 157.014648438 290.142578125 153.53125 c 0
 286.291015625 150.046875 283.142578125 143.010742188 283.142578125 137.895507812 c 0
 283.142578125 132.780273438 279.9921875 122.076171875 276.142578125 114.107421875 c 0
 272.291015625 106.138671875 269.142578125 97.4951171875 269.142578125 94.8994140625 c 0
 269.142578125 92.3046875 267.62890625 88.6669921875 265.779296875 86.818359375 c 0
 263.9296875 84.9677734375 261.70703125 77.9599609375 260.841796875 71.2431640625 c 0
 259.9765625 64.5263671875 257.591796875 54.69921875 255.541015625 49.40625 c 0
 253.4921875 44.1123046875 252.837890625 39.78125 254.087890625 39.78125 c 0
 255.337890625 39.78125 253.2265625 36.2373046875 249.39453125 31.90625 c 0
 245.5625 27.57421875 240.486328125 13.79296875 238.11328125 1.28125 c 0
 234.98046875 -15.244140625 231.453125 -23.4208984375 225.220703125 -28.6005859375 c 0
 220.501953125 -32.5224609375 216.642578125 -37.6416015625 216.642578125 -39.9755859375 c 0
 216.642578125 -42.3095703125 215.06640625 -44.21875 213.142578125 -44.21875 c 0
 211.216796875 -44.21875 209.59765625 -47.7626953125 209.544921875 -52.09375 c 0
 209.431640625 -61.05859375 194.2578125 -77.1611328125 182.517578125 -80.7705078125 c 0
 178.185546875 -82.1015625 174.642578125 -84.65625 174.642578125 -86.4462890625 c 0
 174.642578125 -88.2373046875 166.373046875 -93.791015625 156.267578125 -98.787109375 c 0
 141.91796875 -105.881835938 131.591796875 -108.102539062 109.13671875 -108.924804688 c 0
 87.392578125 -109.720703125 79.36328125 -108.749023438 76.201171875 -104.939453125 c 0
EndSplineSet
EndChar

StartChar: h
Encoding: 104 104 29
Width: 401
VWidth: -110
Flags: HW
LayerCount: 2
Fore
SplineSet
32.998046875 -1.1171875 m 1
 27.8671875 4.01171875 23.671875 9.3544921875 23.671875 10.75390625 c 0
 23.671875 20.8291015625 31.89453125 53.462890625 37.341796875 65.0048828125 c 0
 43.98046875 79.0673828125 55.9453125 108.038085938 63.5546875 128.47265625 c 0
 65.80078125 134.504882812 69.353515625 141.592773438 71.44921875 144.22265625 c 0
 73.544921875 146.852539062 77.2734375 155.3046875 79.734375 163.004882812 c 0
 82.1953125 170.704101562 91.8515625 191.741210938 101.189453125 209.751953125 c 0
 110.529296875 227.762695312 118.171875 244.935546875 118.171875 247.9140625 c 0
 118.171875 250.892578125 121.939453125 261.35546875 126.54296875 271.166992188 c 0
 134.671875 288.485351562 155.515625 344.862304688 159.021484375 359.004882812 c 0
 159.974609375 362.854492188 162.169921875 369.154296875 163.900390625 373.004882812 c 0
 167.427734375 380.853515625 173.392578125 404.340820312 177.265625 425.6328125 c 0
 181.146484375 446.967773438 183.58984375 449.321289062 199.638671875 447.168945312 c 0
 219.83203125 444.459960938 226.814453125 436.115234375 224.294921875 417.701171875 c 0
 223.1796875 409.560546875 221.125 403.60546875 219.728515625 404.469726562 c 0
 218.330078125 405.333007812 212.05078125 389.944335938 205.7734375 370.271484375 c 0
 194.880859375 336.1328125 184.859375 310.01171875 170.30859375 277.821289062 c 0
 163.337890625 262.403320312 161.794921875 252.254882812 166.41796875 252.254882812 c 0
 167.927734375 252.254882812 178.55859375 255.661132812 190.04296875 259.825195312 c 0
 203.65625 264.76171875 219.447265625 267.456054688 235.421875 267.567382812 c 0
 255.865234375 267.709960938 262.89453125 266.111328125 277.8828125 257.915039062 c 0
 307.744140625 241.583984375 321.767578125 215.555664062 318.822265625 181.921875 c 0
 317.91015625 171.517578125 314.12890625 157.049804688 310.41796875 149.771484375 c 0
 306.70703125 142.494140625 303.671875 134.168945312 303.671875 131.2734375 c 0
 303.671875 124.966796875 293.3828125 108.129882812 287.130859375 104.205078125 c 0
 284.677734375 102.666015625 282.671875 97.9287109375 282.671875 93.677734375 c 0
 282.671875 89.4267578125 278.734375 78.5517578125 273.921875 69.51171875 c 0
 269.109375 60.4716796875 265.171875 48.2783203125 265.171875 42.4150390625 c 2
 265.171875 31.7548828125 l 1
 275.671875 31.7548828125 l 2
 281.447265625 31.7548828125 286.171875 30.1796875 286.171875 28.2548828125 c 0
 286.171875 23.107421875 304.0625 24.2255859375 314.171875 30.0048828125 c 0
 318.984375 32.755859375 326.451171875 35.0625 330.765625 35.130859375 c 0
 335.08203125 35.1962890625 340.580078125 38.404296875 342.984375 42.2548828125 c 0
 347.94921875 50.2060546875 362.23046875 51.5234375 371.330078125 44.869140625 c 2
 377.328125 40.4833984375 l 1
 372.875 30.9453125 l 2
 368.44140625 21.451171875 348.498046875 10.484375 326.421875 5.4033203125 c 0
 320.646484375 4.07421875 309.62109375 0.99609375 301.921875 -1.4375 c 0
 294.220703125 -3.8701171875 278.11328125 -5.30859375 266.126953125 -4.6328125 c 0
 241.52734375 -3.2470703125 233.525390625 2.2333984375 226.9296875 22.2197265625 c 0
 222.251953125 36.396484375 226.20703125 57.166015625 239.076171875 86.00390625 c 0
 243.373046875 95.62890625 250.34765625 111.37890625 254.578125 121.00390625 c 0
 258.80859375 130.62890625 265.220703125 144.3359375 268.828125 151.463867188 c 0
 272.435546875 158.590820312 276.34765625 171.978515625 277.5234375 181.213867188 c 2
 279.66015625 198.00390625 l 1
 269.220703125 214.270507812 l 2
 260.57421875 227.743164062 256.453125 230.9296875 245.22265625 232.826171875 c 0
 216.015625 237.76171875 197.40625 236.088867188 179.421875 226.916015625 c 0
 156.03125 214.984375 139.6015625 196.422851562 124.396484375 164.747070312 c 0
 104.71875 123.752929688 81.4609375 57.765625 78.447265625 34.37890625 c 2
 76.3046875 17.75390625 l 1
 82.36328125 17.638671875 l 2
 87.234375 17.544921875 86.705078125 16.1728515625 79.671875 10.640625 c 0
 74.859375 6.85546875 69.01953125 2.1826171875 66.693359375 0.2568359375 c 0
 60.337890625 -5.0068359375 54.150390625 -3.9521484375 56.4375 2.005859375 c 0
 57.6875 5.263671875 56.40234375 7.255859375 53.091796875 7.255859375 c 0
 49.595703125 7.255859375 48.111328125 4.62890625 48.826171875 -0.2939453125 c 0
 50.435546875 -11.38671875 43.62109375 -11.740234375 32.998046875 -1.1162109375 c 1
 32.998046875 -1.1171875 l 1
EndSplineSet
EndChar

StartChar: i
Encoding: 105 105 30
Width: 305
VWidth: -110
Flags: HW
LayerCount: 2
Fore
SplineSet
221.409179688 443.3125 m 0
 226.603515625 443.21875 230.6328125 440.52734375 238.284179688 433.1875 c 2
 250.502929688 421.4375 l 1
 248.534179688 404.15625 l 2
 247.119140625 391.833007812 244.11328125 384.784179688 238.127929688 379.65625 c 0
 233.505859375 375.696289062 228.798828125 369.681640625 227.659179688 366.3125 c 0
 225.025390625 358.525390625 212.540039062 358.56640625 199.846679688 366.40625 c 0
 188.04296875 373.6953125 185.2890625 383.092773438 188.065429688 406.53125 c 0
 190.473632812 426.86328125 199.874023438 439.158203125 215.659179688 442.625 c 0
 217.829101562 443.1015625 219.677734375 443.34375 221.409179688 443.3125 c 0
170.002929688 279.6875 m 0
 177.208007812 279.9375 184.596679688 277.104492188 190.096679688 271.25 c 2
 198.002929688 262.8125 l 1
 196.252929688 242.375 l 2
 193.75390625 213.315429688 188.600585938 189.00390625 183.909179688 184.3125 c 0
 181.693359375 182.096679688 179.877929688 177.831054688 179.877929688 174.8125 c 0
 179.877929688 171.794921875 175.581054688 163.041015625 170.346679688 155.375 c 0
 165.112304688 147.709960938 160.5234375 139.356445312 160.127929688 136.78125 c 0
 159.732421875 134.206054688 156.911132812 129.3515625 153.877929688 126 c 0
 150.844726562 122.6484375 148.377929688 118.084960938 148.377929688 115.875 c 0
 148.377929688 113.665039062 144.440429688 109.278320312 139.627929688 106.125 c 0
 134.815429688 102.971679688 130.877929688 97.4091796875 130.877929688 93.78125 c 0
 130.877929688 90.15234375 129.391601562 87.1875 127.596679688 87.1875 c 0
 121.500976562 87.1875 119.569335938 72.244140625 123.940429688 59 c 0
 127.315429688 48.7734375 132.045898438 43.7421875 145.065429688 36.65625 c 2
 161.877929688 27.53125 l 1
 191.002929688 30.84375 l 2
 207.01953125 32.673828125 227.782226562 35.8544921875 237.159179688 37.90625 c 0
 257.396484375 42.3349609375 281.377929688 39.4072265625 281.377929688 32.5 c 0
 281.377929688 29.8583984375 278.163085938 27.6875 274.252929688 27.6875 c 0
 270.342773438 27.6875 266.236328125 25.3251953125 265.127929688 22.4375 c 0
 264.01953125 19.5498046875 261.08984375 17.1875 258.627929688 17.1875 c 0
 256.166015625 17.1875 249.641601562 14.8447265625 244.127929688 11.96875 c 0
 238.614257812 9.0927734375 230.977539062 6.6708984375 227.127929688 6.59375 c 0
 223.278320312 6.5166015625 213.828125 3.4072265625 206.127929688 -0.3125 c 0
 190.571289062 -7.8271484375 179.877929688 -9.201171875 179.877929688 -3.6875 c 0
 179.877929688 -1.25390625 177.515625 -1.310546875 172.721679688 -3.875 c 0
 168.795898438 -5.9755859375 162.889648438 -7.259765625 159.596679688 -6.71875 c 0
 156.303710938 -6.177734375 151.859375 -6.8134765625 149.721679688 -8.15625 c 0
 147.583984375 -9.5 145.055664062 -9.833984375 144.096679688 -8.875 c 0
 143.137695312 -7.916015625 136.212890625 -6.9287109375 128.721679688 -6.6875 c 0
 113.618164062 -6.2021484375 99.1064453125 1.15625 107.002929688 4.3125 c 0
 109.74609375 5.4091796875 108.784179688 6.2734375 104.627929688 6.4375 c 0
 91.4453125 6.9580078125 67.8779296875 44.328125 67.8779296875 64.71875 c 2
 67.8779296875 73.96875 l 1
 54.7529296875 71.78125 l 2
 30.6826171875 67.78515625 28.5546875 67.90625 24.9091796875 73.5625 c 0
 19.6298828125 81.75390625 31.04296875 95.5029296875 50.9404296875 104.90625 c 0
 81.3447265625 119.275390625 119.96484375 161.547851562 125.877929688 186.9375 c 0
 127.22265625 192.712890625 129.51171875 199.012695312 130.940429688 200.9375 c 0
 132.369140625 202.862304688 136.180664062 217.825195312 139.440429688 234.1875 c 0
 143.250976562 253.314453125 147.995117188 266.749023438 152.721679688 271.8125 c 0
 157.407226562 276.83203125 163.645507812 279.466796875 170.002929688 279.6875 c 0
EndSplineSet
EndChar

StartChar: j
Encoding: 106 106 31
Width: 397
VWidth: -110
Flags: HW
LayerCount: 2
Fore
SplineSet
336.758789062 453.286132812 m 1
 348.352539062 447.504882812 l 2
 357.470703125 442.951171875 360.192382812 439.233398438 361.071289062 430.067382812 c 0
 361.8359375 422.098632812 363.645507812 418.973632812 366.821289062 420.192382812 c 0
 369.7578125 421.319335938 372.135742188 418.534179688 373.258789062 412.661132812 c 0
 374.57421875 405.783203125 372.375 400.384765625 364.852539062 391.817382812 c 0
 359.26171875 385.44921875 354.696289062 378.171875 354.696289062 375.661132812 c 0
 354.696289062 369.860351562 341.260742188 364.083007812 331.446289062 365.661132812 c 0
 320.840820312 367.365234375 312.716796875 377.525390625 310.352539062 392.098632812 c 0
 307.106445312 412.103515625 311.9375 428.49609375 324.883789062 441.442382812 c 2
 336.758789062 453.286132812 l 1
302.790039062 277.067382812 m 0
 313.298828125 277.124023438 327.348632812 270.857421875 330.883789062 263.098632812 c 0
 334.041992188 256.166015625 332.666015625 248.529296875 323.165039062 220.442382812 c 0
 316.798828125 201.622070312 309.559570312 183.073242188 307.102539062 179.223632812 c 0
 304.646484375 175.373046875 300.768554688 164.348632812 298.477539062 154.723632812 c 0
 296.186523438 145.098632812 292.15625 133.736328125 289.508789062 129.473632812 c 0
 286.862304688 125.209960938 284.696289062 119.24609375 284.696289062 116.223632812 c 0
 284.696289062 113.200195312 281.96875 106.563476562 278.633789062 101.473632812 c 0
 275.298828125 96.3828125 273.034179688 88.65234375 273.602539062 84.3173828125 c 0
 274.251953125 79.365234375 272.127929688 75.0888671875 267.883789062 72.8173828125 c 0
 264.16796875 70.828125 260.15234375 64.4091796875 258.977539062 58.5361328125 c 0
 257.802734375 52.662109375 252.98828125 39.611328125 248.258789062 29.5361328125 c 0
 240.137695312 12.2333984375 236.374023438 0.8154296875 234.415039062 -12.5263671875 c 0
 233.9453125 -15.7265625 232.473632812 -19.4375 231.133789062 -20.7763671875 c 0
 229.794921875 -22.1162109375 228.696289062 -26.009765625 228.696289062 -29.4638671875 c 0
 228.696289062 -32.9189453125 225.775390625 -38.5830078125 222.196289062 -42.0263671875 c 0
 218.618164062 -45.470703125 214.653320312 -52.517578125 213.415039062 -57.6826171875 c 0
 212.176757812 -62.8486328125 208.208984375 -67.9970703125 204.571289062 -69.1513671875 c 0
 200.93359375 -70.3056640625 197.124023438 -74.4658203125 196.102539062 -78.3701171875 c 0
 195.081054688 -82.275390625 192.158203125 -85.076171875 189.602539062 -84.6201171875 c 0
 182.583007812 -83.3681640625 157.625976562 -91.189453125 149.821289062 -97.0888671875 c 0
 143.494140625 -101.873046875 106.240234375 -104.9140625 102.290039062 -100.963867188 c 0
 100.795898438 -99.4697265625 79.4765625 -96.3125 67.2275390625 -95.7763671875 c 0
 59.591796875 -95.4404296875 27.3671875 -64.3623046875 24.1650390625 -54.2451171875 c 0
 21.2392578125 -45.0009765625 26.6103515625 -36.8291015625 38.6650390625 -32.2451171875 c 0
 50.9384765625 -27.5791015625 63.080078125 -34.1416015625 71.0400390625 -49.7451171875 c 0
 77.111328125 -61.6455078125 80.9140625 -64.576171875 96.3212890625 -69.1513671875 c 0
 106.293945312 -72.11328125 116.796875 -74.5263671875 119.665039062 -74.5263671875 c 0
 122.533203125 -74.5263671875 127.98828125 -77.283203125 131.790039062 -80.6513671875 c 0
 137.083007812 -85.341796875 139.099609375 -85.7138671875 140.321289062 -82.2138671875 c 0
 141.19921875 -79.7001953125 144.194335938 -75.7626953125 146.977539062 -73.4638671875 c 0
 165.725585938 -57.982421875 173.87890625 -43.7119140625 197.383789062 14.7236328125 c 0
 214.989257812 58.490234375 222.490234375 83.5546875 219.040039062 87.0048828125 c 0
 217.216796875 88.828125 203.369140625 83.5478515625 185.665039062 74.2861328125 c 0
 169.020507812 65.578125 152.720703125 58.4736328125 149.446289062 58.4736328125 c 0
 146.171875 58.4736328125 141.016601562 56.2724609375 137.977539062 53.5986328125 c 0
 129.868164062 46.4619140625 116.696289062 52.400390625 116.696289062 63.1923828125 c 0
 116.696289062 71.7548828125 120.448242188 74.1240234375 166.540039062 94.5361328125 c 0
 186.920898438 103.561523438 229.9765625 139.047851562 241.696289062 156.473632812 c 0
 251.0078125 170.317382812 262.053710938 192.075195312 270.977539062 214.223632812 c 0
 272.529296875 218.073242188 274.85546875 226.735351562 276.165039062 233.473632812 c 0
 279.946289062 252.932617188 288.5 271.876953125 295.102539062 275.411132812 c 0
 297.184570312 276.524414062 299.84765625 277.05078125 302.790039062 277.067382812 c 0
EndSplineSet
EndChar

StartChar: l
Encoding: 108 108 33
Width: 326
VWidth: -110
Flags: HW
LayerCount: 2
Fore
SplineSet
253.09765625 451.083007812 m 0
 266.618164062 450.59765625 285.47265625 439.634765625 285.47265625 432.270507812 c 0
 285.47265625 429.98046875 287.834960938 426.135742188 290.72265625 423.73828125 c 0
 298.423828125 417.34765625 297.4375 387.8515625 288.53515625 358.98828125 c 0
 279.032226562 328.177734375 236.493164062 241.38671875 232.20703125 244.03515625 c 0
 230.448242188 245.123046875 228.123046875 242.610351562 227.06640625 238.567382812 c 0
 226.0078125 234.5234375 223.784179688 231.23828125 222.14453125 231.23828125 c 0
 220.50390625 231.23828125 219.969726562 229.176757812 220.94140625 226.645507812 c 0
 221.912109375 224.11328125 218.713867188 217.693359375 213.83203125 212.42578125 c 0
 208.950195312 207.158203125 204.97265625 201.612304688 204.97265625 200.067382812 c 0
 204.97265625 198.522460938 201.428710938 193.201171875 197.09765625 188.254882812 c 0
 192.765625 183.307617188 182.134765625 171.014648438 173.47265625 160.91015625 c 0
 156.124023438 140.674804688 133.479492188 117.678710938 110.58203125 97.03515625 c 2
 95.70703125 83.5830078125 l 1
 98.22265625 69.03515625 l 2
 99.640625 61.0322265625 100.833007812 52.0625 100.73828125 49.0205078125 c 0
 100.643554688 45.9775390625 104.771484375 38.4521484375 110.03515625 32.28515625 c 2
 119.66015625 21.0205078125 l 1
 149.51953125 20.2548828125 l 2
 170.965820312 19.7109375 181.013671875 20.873046875 185.28515625 24.41015625 c 0
 189.37109375 27.794921875 192.430664062 28.2021484375 194.91015625 25.72265625 c 0
 197.389648438 23.244140625 202.95703125 24.2216796875 212.62890625 28.8955078125 c 0
 220.373046875 32.63671875 228.791015625 34.943359375 231.44140625 33.92578125 c 0
 234.091796875 32.9091796875 237.493164062 34.1357421875 238.98828125 36.66015625 c 0
 242.783203125 43.0732421875 251.206054688 45.4052734375 258.01953125 41.91015625 c 0
 261.814453125 39.9638671875 265.25 40.685546875 268.08203125 44.09765625 c 0
 270.444335938 46.9453125 277.518554688 49.23828125 283.83203125 49.23828125 c 0
 293.560546875 49.23828125 295.887695312 47.533203125 299.14453125 38.1923828125 c 0
 304.11328125 23.9365234375 304.040039062 23.6357421875 297.17578125 26.2705078125 c 0
 293.78515625 27.5712890625 286.15625 25.0126953125 278.80078125 20.1455078125 c 0
 271.880859375 15.5654296875 261.493164062 11.0078125 255.72265625 9.97265625 c 0
 249.952148438 8.9384765625 235.772460938 5.294921875 224.22265625 1.98828125 c 0
 212.671875 -1.3173828125 192.985351562 -5.494140625 180.47265625 -7.3076171875 c 0
 140.279296875 -13.1337890625 123.860351562 -12.4755859375 103.47265625 -4.3544921875 c 0
 80.251953125 4.89453125 66.314453125 19.548828125 60.59765625 40.92578125 c 2
 56.33203125 57.0048828125 l 1
 43.31640625 55.2548828125 l 2
 29.1484375 53.353515625 20.62109375 59.2255859375 24.17578125 68.48828125 c 0
 25.9716796875 73.1689453125 43.666015625 85.849609375 52.50390625 88.8330078125 c 0
 54.318359375 89.4453125 57.0361328125 103.8515625 58.51953125 120.770507812 c 0
 60.0029296875 137.688476562 62.6015625 153.234375 64.31640625 155.442382812 c 0
 66.03125 157.649414062 70.2021484375 170.55078125 73.50390625 183.98828125 c 0
 76.8046875 197.426757812 80.7939453125 210.026367188 82.36328125 211.98828125 c 0
 83.9326171875 213.950195312 86.3310546875 221.000976562 87.72265625 227.73828125 c 0
 89.1142578125 234.4765625 97.263671875 253.375976562 105.87890625 269.73828125 c 0
 114.494140625 286.1015625 128.275390625 312.2890625 136.50390625 327.92578125 c 0
 152.3203125 357.985351562 167.970703125 380.724609375 199.39453125 419.03515625 c 0
 204.34765625 425.07421875 215.547851562 433.333007812 224.22265625 437.41015625 c 0
 232.896484375 441.48828125 239.97265625 446.272460938 239.97265625 448.129882812 c 0
 239.97265625 449.985351562 245.87890625 451.341796875 253.09765625 451.083007812 c 0
260.42578125 409.73828125 m 0
 254.7890625 409.278320312 245.7265625 402.018554688 229.25390625 385.67578125 c 0
 215.924804688 372.453125 204.97265625 359.975585938 204.97265625 357.895507812 c 0
 204.97265625 355.814453125 202.892578125 352.872070312 200.26953125 351.333007812 c 0
 197.646484375 349.79296875 187.936523438 335.1015625 178.72265625 318.73828125 c 0
 169.508789062 302.375976562 159.379882812 285.05078125 156.19140625 280.23828125 c 0
 153.002929688 275.42578125 148.204101562 265.9765625 145.58203125 259.23828125 c 0
 142.958984375 252.500976562 139.538085938 245.294921875 137.92578125 243.16015625 c 0
 136.3125 241.025390625 132.703125 232.36328125 129.94140625 223.91015625 c 0
 127.1796875 215.458007812 120.869140625 196.717773438 115.94140625 182.34765625 c 0
 111.013671875 167.978515625 106.97265625 152.533203125 106.97265625 148.004882812 c 0
 106.97265625 141.0625 108.20703125 140.219726562 114.84765625 142.317382812 c 0
 119.178710938 143.684570312 128.62890625 150.859375 135.84765625 158.28515625 c 0
 143.06640625 165.711914062 148.97265625 173.899414062 148.97265625 176.442382812 c 0
 148.97265625 178.984375 158.352539062 191.802734375 169.75390625 204.98828125 c 0
 181.15625 218.174804688 192.575195312 233.057617188 195.12890625 238.020507812 c 0
 197.681640625 242.982421875 206.80859375 258.8828125 215.47265625 273.34765625 c 0
 224.135742188 287.814453125 234.186523438 306.713867188 237.78515625 315.34765625 c 0
 241.384765625 323.982421875 245.645507812 334.138671875 247.30078125 337.98828125 c 0
 257.7890625 362.391601562 268.458007812 404.549804688 265.01953125 407.98828125 c 0
 263.767578125 409.241210938 262.3046875 409.892578125 260.42578125 409.73828125 c 0
EndSplineSet
EndChar

StartChar: m
Encoding: 109 109 34
Width: 407
VWidth: -110
Flags: HW
LayerCount: 2
Fore
SplineSet
30.7978515625 5.3916015625 m 0
 26.9091796875 10.853515625 23.7275390625 17.091796875 23.7275390625 19.255859375 c 0
 23.7275390625 21.419921875 29.240234375 34.806640625 35.9775390625 49.0048828125 c 0
 42.71484375 63.2021484375 48.2275390625 77.2392578125 48.2275390625 80.1982421875 c 0
 48.2275390625 83.15625 49.59375 86.421875 51.2626953125 87.453125 c 0
 52.931640625 88.4853515625 57.8037109375 100.784179688 62.0888671875 114.78515625 c 0
 75.5517578125 158.772460938 84.5283203125 185.615234375 86.9873046875 189.240234375 c 0
 89.7451171875 193.307617188 85.7158203125 221.185546875 79.2861328125 242.521484375 c 2
 74.8310546875 257.303710938 l 1
 82.8291015625 265.81640625 l 2
 89.603515625 273.028320312 92.4677734375 273.859375 101.555664062 271.252929688 c 0
 117.134765625 266.78515625 126.393554688 255.612304688 123.6328125 244.612304688 c 2
 121.381835938 235.645507812 l 1
 131.1640625 238.100585938 l 2
 136.543945312 239.450195312 147.740234375 246.123046875 156.045898438 252.928710938 c 0
 191.017578125 281.584960938 228.047851562 278.591796875 240.397460938 246.109375 c 0
 242.408203125 240.819335938 245.547851562 236.490234375 247.372070312 236.490234375 c 0
 249.197265625 236.490234375 255.142578125 240.13671875 260.583984375 244.592773438 c 0
 292.2890625 270.5546875 320.051757812 281.887695312 326.477539062 271.490234375 c 0
 327.666992188 269.565429688 332.205078125 267.990234375 336.5625 267.990234375 c 0
 341.97265625 267.990234375 347.455078125 263.452148438 353.856445312 253.676757812 c 0
 359.010742188 245.803710938 363.227539062 237.659179688 363.227539062 235.577148438 c 0
 363.227539062 233.495117188 365.663085938 229.100585938 368.640625 225.811523438 c 2
 374.052734375 219.830078125 l 1
 367.26953125 206.28515625 l 2
 363.5390625 198.8359375 357.650390625 186.046875 354.18359375 177.865234375 c 0
 350.716796875 169.684570312 345.9140625 162.990234375 343.510742188 162.990234375 c 0
 337.014648438 162.990234375 334.099609375 156.317382812 338.354492188 151.189453125 c 0
 341.100585938 147.881835938 338.821289062 140.30078125 329.72265625 122.467773438 c 0
 322.923828125 109.143554688 315.892578125 95.8779296875 314.099609375 92.990234375 c 0
 294.392578125 61.2568359375 287.047851562 44.7783203125 288.717773438 36.04296875 c 0
 290.796875 25.1669921875 304.163085938 19.58984375 312.188476562 26.2509765625 c 0
 315.06640625 28.6396484375 320.995117188 29.3037109375 326.6875 27.875 c 0
 333.557617188 26.150390625 337.482421875 27.052734375 340.384765625 31.0224609375 c 0
 342.623046875 34.0830078125 351.43359375 39.0126953125 359.965820312 41.978515625 c 2
 375.477539062 47.37109375 l 1
 379.899414062 41.447265625 l 2
 382.33203125 38.189453125 383.77734375 33.884765625 383.110351562 31.8818359375 c 0
 380.9453125 25.37109375 330.440429688 2.7060546875 320.616210938 3.8369140625 c 0
 314.958007812 4.48828125 310.501953125 2.9521484375 309.3515625 -0.0478515625 c 0
 307.025390625 -6.1083984375 294.112304688 -6.412109375 276.220703125 -0.828125 c 0
 261.512695312 3.76171875 251.227539062 17.544921875 251.227539062 32.666015625 c 0
 251.227539062 43.8662109375 264.391601562 82.298828125 270.712890625 89.552734375 c 0
 273.258789062 92.474609375 276.280273438 100.194335938 277.427734375 106.708984375 c 0
 278.575195312 113.22265625 282.706054688 121.868164062 286.607421875 125.920898438 c 0
 290.5078125 129.974609375 299.154296875 145.87890625 305.821289062 161.265625 c 0
 312.489257812 176.651367188 319.37890625 192.390625 321.131835938 196.240234375 c 0
 326.979492188 209.080078125 328.5546875 224.67578125 324.958984375 234.1328125 c 0
 322.098632812 241.655273438 319.153320312 243.486328125 309.939453125 243.467773438 c 0
 289.30078125 243.42578125 282.09765625 236.369140625 242.259765625 177.172851562 c 0
 235.202148438 166.685546875 227.287109375 152.036132812 224.669921875 144.619140625 c 0
 222.052734375 137.201171875 217.69921875 126.881835938 214.99609375 121.686523438 c 0
 203.6328125 99.8515625 192.787109375 70.4296875 181.1953125 29.990234375 c 0
 173.62109375 3.5693359375 167.521484375 -5.009765625 156.30859375 -5.009765625 c 0
 138.170898438 -5.009765625 133.53515625 24.4794921875 147.500976562 51.0185546875 c 0
 152.051757812 59.666015625 156.818359375 72.48828125 158.09375 79.513671875 c 0
 159.369140625 86.5390625 162.692382812 94.1787109375 165.477539062 96.490234375 c 0
 168.263671875 98.802734375 171.563476562 106.133789062 172.809570312 112.782226562 c 0
 174.057617188 119.431640625 183.548828125 141.54296875 193.903320312 161.919921875 c 0
 208.69140625 191.025390625 212.727539062 202.47265625 212.727539062 215.310546875 c 0
 212.727539062 249.198242188 192.694335938 254.193359375 163.232421875 227.651367188 c 0
 151.859375 217.40625 132.227539062 190.393554688 132.227539062 184.991210938 c 0
 132.227539062 183.533203125 128.474609375 174.443359375 123.88671875 164.791015625 c 0
 119.299804688 155.138671875 113.158203125 140.940429688 110.240234375 133.240234375 c 0
 107.321289062 125.541015625 101.625 110.76171875 97.580078125 100.3984375 c 0
 93.5361328125 90.0361328125 90.2275390625 79.349609375 90.2275390625 76.6513671875 c 0
 90.2275390625 73.9521484375 88.0419921875 68.255859375 85.37109375 63.9921875 c 0
 82.7001953125 59.7294921875 78.5712890625 47.578125 76.1943359375 36.990234375 c 0
 69.9169921875 9.02734375 61.2021484375 -3.8740234375 48.3427734375 -4.2392578125 c 0
 40.6357421875 -4.4599609375 36 -1.9130859375 30.7978515625 5.3916015625 c 0
EndSplineSet
EndChar

StartChar: y
Encoding: 121 121 35
Width: 370
VWidth: -110
Flags: HW
LayerCount: 2
Fore
SplineSet
64.0927734375 -88.94140625 m 0
 37.17578125 -75.1396484375 32.4990234375 -70.4541015625 25.0068359375 -49.7685546875 c 0
 22.1201171875 -41.802734375 22.7294921875 -38.84765625 28.43359375 -33.1435546875 c 0
 38.7841796875 -22.79296875 54.873046875 -24.072265625 62.23828125 -35.83203125 c 0
 71.6240234375 -50.818359375 81.7890625 -59.482421875 88.6240234375 -58.32421875 c 0
 93.0166015625 -57.5810546875 94.87109375 -59.5078125 94.87109375 -64.814453125 c 0
 94.87109375 -69.41796875 97.6015625 -73.076171875 101.87109375 -74.1923828125 c 0
 105.721679688 -75.19921875 108.87109375 -77.4140625 108.87109375 -79.1142578125 c 0
 108.87109375 -80.8154296875 112.759765625 -82.20703125 117.51171875 -82.20703125 c 0
 123.75390625 -82.20703125 125.592773438 -83.6640625 124.13671875 -87.45703125 c 0
 121.2578125 -94.9609375 127.670898438 -93.939453125 135.12109375 -85.70703125 c 0
 142.541015625 -77.5078125 152.573242188 -76.2216796875 149.6484375 -83.8447265625 c 0
 148.563476562 -86.6708984375 149.041015625 -89.8251953125 150.708007812 -90.85546875 c 0
 155.314453125 -93.7021484375 164.87109375 -89.046875 164.87109375 -83.95703125 c 0
 164.87109375 -81.4814453125 167.233398438 -78.548828125 170.12109375 -77.44140625 c 0
 173.008789062 -76.3330078125 175.37109375 -73.0146484375 175.37109375 -70.06640625 c 0
 175.37109375 -67.1181640625 177.052734375 -64.70703125 179.107421875 -64.70703125 c 0
 181.250976562 -64.70703125 181.895507812 -67.69140625 180.62109375 -71.70703125 c 0
 179.346679688 -75.7216796875 179.9921875 -78.70703125 182.135742188 -78.70703125 c 0
 184.190429688 -78.70703125 185.87109375 -75.388671875 185.87109375 -71.33203125 c 0
 185.87109375 -66.21484375 187.478515625 -64.57421875 191.12109375 -65.97265625 c 0
 194.319335938 -67.19921875 196.37109375 -65.97265625 196.37109375 -62.8466796875 c 0
 196.37109375 -60.01953125 194.796875 -57.70703125 192.87109375 -57.70703125 c 0
 190.946289062 -57.70703125 189.37109375 -55.34375 189.37109375 -52.45703125 c 0
 189.37109375 -49.5693359375 190.643554688 -47.20703125 192.197265625 -47.20703125 c 0
 195.135742188 -47.20703125 204.427734375 -27.408203125 208.625976562 -12.20703125 c 0
 209.954101562 -7.39453125 215.643554688 6.1748046875 221.268554688 17.9462890625 c 0
 228.62109375 33.3369140625 230.702148438 41.4931640625 228.672851562 46.978515625 c 2
 225.8515625 54.6064453125 l 1
 215.486328125 44.046875 l 2
 209.78515625 38.2392578125 202.119140625 33.4443359375 198.451171875 33.390625 c 0
 194.783203125 33.337890625 186.903320312 29.572265625 180.94140625 25.0244140625 c 0
 161.606445312 10.27734375 138.779296875 2.1162109375 110.201171875 -0.2666015625 c 2
 82.62109375 -2.56640625 l 1
 65.962890625 5.2646484375 l 2
 48.79296875 13.3369140625 48.14453125 14.4580078125 44.3330078125 42.7119140625 c 0
 42.0625 59.546875 56.3115234375 109.9140625 67.296875 123.87890625 c 0
 70.912109375 128.475585938 73.8740234375 134.78125 73.87890625 137.890625 c 0
 73.87890625 141 78.390625 152.206054688 83.896484375 162.79296875 c 0
 89.4013671875 173.380859375 96.6162109375 191.493164062 99.9296875 203.04296875 c 0
 103.2421875 214.59375 107.265625 226.568359375 108.870117188 229.654296875 c 0
 110.475585938 232.740234375 112.90234375 242.697265625 114.264648438 251.78125 c 0
 116.229492188 264.88671875 118.506835938 268.96875 125.284179688 271.545898438 c 0
 139.329101562 276.885742188 150.127929688 275.2890625 155.922851562 267.014648438 c 0
 163.260742188 256.538085938 162.779296875 244.0234375 154.370117188 226.618164062 c 0
 150.51953125 218.6484375 145.029296875 203.14453125 142.169921875 192.166015625 c 0
 139.310546875 181.1875 134.5859375 169.569335938 131.670898438 166.348632812 c 0
 128.756835938 163.126953125 126.37109375 159.40234375 126.37109375 158.071289062 c 0
 126.37109375 156.739257812 120.249023438 142.688476562 112.767578125 126.846679688 c 0
 79.10546875 55.5751953125 77.94140625 51.583984375 86.5537109375 37.0048828125 c 0
 90.03515625 31.1083984375 95.3017578125 25.630859375 98.25390625 24.8310546875 c 0
 105.336914062 22.9130859375 118.609375 24.365234375 121.633789062 27.388671875 c 0
 122.955078125 28.7109375 127.58203125 29.79296875 131.913085938 29.79296875 c 0
 136.245117188 29.79296875 150.552734375 35.4609375 163.705078125 42.3876953125 c 0
 208.078125 65.755859375 237.947265625 88.1572265625 250.232421875 107.278320312 c 0
 257.461914062 118.53125 278.553710938 183.354492188 281.998046875 204.908203125 c 0
 283.372070312 213.5078125 286.55859375 226.84375 289.079101562 234.54296875 c 0
 291.599609375 242.243164062 295.456054688 255.237304688 297.651367188 263.41796875 c 2
 301.641601562 278.29296875 l 1
 315.358398438 278.29296875 l 1
 329.076171875 278.29296875 l 1
 337.879882812 263.272460938 l 1
 346.682617188 248.250976562 l 1
 338.155273438 227.397460938 l 2
 333.465820312 215.927734375 328.674804688 199.456054688 327.509765625 190.79296875 c 0
 326.344726562 182.130859375 323.956054688 171.893554688 322.203125 168.04296875 c 0
 320.450195312 164.193359375 317.447265625 156.711914062 315.530273438 151.41796875 c 0
 313.612304688 146.125 310.60546875 141.79296875 308.84765625 141.79296875 c 0
 307.088867188 141.79296875 304.547851562 135.915039062 303.19921875 128.73046875 c 0
 301.8515625 121.545898438 297.73828125 109.4375 294.060546875 101.823242188 c 0
 290.381835938 94.2080078125 287.37109375 86.5986328125 287.37109375 84.912109375 c 0
 287.37109375 83.224609375 283.40625 73.1767578125 278.560546875 62.5830078125 c 0
 273.71484375 51.9892578125 270.547851562 42.03125 271.522460938 40.4541015625 c 0
 272.49609375 38.876953125 270.948242188 35.6396484375 268.08203125 33.26171875 c 0
 265.216796875 30.8828125 262.801757812 25.5849609375 262.716796875 21.490234375 c 0
 262.419921875 7.2001953125 254.0625 -17.7412109375 246.24609375 -27.658203125 c 0
 241.9140625 -33.154296875 238.37109375 -41.1943359375 238.37109375 -45.5263671875 c 0
 238.37109375 -50.2421875 234.536132812 -55.9140625 228.813476562 -59.6640625 c 0
 223.556640625 -63.1083984375 216.862304688 -68.6181640625 213.938476562 -71.90625 c 0
 199.245117188 -88.4306640625 154.008789062 -103.20703125 118.110351562 -103.20703125 c 2
 91.9150390625 -103.20703125 l 1
 64.0927734375 -88.94140625 l 0
EndSplineSet
EndChar

StartChar: u
Encoding: 117 117 36
Width: 376
VWidth: -109
Flags: HW
LayerCount: 2
Fore
SplineSet
62.23046875 -0.29296875 m 0
 61.4169921875 1.0234375 56.0654296875 3.0380859375 50.3369140625 4.18359375 c 0
 41.884765625 5.8740234375 38.169921875 9.97265625 30.609375 25.9560546875 c 0
 18.087890625 52.4228515625 20.4228515625 64.744140625 50.5947265625 131.420898438 c 0
 55.98828125 143.337890625 62.296875 160.619140625 64.615234375 169.825195312 c 0
 66.931640625 179.030273438 70.9072265625 190.54296875 73.4462890625 195.408203125 c 0
 75.9853515625 200.2734375 78.140625 212.916992188 78.2373046875 223.50390625 c 0
 78.60546875 264.232421875 86.7822265625 282.7890625 104.356445312 282.776367188 c 0
 115.77734375 282.776367188 128.201171875 270.05859375 127.87890625 258.711914062 c 0
 127.2890625 237.979492188 115.250976562 186.166992188 107.32421875 170.24609375 c 0
 102.803710938 161.166015625 99.1064453125 149.747070312 99.1064453125 144.87109375 c 0
 99.1064453125 139.994140625 97.53125 136.004882812 95.6064453125 136.004882812 c 0
 93.6806640625 136.004882812 92.1064453125 132.259765625 92.1064453125 127.682617188 c 0
 92.1064453125 123.106445312 89.7431640625 117.400390625 86.8564453125 115.004882812 c 0
 83.9677734375 112.608398438 81.6064453125 108.657226562 81.6064453125 106.225585938 c 0
 81.6064453125 103.793945312 79.32421875 97.40625 76.53515625 92.0302734375 c 0
 73.74609375 86.654296875 72.244140625 80.994140625 73.197265625 79.453125 c 0
 74.150390625 77.9111328125 73.025390625 73.087890625 70.6943359375 68.734375 c 0
 62.615234375 53.6396484375 64.125 45.712890625 77.28125 34.1611328125 c 2
 89.822265625 23.150390625 l 1
 112.838867188 24.80078125 l 2
 130.154296875 26.041015625 140.624023438 29.1630859375 155.106445312 37.40234375 c 0
 188.806640625 56.5771484375 205.760742188 75.0185546875 221.701171875 109.841796875 c 0
 229.609375 127.118164062 237.7578125 144.693359375 239.810546875 148.896484375 c 0
 241.861328125 153.099609375 243.830078125 159.399414062 244.186523438 162.896484375 c 0
 244.541992188 166.393554688 246.694335938 173.688476562 248.96875 179.107421875 c 0
 251.244140625 184.526367188 253.106445312 191.126953125 253.106445312 193.775390625 c 0
 253.106445312 196.423828125 254.515625 199.462890625 256.240234375 200.528320312 c 0
 257.963867188 201.59375 261.25 216.255859375 263.541015625 233.110351562 c 0
 269.490234375 276.86328125 270.43359375 278.54296875 289.258789062 278.920898438 c 0
 306.836914062 279.2734375 310.322265625 276.458007812 315.416015625 257.788085938 c 0
 318.161132812 247.727539062 317.880859375 243.9296875 314.16796875 240.848632812 c 0
 311.536132812 238.6640625 308.33984375 227.663085938 307.06640625 216.400390625 c 0
 305.564453125 203.127929688 302.913085938 195.220703125 299.530273438 193.921875 c 0
 296.193359375 192.641601562 295.013671875 189.232421875 296.259765625 184.467773438 c 0
 297.501953125 179.71875 295.225585938 173.0703125 289.98046875 166.135742188 c 0
 285.454101562 160.151367188 280.0703125 148.954101562 278.014648438 141.25390625 c 0
 275.959960938 133.5546875 272.102539062 124.104492188 269.44140625 120.25390625 c 0
 266.779296875 116.404296875 262.655273438 107.272460938 260.27734375 99.9609375 c 0
 257.8984375 92.6494140625 253.23046875 83.9873046875 249.904296875 80.7109375 c 0
 241.841796875 72.7705078125 231.383789062 43.9580078125 234.045898438 37.0205078125 c 0
 235.212890625 33.98046875 240.940429688 29.830078125 246.7734375 27.7958984375 c 0
 260.842773438 22.8916015625 283.45703125 28.466796875 310.96484375 43.62109375 c 0
 331.872070312 55.138671875 345.734375 56.373046875 351.736328125 47.25 c 0
 354.7265625 42.70703125 348.708984375 31.00390625 343.3828125 31.00390625 c 0
 341.196289062 31.00390625 336.920898438 28.9033203125 333.880859375 26.3359375 c 0
 321.826171875 16.1494140625 262.819335938 -0.0966796875 233.672851562 -1.2548828125 c 0
 220.287109375 -1.787109375 213.364257812 -0.087890625 205.1875 5.734375 c 0
 199.245117188 9.96484375 193.390625 17.3818359375 192.177734375 22.2158203125 c 0
 189.942382812 31.1240234375 181.877929688 34.0126953125 177.775390625 27.3740234375 c 0
 175.190429688 23.19140625 141.9296875 6.2080078125 134.106445312 5.076171875 c 0
 131.217773438 4.658203125 123.342773438 3.263671875 116.606445312 1.9775390625 c 0
 98.0205078125 -1.5712890625 63.9013671875 -2.9951171875 62.23046875 -0.29296875 c 0
EndSplineSet
EndChar

StartChar: n
Encoding: 110 110 37
Width: 374
VWidth: -110
Flags: HW
LayerCount: 2
Fore
SplineSet
28.75390625 2.2802734375 m 0
 25.7568359375 6.55859375 23.3046875 12.0546875 23.3046875 14.4931640625 c 0
 23.3046875 26.1015625 68.9189453125 128.49609375 76.0556640625 132.90625 c 0
 77.8427734375 134.010742188 79.3046875 138.408203125 79.3046875 142.678710938 c 0
 79.3046875 146.950195312 81.326171875 153.55078125 83.796875 157.34765625 c 0
 94.98046875 174.5390625 104.385742188 226.065429688 97.1552734375 230.534179688 c 0
 90.41015625 234.703125 92.900390625 251.900390625 101.40625 259.891601562 c 0
 112.913085938 270.701171875 128.315429688 269.776367188 140.008789062 257.571289062 c 0
 145.5078125 251.83203125 148.670898438 245.421875 147.504882812 242.381835938 c 0
 146.39453125 239.489257812 147.540039062 235.420898438 150.04296875 233.340820312 c 0
 153.466796875 230.5 160.249023438 233.340820312 177.327148438 244.733398438 c 0
 193.258789062 255.369140625 204.764648438 260.370117188 215.8046875 261.458007812 c 0
 224.467773438 262.311523438 234.337890625 264.19921875 237.73828125 265.65234375 c 0
 241.139648438 267.106445312 248.2265625 267.258789062 253.48828125 265.9921875 c 0
 258.75 264.725585938 269.006835938 262.387695312 276.280273438 260.796875 c 0
 290.290039062 257.733398438 303.3046875 248.265625 303.3046875 241.138671875 c 0
 303.3046875 238.784179688 305.803710938 234.786132812 308.856445312 232.251953125 c 0
 312.474609375 229.249023438 313.759765625 224.401367188 312.545898438 218.333007812 c 0
 311.522460938 213.212890625 312.280273438 207.427734375 314.228515625 205.478515625 c 0
 320.637695312 199.069335938 297.873046875 132.700195312 287.122070312 126.453125 c 0
 284.47265625 124.9140625 282.3046875 119.943359375 282.3046875 115.409179688 c 0
 282.3046875 110.874023438 279.267578125 101.108398438 275.555664062 93.7080078125 c 0
 271.842773438 86.306640625 264.731445312 70.953125 259.750976562 59.5869140625 c 2
 250.697265625 38.921875 l 1
 256.83203125 32.1435546875 l 1
 262.966796875 25.3642578125 l 1
 285.760742188 27.7939453125 l 2
 298.297851562 29.1298828125 316.390625 33.193359375 325.966796875 36.8251953125 c 0
 340.334960938 42.2734375 344.182617188 42.625 347.970703125 38.8359375 c 0
 353.383789062 33.423828125 350.180664062 22.501953125 343.180664062 22.501953125 c 0
 340.499023438 22.501953125 338.3046875 21.2666015625 338.3046875 19.7568359375 c 0
 338.3046875 15.0595703125 318.423828125 5.001953125 309.139648438 5.001953125 c 0
 304.28125 5.001953125 298.018554688 2.7158203125 295.223632812 -0.0791015625 c 0
 288.518554688 -6.7841796875 243.823242188 -4.46484375 232.131835938 3.1953125 c 0
 224.006835938 8.51953125 215.8046875 28.49609375 215.8046875 42.9619140625 c 0
 215.8046875 51.0625 224.01171875 74.90625 231.837890625 89.5419921875 c 0
 234.569335938 94.6513671875 236.8046875 100.739257812 236.8046875 103.0703125 c 0
 236.8046875 105.40234375 242.302734375 119.048828125 249.021484375 133.396484375 c 0
 279 197.41015625 275.55078125 234.466796875 239.235351562 238.560546875 c 0
 213.646484375 241.444335938 187.025390625 229.619140625 166.971679688 206.458984375 c 0
 162.069335938 200.797851562 154.59765625 192.922851562 150.369140625 188.958984375 c 0
 139.5390625 178.80859375 96.8046875 92.037109375 96.8046875 80.197265625 c 0
 96.8046875 76.6884765625 92.02734375 65.3515625 86.1875 55.0048828125 c 0
 80.34765625 44.6572265625 75.9921875 34.2919921875 76.5078125 31.9716796875 c 0
 78.341796875 23.7294921875 68.359375 6.248046875 58.4912109375 0.4189453125 c 0
 44.8876953125 -7.6171875 35.2646484375 -7.0146484375 28.75390625 2.2802734375 c 0
EndSplineSet
EndChar

StartChar: o
Encoding: 111 111 38
Width: 306
VWidth: -110
Flags: HW
LayerCount: 2
Fore
SplineSet
105.067382812 -4.900390625 m 0
 74.7294921875 2.7568359375 58.4326171875 13.7021484375 42.12890625 37.3759765625 c 2
 29.0595703125 56.3505859375 l 1
 25.44921875 88.6884765625 l 2
 22.4052734375 115.950195312 22.7470703125 124.150390625 27.625 140.928710938 c 0
 44.7490234375 199.8359375 78.3603515625 243.7109375 124.662109375 267.600585938 c 0
 149.23046875 280.276367188 180.326171875 288.649414062 203.131835938 288.727539062 c 0
 212.509765625 288.762695312 221.756835938 280.021484375 221.756835938 271.127929688 c 0
 221.756835938 261.081054688 208.348632812 255.751953125 185.666992188 256.784179688 c 2
 165.328125 257.708984375 l 1
 148.30078125 246.783203125 l 2
 128.979492188 234.384765625 111.669921875 214.208007812 99.4833984375 189.879882812 c 0
 94.9033203125 180.735351562 90.1728515625 173.254882812 88.970703125 173.254882812 c 0
 86.1923828125 173.254882812 79.9189453125 150.880859375 73.26953125 117.254882812 c 0
 69.3779296875 97.5771484375 68.98046875 87.4990234375 71.6806640625 77.0048828125 c 0
 73.662109375 69.3046875 75.255859375 60.1630859375 75.2236328125 56.69140625 c 0
 75.1884765625 53.2197265625 77.8271484375 49.3564453125 81.083984375 48.1064453125 c 0
 84.33984375 46.857421875 93.080078125 39.99609375 100.506835938 32.8603515625 c 2
 114.008789062 19.88671875 l 1
 139.21484375 20.7275390625 l 2
 156.413085938 21.3017578125 168.143554688 23.703125 176.143554688 28.2861328125 c 0
 190.315429688 36.40625 213.754882812 58.4384765625 226.396484375 75.5205078125 c 0
 240.059570312 93.9833984375 249.903320312 128.444335938 250.28515625 159.149414062 c 0
 250.748046875 196.369140625 240.688476562 217.256835938 219.139648438 223.82421875 c 0
 208.41796875 227.090820312 205.145507812 241.568359375 213.134765625 250.395507812 c 0
 216.547851562 254.16796875 221.52734375 257.254882812 224.19921875 257.254882812 c 0
 233.478515625 257.254882812 267.28515625 228.668945312 269.236328125 219.172851562 c 0
 270.272460938 214.129882812 273.6953125 204.799804688 276.842773438 198.438476562 c 0
 285.37890625 181.18359375 283.974609375 121.108398438 274.630859375 103.856445312 c 0
 272.203125 99.3740234375 271.038085938 93.568359375 272.041992188 90.9541015625 c 0
 273.044921875 88.33984375 270.803710938 82.30859375 267.060546875 77.55078125 c 0
 263.318359375 72.79296875 260.256835938 67.3701171875 260.256835938 65.5 c 0
 260.256835938 63.6298828125 250.251953125 51.8955078125 238.0234375 39.4248046875 c 0
 198.5546875 -0.828125 151.325195312 -16.57421875 105.067382812 -4.900390625 c 0
EndSplineSet
EndChar

StartChar: p
Encoding: 112 112 39
Width: 385
VWidth: -110
Flags: HW
LayerCount: 2
Fore
SplineSet
29.8173828125 -95.8671875 m 0
 26.44921875 -91.130859375 23.6923828125 -85.69921875 23.6923828125 -83.794921875 c 0
 23.6923828125 -81.8916015625 29.365234375 -68.0126953125 36.296875 -52.953125 c 0
 43.2294921875 -37.89453125 52.775390625 -16.9111328125 57.5107421875 -6.3232421875 c 0
 62.24609375 4.2646484375 67.4951171875 15.2890625 69.17578125 18.1767578125 c 0
 80.91796875 38.3505859375 111.193359375 103.75390625 111.193359375 108.947265625 c 0
 111.193359375 112.452148438 113.389648438 117.143554688 116.076171875 119.373046875 c 0
 118.762695312 121.602539062 122.033203125 129.145507812 123.344726562 136.134765625 c 0
 124.65625 143.125 129.75 159.212890625 134.666015625 171.885742188 c 0
 139.581054688 184.55859375 144.81640625 198.077148438 146.297851562 201.926757812 c 0
 149.405273438 209.998046875 158.881835938 242.856445312 162.232421875 257.173828125 c 0
 163.573242188 262.904296875 168.575195312 269.022460938 174.372070312 272.01953125 c 2
 184.231445312 277.118164062 l 1
 190.586914062 269.107421875 l 2
 200.89453125 256.116210938 204.743164062 255.419921875 222.27734375 263.370117188 c 0
 231.443359375 267.526367188 249.579101562 271.7578125 262.579101562 272.772460938 c 0
 290.192382812 274.9296875 311.53125 268.373046875 330.17578125 252.001953125 c 0
 350.143554688 234.470703125 355.5859375 222.234375 357.580078125 190.390625 c 0
 358.575195312 174.5 360.185546875 160.2109375 361.158203125 158.63671875 c 0
 362.130859375 157.0625 358.247070312 147.258789062 352.52734375 136.850585938 c 0
 346.806640625 126.442382812 341.170898438 115.170898438 340.001953125 111.801757812 c 0
 338.833007812 108.43359375 336.84375 105.676757812 335.583007812 105.676757812 c 0
 334.322265625 105.676757812 325.5703125 98.5888671875 316.134765625 89.9267578125 c 0
 306.700195312 81.2646484375 297.169921875 74.1767578125 294.958007812 74.1767578125 c 0
 287.81640625 74.1767578125 252.927734375 53.7255859375 244.173828125 44.4072265625 c 0
 237.427734375 37.2265625 236.462890625 34.1318359375 239.490234375 29.39453125 c 0
 242.584960938 24.5498046875 248.817382812 23.4267578125 272.622070312 23.4267578125 c 2
 301.943359375 23.4267578125 l 1
 301.943359375 16.5390625 l 2
 301.943359375 11.5390625 298.103515625 8.4951171875 287.943359375 5.4326171875 c 0
 265.04296875 -1.466796875 240.744140625 -0.228515625 225.09375 8.6357421875 c 0
 213.994140625 14.9228515625 210.677734375 19.2099609375 208.38671875 30.234375 c 2
 205.529296875 43.98828125 l 1
 215.56640625 56.45703125 l 2
 221.0859375 63.3154296875 238.162109375 76.0146484375 253.512695312 84.6767578125 c 0
 291.383789062 106.047851562 308.66015625 123.857421875 315.99609375 149.092773438 c 0
 324.318359375 177.71875 318.618164062 216.198242188 303.6484375 232.459960938 c 0
 296.077148438 240.684570312 273.0703125 248.096679688 258.193359375 247.10546875 c 0
 231.505859375 245.328125 191.693359375 220.267578125 191.693359375 205.247070312 c 0
 191.693359375 202.779296875 190.510742188 200.235351562 189.068359375 199.59375 c 0
 183.926757812 197.30859375 170.693359375 164.811523438 170.693359375 154.473632812 c 0
 170.693359375 148.354492188 168.497070312 143.115234375 165.443359375 141.942382812 c 0
 162.5546875 140.833984375 160.193359375 137.2421875 160.193359375 133.959960938 c 0
 160.193359375 130.677734375 157.04296875 121.471679688 153.193359375 113.502929688 c 0
 149.342773438 105.53515625 146.193359375 96.953125 146.193359375 94.43359375 c 0
 146.193359375 91.9140625 139.10546875 75.267578125 130.443359375 57.44140625 c 0
 121.780273438 39.615234375 114.693359375 23.2568359375 114.693359375 21.0908203125 c 0
 114.693359375 18.923828125 109.421875 9.11328125 102.978515625 -0.7109375 c 0
 89.640625 -21.05078125 83.193359375 -37.8779296875 83.193359375 -52.345703125 c 0
 83.193359375 -57.8330078125 81.8701171875 -62.3232421875 80.2529296875 -62.3232421875 c 0
 78.6357421875 -62.3232421875 75.2412109375 -68.6005859375 72.708984375 -76.2724609375 c 0
 67.201171875 -92.962890625 60.0244140625 -100.095703125 46.212890625 -102.608398438 c 0
 38.0693359375 -104.090820312 34.673828125 -102.692382812 29.8173828125 -95.8671875 c 0
EndSplineSet
EndChar

StartChar: q
Encoding: 113 113 40
Width: 365
VWidth: -110
Flags: HW
LayerCount: 2
Fore
SplineSet
170.14453125 -92.6484375 m 0
 163.876953125 -85.978515625 162.55078125 -81.6220703125 164.227539062 -73.2333984375 c 0
 166.462890625 -62.056640625 183.950195312 -19.0546875 192.909179688 -2.705078125 c 0
 202.045898438 13.96875 197.12109375 28.1787109375 185.575195312 18.4541015625 c 0
 177.3984375 11.56640625 141.916992188 0.30078125 123.116210938 -1.37890625 c 0
 98.6181640625 -3.56640625 79.4228515625 1.4912109375 65.021484375 13.9287109375 c 0
 59.2421875 18.9208984375 50.625 25.7939453125 45.8740234375 29.2041015625 c 0
 28.619140625 41.5869140625 16.291015625 105.545898438 28.138671875 121.2109375 c 0
 30.96484375 124.947265625 33.353515625 131.154296875 33.4462890625 135.004882812 c 0
 33.5361328125 138.854492188 37.4189453125 148.3046875 42.0693359375 156.004882812 c 0
 46.7197265625 163.704101562 53.0771484375 174.921875 56.1982421875 180.932617188 c 0
 69.8154296875 207.154296875 127.158203125 263.5390625 144.647460938 267.903320312 c 0
 149.9296875 269.221679688 156.90234375 272.689453125 160.143554688 275.610351562 c 0
 164.159179688 279.227539062 173.677734375 280.967773438 190.008789062 281.0703125 c 0
 215.109375 281.228515625 230.352539062 275.90234375 244.072265625 262.182617188 c 0
 250.0390625 256.21484375 250.619140625 253.55078125 247.4609375 246.618164062 c 0
 242.817382812 236.42578125 236.705078125 236.098632812 221.708984375 245.241210938 c 0
 207.365234375 253.987304688 181.822265625 254.504882812 169.903320312 246.291015625 c 0
 148.208984375 231.33984375 104.649414062 187.889648438 101.54296875 178.1015625 c 0
 100.434570312 174.610351562 98.10546875 171.754882812 96.3662109375 171.754882812 c 0
 88.5615234375 171.754882812 64.6748046875 102.848632812 66.6416015625 86.0048828125 c 0
 69.3876953125 62.4755859375 73.6494140625 52.03125 84.333984375 42.6494140625 c 0
 101.786132812 27.3271484375 118.040039062 23.03515625 137.92578125 28.498046875 c 0
 163.981445312 35.6552734375 179.0703125 44.9873046875 204.6796875 69.78515625 c 2
 228.659179688 93.0048828125 l 1
 238.467773438 124.337890625 l 2
 243.861328125 141.5703125 248.4609375 158.211914062 248.690429688 161.318359375 c 0
 248.916992188 164.424804688 252.294921875 171.587890625 256.192382812 177.235351562 c 0
 260.088867188 182.883789062 265.4296875 193.016601562 268.05859375 199.754882812 c 0
 273.716796875 214.252929688 302.26953125 269.599609375 307.331054688 275.879882812 c 0
 312.157226562 281.868164062 324.346679688 281.372070312 333.721679688 274.805664062 c 0
 342.568359375 268.609375 344.418945312 250.799804688 336.684570312 246.303710938 c 0
 334.036132812 244.763671875 327.65234375 235.629882812 322.49609375 226.004882812 c 0
 317.342773438 216.379882812 311.84765625 206.141601562 310.286132812 203.254882812 c 0
 301.288085938 186.609375 288.909179688 157.96484375 289.625976562 155.446289062 c 0
 290.815429688 151.266601562 273.833007812 115.754882812 270.645507812 115.754882812 c 0
 269.190429688 115.754882812 268 111.8515625 268 107.08203125 c 0
 268 102.3125 264.23828125 90.10546875 259.640625 79.95703125 c 0
 248.560546875 55.4990234375 242.337890625 35.2490234375 245.067382812 32.5205078125 c 0
 246.282226562 31.3056640625 252.333007812 32.892578125 258.513671875 36.0478515625 c 0
 276.052734375 45.0009765625 315.486328125 57.0576171875 322.71875 55.6787109375 c 0
 326.310546875 54.9931640625 329.627929688 51.298828125 330.08984375 47.46875 c 0
 331.458007812 36.1240234375 322.6171875 28.2373046875 307.053710938 26.9169921875 c 0
 299.16796875 26.2490234375 288.336914062 22.732421875 282.983398438 19.103515625 c 0
 277.629882812 15.4736328125 271.67578125 12.458984375 269.75 12.4033203125 c 0
 264.626953125 12.255859375 229.592773438 -14.6083984375 228.967773438 -18.8681640625 c 0
 228.672851562 -20.86328125 228.2578125 -24.2685546875 228.040039062 -26.4365234375 c 0
 227.419921875 -32.65234375 217.846679688 -49.6767578125 211.125 -56.5146484375 c 0
 207.755859375 -59.94140625 205 -66.3818359375 205 -70.8271484375 c 0
 205 -80.337890625 199.670898438 -87.7646484375 187.237304688 -95.58203125 c 2
 178.223632812 -101.249023438 l 1
 170.14453125 -92.6484375 l 0
EndSplineSet
EndChar

StartChar: r
Encoding: 114 114 41
Width: 397
VWidth: -110
Flags: HW
LayerCount: 2
Fore
SplineSet
266.005859375 2.1630859375 m 0
 243.498046875 3.328125 221.8671875 14.1904296875 214.202148438 28.1767578125 c 0
 206.80078125 41.6806640625 207.333984375 80.6767578125 215.225585938 103.130859375 c 0
 221.088867188 119.8125 242.07421875 164.4140625 253.67578125 184.852539062 c 0
 264.442382812 203.821289062 266.653320312 208.776367188 268.797851562 218.734375 c 0
 272.555664062 236.194335938 263.521484375 239.150390625 222.854492188 233.768554688 c 2
 189.9453125 229.412109375 l 1
 184.938476562 217.4296875 l 2
 182.184570312 210.838867188 176.969726562 201.20703125 173.348632812 196.025390625 c 0
 169.727539062 190.842773438 165.749023438 182.393554688 164.505859375 177.248046875 c 0
 163.263671875 172.102539062 158.577148438 163.440429688 154.090820312 157.998046875 c 0
 149.60546875 152.555664062 144.9296875 145.346679688 143.700195312 141.977539062 c 0
 142.469726562 138.609375 139.83984375 135.852539062 137.854492188 135.852539062 c 0
 135.869140625 135.852539062 134.245117188 134.111328125 134.245117188 131.981445312 c 0
 134.245117188 129.852539062 129.729492188 122.37109375 124.211914062 115.356445312 c 0
 118.693359375 108.341796875 113.129882812 99.2294921875 111.845703125 95.10546875 c 0
 110.5625 90.982421875 106.653320312 86.861328125 103.159179688 85.947265625 c 0
 99.4580078125 84.9794921875 95.8984375 79.748046875 94.6318359375 73.412109375 c 0
 93.0703125 65.6083984375 89.9580078125 61.912109375 83.6005859375 60.3173828125 c 0
 78.7294921875 59.0947265625 74.7451171875 56.6904296875 74.7451171875 54.9736328125 c 0
 74.7451171875 53.2568359375 72.111328125 51.8525390625 68.89453125 51.8525390625 c 0
 65.677734375 51.8525390625 60.3603515625 49.4228515625 57.080078125 46.453125 c 0
 53.7978515625 43.4833984375 45.4326171875 40.1318359375 38.4912109375 39.005859375 c 0
 28.685546875 37.4140625 25.3701171875 38.2578125 23.6318359375 42.78515625 c 0
 21.2890625 48.8916015625 30.8818359375 62.3095703125 37.662109375 62.4091796875 c 0
 44.2158203125 62.50390625 90.1982421875 112.26953125 99.056640625 128.852539062 c 0
 103.684570312 137.515625 112.514648438 150.903320312 118.680664062 158.602539062 c 0
 124.845703125 166.302734375 131.0625 176.418945312 132.49609375 181.083984375 c 0
 133.928710938 185.748046875 138.057617188 192.739257812 141.672851562 196.619140625 c 0
 145.288085938 200.499023438 148.250976562 206.131835938 148.2578125 209.137695312 c 0
 148.2578125 212.143554688 151.3125 219.591796875 155.03125 225.689453125 c 0
 158.749023438 231.787109375 163.666015625 243.034179688 165.958007812 250.68359375 c 0
 168.25 258.333007812 173.717773438 269.09375 178.110351562 274.596679688 c 2
 186.096679688 284.602539062 l 1
 197.795898438 279.53125 l 2
 210.134765625 274.182617188 237.424804688 273.264648438 263.745117188 277.313476562 c 0
 292.8203125 281.787109375 311.825195312 261.817382812 315.3359375 223.100585938 c 2
 317.16015625 202.983398438 l 1
 309.702148438 198.326171875 l 2
 305.600585938 195.764648438 302.245117188 191.90234375 302.245117188 189.7421875 c 0
 302.245117188 187.583007812 297.51953125 179.870117188 291.745117188 172.602539062 c 0
 285.969726562 165.3359375 281.245117188 155.779296875 281.245117188 151.365234375 c 0
 281.245117188 145.748046875 278.916992188 143.00390625 273.486328125 142.221679688 c 0
 265.573242188 141.080078125 261.895507812 135.665039062 250.151367188 107.852539062 c 0
 239.881835938 83.529296875 239.638671875 81.9833984375 243.353515625 64.56640625 c 0
 247.486328125 45.1884765625 256.379882812 39.19140625 286.176757812 35.6884765625 c 2
 305.7109375 33.3935546875 l 1
 331.857421875 44.79296875 l 2
 346.239257812 51.0634765625 360.459960938 55.251953125 363.458984375 54.1005859375 c 0
 369.745117188 51.6884765625 375.608398438 38.1640625 373.16015625 31.7275390625 c 0
 372.245117188 29.3212890625 367.819335938 27.3525390625 363.327148438 27.3525390625 c 0
 358.833984375 27.3525390625 354.25 25.8837890625 353.139648438 24.0888671875 c 0
 352.03125 22.29296875 346.818359375 20.94140625 341.55859375 21.0849609375 c 0
 336.298828125 21.228515625 326.481445312 17.978515625 319.745117188 13.8623046875 c 0
 313.006835938 9.74609375 304.265625 6.373046875 300.319335938 6.3662109375 c 0
 296.373046875 6.3662109375 291.647460938 5.171875 289.819335938 3.7275390625 c 0
 287.991210938 2.2841796875 277.274414062 1.580078125 266.005859375 2.1630859375 c 0
EndSplineSet
EndChar

StartChar: s
Encoding: 115 115 42
Width: 349
VWidth: -110
Flags: HW
LayerCount: 2
Fore
SplineSet
195.850585938 -10.119140625 m 0
 194.818359375 -9.0869140625 184.7109375 -8.162109375 173.391601562 -8.064453125 c 0
 161.251953125 -7.958984375 146.604492188 -5.1748046875 137.6796875 -1.275390625 c 0
 125.39453125 4.0927734375 122.762695312 6.83203125 123.6796875 13.294921875 c 2
 124.810546875 21.2548828125 l 1
 137.060546875 20.2978515625 l 2
 151.076171875 19.203125 167.291015625 17.1875 188.715820312 13.8779296875 c 0
 201.206054688 11.947265625 207.3046875 13.38671875 226.340820312 22.7587890625 c 0
 238.8359375 28.91015625 249.060546875 35.51171875 249.060546875 37.4287109375 c 0
 249.060546875 39.3466796875 253.6875 46.728515625 259.342773438 53.8349609375 c 0
 264.999023438 60.9404296875 271.794921875 73.138671875 274.447265625 80.94140625 c 2
 279.267578125 95.12890625 l 1
 271.3984375 119.39453125 l 2
 267.071289062 132.740234375 260.66796875 146.044921875 257.169921875 148.9609375 c 0
 253.671875 151.876953125 244.865234375 163.3515625 237.598632812 174.459960938 c 2
 224.385742188 194.658203125 l 1
 217.874023438 191.172851562 l 2
 212.283203125 188.180664062 186.060546875 152.5625 186.060546875 147.961914062 c 0
 186.060546875 147.078125 176.610351562 136.392578125 165.060546875 124.216796875 c 0
 153.509765625 112.041015625 144.060546875 100.825195312 144.060546875 99.2919921875 c 0
 144.060546875 97.7587890625 141.658203125 96.5048828125 138.723632812 96.5048828125 c 0
 135.788085938 96.5048828125 132.018554688 92.9052734375 130.345703125 88.505859375 c 0
 128.672851562 84.107421875 121.231445312 77.4130859375 113.807617188 73.630859375 c 0
 106.383789062 69.8486328125 96.3720703125 62.5390625 91.560546875 57.38671875 c 0
 86.7470703125 52.2333984375 76.509765625 45.478515625 68.810546875 42.3740234375 c 0
 61.1103515625 39.2705078125 52.177734375 33.2939453125 48.9619140625 29.0947265625 c 0
 43.994140625 22.6083984375 41.623046875 21.982421875 33.2119140625 24.9404296875 c 0
 25.017578125 27.822265625 23.310546875 30.4365234375 23.310546875 40.1005859375 c 2
 23.310546875 51.77734375 l 1
 43.84375 59.439453125 l 2
 55.13671875 63.6533203125 66.3359375 69.779296875 68.73046875 73.052734375 c 0
 71.123046875 76.326171875 75.5712890625 79.0048828125 78.6142578125 79.0048828125 c 0
 81.6572265625 79.0048828125 85.1201171875 80.5791015625 86.310546875 82.5048828125 c 0
 87.4990234375 84.4296875 91.423828125 86.0048828125 95.0302734375 86.0048828125 c 0
 98.63671875 86.0048828125 102.469726562 88.7607421875 103.546875 92.1298828125 c 0
 104.625 95.498046875 113.393554688 105.036132812 123.033203125 113.32421875 c 0
 132.672851562 121.611328125 140.560546875 129.775390625 140.560546875 131.46484375 c 0
 140.560546875 133.155273438 148.421875 142.610351562 158.032226562 152.4765625 c 0
 167.643554688 162.342773438 179.751953125 177.8046875 184.943359375 186.834960938 c 0
 190.133789062 195.865234375 197.671875 207.291992188 201.694335938 212.225585938 c 0
 209.201171875 221.434570312 215.681640625 239.38671875 219.299804688 261.004882812 c 0
 222.120117188 277.848632812 240.909179688 298.317382812 256.169921875 301.168945312 c 0
 265.719726562 302.953125 269.990234375 301.869140625 276.185546875 296.084960938 c 0
 280.516601562 292.040039062 284.060546875 287.169921875 284.060546875 285.26171875 c 0
 284.060546875 283.352539062 278.857421875 277.221679688 272.497070312 271.638671875 c 0
 266.137695312 266.0546875 256.537109375 253.40625 251.161132812 243.530273438 c 2
 241.388671875 225.57421875 l 1
 245.446289062 215.780273438 l 2
 247.676757812 210.392578125 260.423828125 194.41796875 273.7734375 180.279296875 c 0
 287.12109375 166.140625 298.940429688 151.745117188 300.037109375 148.288085938 c 0
 301.133789062 144.83203125 303.5 142.004882812 305.295898438 142.004882812 c 0
 307.090820312 142.004882812 308.560546875 139.810546875 308.560546875 137.12890625 c 0
 308.560546875 134.447265625 310.921875 131.346679688 313.810546875 130.239257812 c 0
 316.697265625 129.130859375 319.060546875 124.330078125 319.060546875 119.571289062 c 0
 319.060546875 114.811523438 320.603515625 109.963867188 322.489257812 108.798828125 c 0
 333.893554688 101.75 312.323242188 32.677734375 296.826171875 26.62109375 c 0
 292.692382812 25.0048828125 283.881835938 18.017578125 277.248046875 11.09375 c 0
 269.627929688 3.1396484375 261.895507812 -1.5146484375 256.248046875 -1.548828125 c 0
 251.33203125 -1.5830078125 241.009765625 -3.8701171875 233.310546875 -6.64453125 c 0
 219.17578125 -11.736328125 199.310546875 -13.5791015625 195.850585938 -10.119140625 c 0
EndSplineSet
EndChar

